<svg width="40" height="41" viewBox="0 0 40 41" fill="none" xmlns="http://www.w3.org/2000/svg">
<g clip-path="url(#clip0_140_1999)">
<path d="M29.379 25.5292C28.633 24.8999 28.0336 24.1151 27.6226 23.2298C27.2117 22.3446 26.9992 21.3802 27 20.4042V17.6162C27 14.0972 24.386 11.1842 21 10.6962V9.61621C21 9.35099 20.8946 9.09664 20.7071 8.9091C20.5196 8.72157 20.2652 8.61621 20 8.61621C19.7348 8.61621 19.4804 8.72157 19.2929 8.9091C19.1053 9.09664 19 9.35099 19 9.61621V10.6962C15.613 11.1842 13 14.0972 13 17.6162V20.4042C13.0004 21.3822 12.7868 22.3484 12.3743 23.2351C11.9618 24.1218 11.3603 24.9075 10.612 25.5372C10.3415 25.7703 10.1488 26.0805 10.0595 26.4262C9.97028 26.772 9.98878 27.1367 10.1126 27.4716C10.2363 27.8065 10.4595 28.0956 10.7521 28.3002C11.0448 28.5047 11.3929 28.615 11.75 28.6162H28.25C29.215 28.6162 30 27.8312 30 26.8662C30 26.3542 29.777 25.8702 29.379 25.5292ZM20 32.6162C20.864 32.615 21.7012 32.316 22.3705 31.7695C23.0397 31.2231 23.5001 30.4625 23.674 29.6162H16.326C16.4999 30.4625 16.9603 31.2231 17.6295 31.7695C18.2988 32.316 19.136 32.615 20 32.6162Z" fill="white"/>
<ellipse cx="26.5295" cy="13.4162" rx="4.8" ry="4.8" fill="#FF0000"/>
<path d="M24.5811 14.8164V14.4329L26.0214 12.8562C26.1905 12.6715 26.3297 12.511 26.4391 12.3746C26.5484 12.2369 26.6294 12.1076 26.682 11.9869C26.7359 11.8647 26.7629 11.7369 26.7629 11.6033C26.7629 11.4499 26.726 11.3171 26.6521 11.2049C26.5797 11.0927 26.4802 11.006 26.3538 10.945C26.2274 10.8839 26.0854 10.8533 25.9277 10.8533C25.7601 10.8533 25.6138 10.8881 25.4888 10.9577C25.3652 11.0259 25.2693 11.1218 25.2011 11.2454C25.1344 11.369 25.101 11.5138 25.101 11.68H24.5981C24.5981 11.4244 24.6571 11.1999 24.775 11.0067C24.8929 10.8136 25.0534 10.663 25.2565 10.555C25.4611 10.4471 25.6905 10.3931 25.9447 10.3931C26.2004 10.3931 26.427 10.4471 26.6244 10.555C26.8219 10.663 26.9767 10.8086 27.0889 10.9918C27.2011 11.1751 27.2572 11.3789 27.2572 11.6033C27.2572 11.7638 27.2281 11.9208 27.1699 12.0742C27.1131 12.2262 27.0136 12.396 26.8716 12.5835C26.731 12.7695 26.5356 12.9968 26.2856 13.2653L25.3055 14.3136V14.3477H27.3339V14.8164H24.5811Z" fill="white"/>
</g>
<defs>
<clipPath id="clip0_140_1999">
<rect width="24" height="24" fill="white" transform="translate(8 8.61621)"/>
</clipPath>
</defs>
</svg>
