<svg width="60" height="60" viewBox="0 0 60 60" fill="none" xmlns="http://www.w3.org/2000/svg">
<g filter="url(#filter0_b_199_2243)">
<circle cx="30" cy="30" r="30" fill="url(#paint0_radial_199_2243)"/>
</g>
<g clip-path="url(#clip0_199_2243)">
<path d="M41.25 15H18.75C16.6819 15 15 16.6819 15 18.75V41.25C15 43.3181 16.6819 45 18.75 45H41.25C43.3181 45 45 43.3181 45 41.25V18.75C45 16.6819 43.3181 15 41.25 15Z" fill="white"/>
<path d="M40.3125 30H35.625V26.25C35.625 25.215 36.465 25.3125 37.5 25.3125H39.375V20.625H35.625C32.5181 20.625 30 23.1431 30 26.25V30H26.25V34.6875H30V45H35.625V34.6875H38.4375L40.3125 30Z" fill="#464646"/>
</g>
<defs>
<filter id="filter0_b_199_2243" x="-42" y="-42" width="144" height="144" filterUnits="userSpaceOnUse" color-interpolation-filters="sRGB">
<feFlood flood-opacity="0" result="BackgroundImageFix"/>
<feGaussianBlur in="BackgroundImageFix" stdDeviation="21"/>
<feComposite in2="SourceAlpha" operator="in" result="effect1_backgroundBlur_199_2243"/>
<feBlend mode="normal" in="SourceGraphic" in2="effect1_backgroundBlur_199_2243" result="shape"/>
</filter>
<radialGradient id="paint0_radial_199_2243" cx="0" cy="0" r="1" gradientUnits="userSpaceOnUse" gradientTransform="translate(0.539685 1.78512) rotate(44.0741) scale(81.4816 130.318)">
<stop stop-color="white" stop-opacity="0.4"/>
<stop offset="1" stop-color="white" stop-opacity="0.2"/>
</radialGradient>
<clipPath id="clip0_199_2243">
<rect width="30" height="30" fill="white" transform="translate(15 15)"/>
</clipPath>
</defs>
</svg>
