<svg width="25" height="24" viewBox="0 0 25 24" fill="none" xmlns="http://www.w3.org/2000/svg">
<path d="M24.2651 9.07993C24.1248 8.62302 23.7328 8.30429 23.2772 8.27035L16.0497 7.75893L13.3502 0.734432C13.1775 0.28965 12.7693 0 12.3113 0C11.8521 0 11.4393 0.292074 11.2689 0.734432L8.56945 7.7611L1.33868 8.27252C0.882969 8.30767 0.491045 8.62518 0.347284 9.0821C0.206979 9.53656 0.343809 10.0347 0.696314 10.3401L6.25527 15.194L4.48583 22.5384C4.37683 23.0026 4.5438 23.491 4.91716 23.7746C5.28474 24.0545 5.78335 24.0727 6.16948 23.8194L12.3094 19.7911L18.4457 23.8194C18.6277 23.9406 18.8353 24 19.0417 24C19.2724 24 19.5032 23.9273 19.7015 23.7782C20.069 23.4958 20.243 23.0098 20.1305 22.542L18.361 15.1977L23.9233 10.3437C24.2723 10.0335 24.4091 9.53415 24.2653 9.07969L24.2651 9.07993Z" fill="#CCCCCC"/>
</svg>
