<svg width="112" height="68" viewBox="0 0 112 68" fill="none" xmlns="http://www.w3.org/2000/svg">
<path d="M55.9994 1.41602C52.9173 1.41602 49.9044 2.32996 47.3417 4.04228C44.7791 5.7546 42.7817 8.18838 41.6022 11.0359C40.4228 13.8833 40.1142 17.0166 40.7155 20.0395C41.3167 23.0624 42.8009 25.8391 44.9803 28.0184C47.1596 30.1978 49.9363 31.682 52.9592 32.2833C55.9821 32.8845 59.1154 32.5759 61.9628 31.3965C64.8103 30.217 67.2441 28.2197 68.9564 25.657C70.6687 23.0943 71.5827 20.0814 71.5827 16.9993C71.5778 12.8679 69.9344 8.90704 67.0131 5.98565C64.0917 3.06427 60.1308 1.42089 55.9994 1.41602ZM63.0827 18.416H57.416V24.0827C57.416 24.4584 57.2668 24.8187 57.0011 25.0844C56.7354 25.3501 56.3751 25.4993 55.9994 25.4993C55.6236 25.4993 55.2633 25.3501 54.9976 25.0844C54.7319 24.8187 54.5827 24.4584 54.5827 24.0827V18.416H48.916C48.5403 18.416 48.18 18.2668 47.9143 18.0011C47.6486 17.7354 47.4994 17.3751 47.4994 16.9993C47.4994 16.6236 47.6486 16.2633 47.9143 15.9976C48.18 15.7319 48.5403 15.5827 48.916 15.5827H54.5827V9.91602C54.5827 9.54029 54.7319 9.17996 54.9976 8.91428C55.2633 8.6486 55.6236 8.49935 55.9994 8.49935C56.3751 8.49935 56.7354 8.6486 57.0011 8.91428C57.2668 9.17996 57.416 9.54029 57.416 9.91602V15.5827H63.0827C63.4584 15.5827 63.8188 15.7319 64.0844 15.9976C64.3501 16.2633 64.4994 16.6236 64.4994 16.9993C64.4994 17.3751 64.3501 17.7354 64.0844 18.0011C63.8188 18.2668 63.4584 18.416 63.0827 18.416Z" fill="#999999"/>
<path d="M13.1433 62L11.4631 58.1296H4.16037L2.4982 62H0.860036L6.89064 48.0906H8.76283L14.8654 62H13.1433ZM4.71842 56.8035H10.893L7.79073 49.6748L4.71842 56.8035ZM25.4091 62L25.2291 60.3378C24.185 61.568 22.7568 62.198 21.1487 62.198C18.5084 62.198 15.8442 60.4818 15.8442 57.1755C15.8442 53.9352 18.4004 52.021 21.1967 52.021C22.7328 52.021 24.233 52.6031 25.1931 53.7732V47.7546L26.7412 47.4485V62H25.4091ZM21.2927 60.8539C23.6809 60.8539 25.2531 59.2397 25.2531 57.0555C25.2531 54.7933 23.5669 53.3711 21.3287 53.3711C19.0005 53.3711 17.4163 54.9013 17.4163 57.1455C17.4163 59.4017 19.0245 60.8539 21.2927 60.8539ZM38.8661 62L38.6861 60.3378C37.642 61.568 36.2139 62.198 34.6057 62.198C31.9655 62.198 29.3012 60.4818 29.3012 57.1755C29.3012 53.9352 31.8574 52.021 34.6537 52.021C36.1899 52.021 37.69 52.6031 38.6501 53.7732V47.7546L40.1983 47.4485V62H38.8661ZM34.7497 60.8539C37.138 60.8539 38.7101 59.2397 38.7101 57.0555C38.7101 54.7933 37.024 53.3711 34.7857 53.3711C32.4575 53.3711 30.8733 54.9013 30.8733 57.1455C30.8733 59.4017 32.4815 60.8539 34.7497 60.8539ZM49.7486 62V48.0906H51.3448V62H49.7486ZM56.6175 62H55.0634V52.219H56.3955L56.5695 53.7612C57.4336 52.6151 58.7117 52.021 60.1819 52.021C61.7 52.021 63.1102 52.6511 63.7342 54.0432C64.5863 52.7291 66.0505 52.021 67.7066 52.021C70.2929 52.021 71.637 53.7132 71.637 56.3174V62H70.0889V56.5155C70.0889 54.5773 69.3148 53.3831 67.4186 53.3831C65.4804 53.3831 64.1243 54.6313 64.1243 56.5215V62H62.5701V56.2754C62.5701 54.4392 61.706 53.3831 59.9479 53.3831C58.0097 53.3831 56.6175 54.6613 56.6175 56.5215V62ZM84.1358 61.0819L83.9438 62.198C82.9177 62.198 81.9756 61.694 81.9756 60.4999H81.9636C81.3275 61.4539 79.6474 62.198 77.7512 62.198C75.549 62.198 73.8268 61.2259 73.8268 59.3117C73.8268 57.4695 75.4109 56.1674 78.7473 56.1674C79.8094 56.1674 80.9015 56.3054 81.8976 56.4674V55.6574C81.8976 53.9172 80.6135 53.3171 78.7533 53.3171C77.5052 53.3171 76.335 53.5932 75.3149 54.0372L74.8109 52.9631C75.951 52.291 77.4992 52.021 78.9213 52.021C81.8016 52.021 83.4277 53.1311 83.4277 55.3333V59.4917C83.4277 60.3798 83.5838 60.8419 84.1358 61.0819ZM81.8976 57.6556C81.1595 57.5296 80.0494 57.3735 78.9093 57.3735C76.5091 57.3735 75.3569 58.0576 75.3569 59.2397C75.3569 60.4938 76.6531 60.9379 77.8772 60.9379C79.7554 60.9379 81.8976 59.8998 81.8976 58.4416V57.6556ZM96.9696 52.219V61.634C96.9696 64.6403 94.6534 66.3084 91.4371 66.3084C89.7449 66.3084 88.3468 65.8464 87.1346 65.0003L87.9027 63.9922C88.9708 64.6223 90.0149 64.9583 91.3351 64.9583C93.6753 64.9583 95.4215 63.9262 95.4215 61.2979V60.1098C94.4914 61.2919 92.9012 61.886 91.3771 61.886C88.7488 61.886 86.0905 60.1638 86.0905 56.9295C86.0905 53.6412 88.8448 52.021 91.4131 52.021C93.0032 52.021 94.4674 52.6451 95.4335 53.8512L95.6135 52.219H96.9696ZM91.5691 60.5479C93.8553 60.5479 95.4575 59.0897 95.4575 56.9595C95.4575 54.8113 93.8193 53.3711 91.5211 53.3711C89.1508 53.3711 87.6567 54.9073 87.6567 56.9355C87.6567 59.0237 89.2288 60.5479 91.5691 60.5479ZM109.315 60.9319C108.241 61.73 106.753 62.198 105.169 62.198C102.072 62.198 99.516 60.4218 99.516 57.1815C99.516 54.0192 101.952 52.021 105.019 52.021C108.187 52.021 110.227 54.1572 110.227 56.8935C110.227 57.1575 110.209 57.4455 110.185 57.5836H101.094C101.256 59.5938 102.798 60.8839 105.235 60.8839C106.489 60.8839 107.587 60.5359 108.577 59.9538L109.315 60.9319ZM101.124 56.4194H108.679C108.595 54.7993 107.299 53.3351 105.019 53.3351C102.87 53.3351 101.322 54.6433 101.124 56.4194Z" fill="black" fill-opacity="0.5"/>
</svg>
