<svg width="234" height="201" viewBox="0 0 234 201" fill="none" xmlns="http://www.w3.org/2000/svg">
<path fill-rule="evenodd" clip-rule="evenodd" d="M119.831 0.25H66.1976C48.9153 2.62455 54.8537 35.5811 65.0057 35.2746C84.6713 34.681 89.4386 35.2746 100.165 42.9919C109.384 49.6246 113.709 58.4265 114.467 66.7374C115.28 75.6419 116.017 89.7705 103.145 101.168C87.0548 115.416 69.1772 111.26 60.8343 108.292C54.1599 105.917 54.875 108.49 56.0669 110.073C63.8139 116.009 82.2875 117.197 93.0141 112.447C101.595 108.648 102.946 110.864 102.549 112.447C124.906 109.663 128.226 94.5639 127.07 86.8586C124.803 86.4922 123.072 84.533 123.072 82.171C123.072 79.5481 125.207 77.4219 127.84 77.4219C130.473 77.4219 132.607 79.5481 132.607 82.171C132.607 83.9597 131.614 85.5175 130.148 86.3274H130.557V88.702C130.557 111.498 111.488 117.197 101.953 117.197V125.507H66.1976C59.6424 125.507 56.0669 126.695 56.0669 135.599C56.0669 142.723 60.0397 144.504 62.0261 144.504H113.275C165.717 149.253 183.594 118.977 175.847 95.8256C169.65 77.3041 153.798 71.4865 146.647 70.8928C171.676 60.2074 173.464 37.0555 163.929 18.6528C156.301 3.93055 131.352 0.25 119.831 0.25ZM131.358 46.2105C131.943 47.2486 131.526 48.5518 130.466 49.1005C129.405 49.6492 128.102 49.2355 127.515 48.1987C122.787 39.8509 116.185 32.7046 108.226 27.3191C107.237 26.6502 106.931 25.3225 107.568 24.3151C108.205 23.3078 109.543 23.0025 110.533 23.6692C119.141 29.4655 126.272 37.1846 131.358 46.2105ZM120.941 49.9371C121.585 50.9395 121.246 52.2647 120.219 52.8741C119.193 53.4835 117.868 53.1462 117.221 52.1453C113.072 45.726 107.771 40.1227 101.584 35.6162C100.619 34.9136 100.359 33.576 101.031 32.5913C101.702 31.6065 103.05 31.3477 104.017 32.0482C110.725 36.9114 116.465 42.9782 120.941 49.9371Z" fill="#FFBB15"/>
<ellipse cx="76.2288" cy="73.8611" rx="11.3225" ry="11.2791" fill="#FFBB15"/>
<path d="M0 176.514H12.6479C15.3398 176.514 17.4534 177.046 18.9885 178.109C20.5236 179.173 21.2911 180.614 21.2911 182.431C21.2911 183.761 20.8684 184.891 20.023 185.822C19.1998 186.731 18.0763 187.351 16.6525 187.684C18.3433 188.038 19.7004 188.703 20.7238 189.678C21.7472 190.631 22.2589 191.883 22.2589 193.435C22.2589 195.363 21.458 196.903 19.8561 198.056C18.2765 199.208 16.1408 199.784 13.4488 199.784H0V176.514ZM6.50747 189.811V195.33H12.1807C13.2041 195.33 14.0161 195.086 14.6168 194.598C15.2397 194.111 15.5512 193.435 15.5512 192.57C15.5512 191.706 15.2397 191.03 14.6168 190.543C14.0161 190.055 13.2041 189.811 12.1807 189.811H6.50747ZM11.58 186.154C12.5144 186.154 13.2708 185.922 13.8492 185.456C14.4499 184.991 14.7503 184.348 14.7503 183.528C14.7503 182.686 14.4499 182.043 13.8492 181.6C13.2485 181.135 12.4699 180.902 11.5132 180.902H6.50747V186.154H11.58Z" fill="black"/>
<path d="M25.8234 176.514H32.3643V190.376C32.3643 191.883 32.7536 193.08 33.5323 193.967C34.3109 194.853 35.4233 195.296 36.8694 195.296C38.3155 195.296 39.4279 194.853 40.2066 193.967C40.9853 193.08 41.3746 191.883 41.3746 190.376V176.514H47.9488V190.675C47.9488 193.756 46.9588 196.127 44.9787 197.79C42.9987 199.43 40.2956 200.25 36.8694 200.25C33.3988 200.25 30.6845 199.419 28.7267 197.756C26.7912 196.094 25.8234 193.734 25.8234 190.675V176.514Z" fill="black"/>
<path d="M51.6971 199.784V196.161L62.9767 181.6H52.0308V176.514H72.2207V180.237L61.0412 194.698H73.1217V199.784H51.6971Z" fill="black"/>
<path d="M76.1549 199.784V196.161L87.4345 181.6H76.4886V176.514H96.6785V180.237L85.499 194.698H97.5795V199.784H76.1549Z" fill="black"/>
<path d="M120.936 176.514V181.567H108.021V185.922H118.9V189.878H108.021V194.698H121.603V199.784H101.514V176.514H120.936Z" fill="black"/>
<path d="M125.548 199.784V176.514H137.662C140.732 176.514 143.124 177.201 144.837 178.575C146.55 179.949 147.406 181.844 147.406 184.259C147.406 185.944 146.984 187.384 146.138 188.581C145.315 189.756 144.169 190.642 142.701 191.241L147.773 199.784H140.398L136.26 192.437H132.122V199.784H125.548ZM136.794 188.049C137.973 188.049 138.93 187.772 139.664 187.218C140.42 186.642 140.799 185.822 140.799 184.758C140.799 183.672 140.443 182.852 139.731 182.298C139.019 181.744 138.062 181.467 136.861 181.467H132.122V188.049H136.794Z" fill="black"/>
<path d="M160.071 199.784L170.049 176.514H174.32L184.265 199.784H180.661L178.392 194.432H165.977L163.708 199.784H160.071ZM177.457 192.105L172.151 180.038L166.878 192.105H177.457Z" fill="black"/>
<path d="M188.278 199.784V176.514H199.791C202.417 176.514 204.519 177.212 206.099 178.608C207.701 179.982 208.501 181.81 208.501 184.093C208.501 186.376 207.701 188.227 206.099 189.645C204.519 191.041 202.417 191.739 199.791 191.739H191.816V199.784H188.278ZM191.816 189.08H199.424C201.093 189.08 202.428 188.625 203.429 187.717C204.452 186.786 204.964 185.6 204.964 184.16C204.964 182.697 204.463 181.522 203.462 180.636C202.461 179.727 201.126 179.273 199.458 179.273H191.816V189.08Z" fill="black"/>
<path d="M213.11 199.784V176.514H224.623C227.249 176.514 229.351 177.212 230.931 178.608C232.532 179.982 233.333 181.81 233.333 184.093C233.333 186.376 232.532 188.227 230.931 189.645C229.351 191.041 227.249 191.739 224.623 191.739H216.647V199.784H213.11ZM216.647 189.08H224.256C225.925 189.08 227.26 188.625 228.261 187.717C229.284 186.786 229.796 185.6 229.796 184.16C229.796 182.697 229.295 181.522 228.294 180.636C227.293 179.727 225.958 179.273 224.29 179.273H216.647V189.08Z" fill="black"/>
</svg>
