<svg width="70" height="60" viewBox="0 0 70 60" fill="none" xmlns="http://www.w3.org/2000/svg">
<path fill-rule="evenodd" clip-rule="evenodd" d="M35.9495 0H19.8596C14.6749 0.712365 16.4564 10.5993 19.502 10.5074C25.4017 10.3293 26.8319 10.5074 30.0498 12.8226C32.8155 14.8124 34.113 17.4529 34.3405 19.9462C34.5842 22.6176 34.8053 26.8562 30.9437 30.2755C26.1167 34.5497 20.7534 33.3031 18.2506 32.4126C16.2483 31.7002 16.4628 32.472 16.8204 32.9469C19.1445 34.7278 24.6865 35.084 27.9045 33.6592C30.4789 32.5195 30.8841 33.1843 30.7649 33.6592C37.4725 32.824 38.4683 28.2938 38.1214 25.9823C37.4414 25.8722 36.9223 25.2846 36.9223 24.5761C36.9223 23.7892 37.5626 23.1514 38.3525 23.1514C39.1424 23.1514 39.7827 23.7892 39.7827 24.5761C39.7827 25.1129 39.4847 25.5803 39.0446 25.8232H39.1675V26.5356C39.1675 33.3743 33.4466 35.084 30.5862 35.084V37.5772H19.8596C17.893 37.5772 16.8204 37.9334 16.8204 40.6048C16.8204 42.7419 18.0122 43.2762 18.6081 43.2762H33.9829C49.7153 44.7009 55.0786 35.6182 52.7545 28.6727C50.8952 23.1162 46.1397 21.3709 43.9944 21.1929C51.503 17.9872 52.0394 11.0417 49.1789 5.52083C46.8906 1.10417 39.4058 0 35.9495 0ZM39.4081 13.788C39.5836 14.0995 39.4587 14.4904 39.1405 14.655C38.8224 14.8197 38.4315 14.6955 38.2553 14.3845C36.8369 11.8802 34.8563 9.73629 32.4685 8.12065C32.1719 7.91998 32.0802 7.52166 32.2712 7.21945C32.4622 6.91724 32.8637 6.82565 33.1607 7.02566C35.7431 8.76457 37.8825 11.0803 39.4081 13.788ZM36.2829 14.906C36.4763 15.2067 36.3746 15.6043 36.0666 15.7871C35.7586 15.97 35.3611 15.8688 35.1671 15.5685C33.9222 13.6427 32.3319 11.9617 30.4758 10.6098C30.1864 10.399 30.1086 9.99772 30.31 9.7023C30.5115 9.40687 30.9159 9.32921 31.2057 9.53936C33.2183 10.9983 34.9401 12.8184 36.2829 14.906Z" fill="#FFBB15"/>
<ellipse cx="22.8689" cy="22.0839" rx="3.39676" ry="3.38373" fill="#FFBB15"/>
<path d="M0 52.8794H3.79436C4.60195 52.8794 5.23601 53.039 5.69654 53.3581C6.15707 53.6772 6.38734 54.1094 6.38734 54.6546C6.38734 55.0535 6.26052 55.3926 6.0069 55.6719C5.75995 55.9445 5.42289 56.1306 4.99574 56.2304C5.50299 56.3367 5.91012 56.5362 6.21714 56.8287C6.52416 57.1146 6.67767 57.4903 6.67767 57.9557C6.67767 58.5341 6.43739 58.9962 5.95684 59.342C5.48296 59.6877 4.84223 59.8606 4.03463 59.8606H0V52.8794ZM1.95224 56.8686V58.5242H3.6542C3.96122 58.5242 4.20483 58.451 4.38504 58.3048C4.57192 58.1585 4.66536 57.9557 4.66536 57.6964C4.66536 57.4371 4.57192 57.2343 4.38504 57.088C4.20483 56.9418 3.96122 56.8686 3.6542 56.8686H1.95224ZM3.47399 55.7716C3.75431 55.7716 3.98124 55.7018 4.15477 55.5622C4.33498 55.4225 4.42508 55.2297 4.42508 54.9837C4.42508 54.7311 4.33498 54.5383 4.15477 54.4053C3.97456 54.2657 3.74096 54.1958 3.45397 54.1958H1.95224V55.7716H3.47399Z" fill="white"/>
<path d="M7.74702 52.8794H9.70928V57.0382C9.70928 57.4903 9.82608 57.8493 10.0597 58.1153C10.2933 58.3812 10.627 58.5142 11.0608 58.5142C11.4947 58.5142 11.8284 58.3812 12.062 58.1153C12.2956 57.8493 12.4124 57.4903 12.4124 57.0382V52.8794H14.3846V57.1279C14.3846 58.0521 14.0876 58.7635 13.4936 59.2622C12.8996 59.7542 12.0887 60.0002 11.0608 60.0002C10.0196 60.0002 9.20536 59.7509 8.61802 59.2522C8.03735 58.7536 7.74702 58.0455 7.74702 57.1279V52.8794Z" fill="white"/>
<path d="M15.5091 59.8606V58.7735L18.893 54.4053H15.6093V52.8794H21.6662V53.9964L18.3124 58.3347H21.9365V59.8606H15.5091Z" fill="white"/>
<path d="M22.8465 59.8606V58.7735L26.2304 54.4053H22.9466V52.8794H29.0035V53.9964L25.6497 58.3347H29.2739V59.8606H22.8465Z" fill="white"/>
<path d="M36.2808 52.8794V54.3953H32.4064V55.7018H35.6701V56.8886H32.4064V58.3347H36.481V59.8606H30.4541V52.8794H36.2808Z" fill="white"/>
<path d="M37.6643 59.8606V52.8794H41.2985C42.2196 52.8794 42.9371 53.0855 43.451 53.4977C43.9649 53.9099 44.2219 54.4784 44.2219 55.2031C44.2219 55.7084 44.0951 56.1406 43.8414 56.4996C43.5945 56.852 43.2508 57.118 42.8103 57.2975L44.332 59.8606H42.1195L40.878 57.6565H39.6366V59.8606H37.6643ZM41.0382 56.3401C41.392 56.3401 41.679 56.257 41.8992 56.0907C42.1261 55.9179 42.2396 55.6719 42.2396 55.3527C42.2396 55.0269 42.1328 54.7809 41.9192 54.6147C41.7057 54.4485 41.4187 54.3654 41.0582 54.3654H39.6366V56.3401H41.0382Z" fill="white"/>
<path d="M48.0212 59.8606L51.0146 52.8794H52.2961L55.2795 59.8606H54.1983L53.5175 58.2549H49.7932L49.1124 59.8606H48.0212ZM53.2372 57.5568L51.6453 53.9365L50.0635 57.5568H53.2372Z" fill="white"/>
<path d="M56.4835 59.8606V52.8794H59.9374C60.725 52.8794 61.3557 53.0888 61.8296 53.5077C62.3102 53.9199 62.5504 54.4684 62.5504 55.1533C62.5504 55.8381 62.3102 56.3933 61.8296 56.8188C61.3557 57.2376 60.725 57.4471 59.9374 57.4471H57.5447V59.8606H56.4835ZM57.5447 56.6492H59.8273C60.3279 56.6492 60.7283 56.5129 61.0287 56.2403C61.3357 55.9611 61.4892 55.6054 61.4892 55.1732C61.4892 54.7344 61.339 54.382 61.0387 54.1161C60.7383 53.8435 60.3379 53.7072 59.8373 53.7072H57.5447V56.6492Z" fill="white"/>
<path d="M63.933 59.8606V52.8794H67.387C68.1746 52.8794 68.8053 53.0888 69.2792 53.5077C69.7597 53.9199 70 54.4684 70 55.1533C70 55.8381 69.7597 56.3933 69.2792 56.8188C68.8053 57.2376 68.1746 57.4471 67.387 57.4471H64.9942V59.8606H63.933ZM64.9942 56.6492H67.2769C67.7774 56.6492 68.1779 56.5129 68.4782 56.2403C68.7853 55.9611 68.9388 55.6054 68.9388 55.1732C68.9388 54.7344 68.7886 54.382 68.4883 54.1161C68.1879 53.8435 67.7875 53.7072 67.2869 53.7072H64.9942V56.6492Z" fill="white"/>
</svg>
