<svg width="60" height="60" viewBox="0 0 60 60" fill="none" xmlns="http://www.w3.org/2000/svg">
<g filter="url(#filter0_b_199_2256)">
<circle cx="30" cy="30" r="30" fill="url(#paint0_radial_199_2256)"/>
</g>
<g clip-path="url(#clip0_199_2256)">
<path d="M16.8751 17.0412C14.5176 19.49 15.0001 22.0912 15.0001 29.9937C15.0001 36.5562 13.8551 43.135 19.8476 44.6837C21.7189 45.165 38.2989 45.165 40.1676 44.6812C42.6626 44.0375 44.6926 42.0137 44.9701 38.485C45.0089 37.9925 45.0089 22.0037 44.9689 21.5012C44.6739 17.7425 42.3601 15.5762 39.3114 15.1375C38.6126 15.0362 38.4726 15.0062 34.8876 15C22.1714 15.0062 19.3839 14.44 16.8751 17.0412Z" fill="white"/>
<path d="M29.9978 18.9238C25.459 18.9238 21.149 18.52 19.5028 22.745C18.8228 24.49 18.9215 26.7563 18.9215 30.0013C18.9215 32.8488 18.8303 35.525 19.5028 37.2563C21.1453 41.4838 25.4903 41.0788 29.9953 41.0788C34.3415 41.0788 38.8228 41.5313 40.489 37.2563C41.1703 35.4938 41.0703 33.2613 41.0703 30.0013C41.0703 25.6738 41.309 22.88 39.2103 20.7825C37.0853 18.6575 34.2115 18.9238 29.9928 18.9238H29.9978ZM29.0053 20.92C38.4728 20.905 39.6778 19.8525 39.0128 34.4738C38.7765 39.645 34.839 39.0775 29.999 39.0775C21.174 39.0775 20.9203 38.825 20.9203 29.9963C20.9203 21.065 21.6203 20.925 29.0053 20.9175V20.92ZM35.9103 22.7588C35.5578 22.7588 35.2199 22.8988 34.9707 23.148C34.7215 23.3971 34.5815 23.7351 34.5815 24.0875C34.5815 24.4399 34.7215 24.7779 34.9707 25.0271C35.2199 25.2763 35.5578 25.4163 35.9103 25.4163C36.2627 25.4163 36.6006 25.2763 36.8498 25.0271C37.099 24.7779 37.239 24.4399 37.239 24.0875C37.239 23.7351 37.099 23.3971 36.8498 23.148C36.6006 22.8988 36.2627 22.7588 35.9103 22.7588ZM29.9978 24.3125C29.2508 24.3126 28.5111 24.4598 27.8211 24.7457C27.131 25.0317 26.504 25.4507 25.9758 25.979C24.9092 27.0458 24.3101 28.4927 24.3103 30.0013C24.3104 31.5099 24.9099 32.9566 25.9767 34.0232C27.0436 35.0898 28.4904 35.6889 29.999 35.6888C31.5076 35.6886 32.9543 35.0892 34.0209 34.0223C35.0875 32.9555 35.6867 31.5086 35.6865 30C35.6863 28.4914 35.0869 27.0447 34.0201 25.9781C32.9532 24.9115 31.5063 24.3124 29.9978 24.3125ZM29.9978 26.3088C34.879 26.3088 34.8853 33.6938 29.9978 33.6938C25.1178 33.6938 25.1103 26.3088 29.9978 26.3088Z" fill="#464646"/>
</g>
<defs>
<filter id="filter0_b_199_2256" x="-42" y="-42" width="144" height="144" filterUnits="userSpaceOnUse" color-interpolation-filters="sRGB">
<feFlood flood-opacity="0" result="BackgroundImageFix"/>
<feGaussianBlur in="BackgroundImageFix" stdDeviation="21"/>
<feComposite in2="SourceAlpha" operator="in" result="effect1_backgroundBlur_199_2256"/>
<feBlend mode="normal" in="SourceGraphic" in2="effect1_backgroundBlur_199_2256" result="shape"/>
</filter>
<radialGradient id="paint0_radial_199_2256" cx="0" cy="0" r="1" gradientUnits="userSpaceOnUse" gradientTransform="translate(0.539685 1.78512) rotate(44.0741) scale(81.4816 130.318)">
<stop stop-color="white" stop-opacity="0.4"/>
<stop offset="1" stop-color="white" stop-opacity="0.2"/>
</radialGradient>
<clipPath id="clip0_199_2256">
<rect width="30" height="30" fill="white" transform="translate(15 15)"/>
</clipPath>
</defs>
</svg>
