<svg width="60" height="60" viewBox="0 0 60 60" fill="none" xmlns="http://www.w3.org/2000/svg">
<g filter="url(#filter0_b_199_2263)">
<circle cx="30" cy="30" r="30" fill="url(#paint0_radial_199_2263)"/>
</g>
<g clip-path="url(#clip0_199_2263)">
<path d="M40.9091 15H19.0909C16.8316 15 15 16.8316 15 19.0909V40.9091C15 43.1684 16.8316 45 19.0909 45H40.9091C43.1684 45 45 43.1684 45 40.9091V19.0909C45 16.8316 43.1684 15 40.9091 15Z" fill="white"/>
<path d="M25.807 23.1818C25.807 23.6875 25.657 24.1818 25.3761 24.6023C25.0951 25.0228 24.6958 25.3505 24.2286 25.544C23.7614 25.7375 23.2473 25.7882 22.7514 25.6895C22.2554 25.5909 21.7998 25.3473 21.4422 24.9898C21.0847 24.6322 20.8411 24.1766 20.7425 23.6806C20.6438 23.1847 20.6945 22.6706 20.888 22.2034C21.0815 21.7362 21.4092 21.3368 21.8297 21.0559C22.2502 20.775 22.7445 20.625 23.2502 20.625C23.9283 20.625 24.5786 20.8944 25.0581 21.3739C25.5376 21.8534 25.807 22.5037 25.807 23.1818ZM25.2275 27.4432V38.7392C25.2279 38.8225 25.2119 38.9051 25.1803 38.9823C25.1487 39.0594 25.1022 39.1295 25.0434 39.1886C24.9847 39.2477 24.9148 39.2945 24.8379 39.3265C24.7609 39.3585 24.6784 39.375 24.5951 39.375H21.9002C21.8168 39.3752 21.7343 39.359 21.6573 39.3272C21.5802 39.2954 21.5102 39.2487 21.4513 39.1898C21.3924 39.1309 21.3457 39.0609 21.3139 38.9838C21.2821 38.9068 21.2659 38.8242 21.2661 38.7409V27.4432C21.2661 27.275 21.3329 27.1137 21.4518 26.9948C21.5707 26.8759 21.732 26.8091 21.9002 26.8091H24.5951C24.7629 26.8095 24.9238 26.8765 25.0423 26.9954C25.1609 27.1143 25.2275 27.2753 25.2275 27.4432ZM39.3138 33.3239V38.792C39.314 38.8687 39.2991 38.9446 39.2699 39.0154C39.2407 39.0862 39.1978 39.1506 39.1436 39.2048C39.0894 39.2589 39.025 39.3019 38.9542 39.3311C38.8834 39.3603 38.8075 39.3752 38.7309 39.375H35.8331C35.7565 39.3752 35.6806 39.3603 35.6098 39.3311C35.539 39.3019 35.4746 39.2589 35.4204 39.2048C35.3662 39.1506 35.3233 39.0862 35.2941 39.0154C35.2649 38.9446 35.25 38.8687 35.2502 38.792V33.4926C35.2502 32.7017 35.482 30.029 33.1826 30.029C31.4013 30.029 31.0382 31.858 30.9667 32.6795V38.792C30.9667 38.9452 30.9064 39.0922 30.7989 39.2013C30.6914 39.3104 30.5454 39.3728 30.3922 39.375H27.5934C27.5169 39.375 27.4412 39.3599 27.3705 39.3306C27.2999 39.3013 27.2357 39.2583 27.1818 39.2042C27.1278 39.15 27.085 39.0857 27.0559 39.015C27.0268 38.9443 27.0119 38.8685 27.0121 38.792V27.3938C27.0119 27.3173 27.0268 27.2415 27.0559 27.1708C27.085 27.1001 27.1278 27.0358 27.1818 26.9816C27.2357 26.9275 27.2999 26.8845 27.3705 26.8552C27.4412 26.8259 27.5169 26.8108 27.5934 26.8108H30.3922C30.5468 26.8108 30.6951 26.8722 30.8044 26.9815C30.9138 27.0909 30.9752 27.2391 30.9752 27.3938V28.379C31.6365 27.3869 32.6167 26.6216 34.7081 26.6216C39.3411 26.6216 39.3138 30.9477 39.3138 33.3239Z" fill="#464646"/>
</g>
<defs>
<filter id="filter0_b_199_2263" x="-42" y="-42" width="144" height="144" filterUnits="userSpaceOnUse" color-interpolation-filters="sRGB">
<feFlood flood-opacity="0" result="BackgroundImageFix"/>
<feGaussianBlur in="BackgroundImageFix" stdDeviation="21"/>
<feComposite in2="SourceAlpha" operator="in" result="effect1_backgroundBlur_199_2263"/>
<feBlend mode="normal" in="SourceGraphic" in2="effect1_backgroundBlur_199_2263" result="shape"/>
</filter>
<radialGradient id="paint0_radial_199_2263" cx="0" cy="0" r="1" gradientUnits="userSpaceOnUse" gradientTransform="translate(0.539685 1.78512) rotate(44.0741) scale(81.4816 130.318)">
<stop stop-color="white" stop-opacity="0.4"/>
<stop offset="1" stop-color="white" stop-opacity="0.2"/>
</radialGradient>
<clipPath id="clip0_199_2263">
<rect width="30" height="30" fill="white" transform="translate(15 15)"/>
</clipPath>
</defs>
</svg>
