<svg width="31" height="30" viewBox="0 0 31 30" fill="none" xmlns="http://www.w3.org/2000/svg">
<path d="M15.4409 0C9.92703 0 5.44092 4.18704 5.44092 9.33335C5.44092 10.8783 5.85477 12.4101 6.6415 13.7687L14.8941 27.6992C15.0039 27.8849 15.2133 28 15.4409 28C15.6686 28 15.8779 27.8849 15.9878 27.6992L24.2434 13.7641C25.0271 12.4101 25.441 10.8782 25.441 9.3333C25.441 4.18704 20.9548 0 15.4409 0ZM15.4409 14C12.684 14 10.441 11.9065 10.441 9.33335C10.441 6.7602 12.684 4.6667 15.4409 4.6667C18.1979 4.6667 20.4409 6.7602 20.4409 9.33335C20.4409 11.9065 18.1979 14 15.4409 14Z" fill="url(#paint0_linear_1_1894)"/>
<defs>
<linearGradient id="paint0_linear_1_1894" x1="15.4409" y1="0" x2="15.4409" y2="28" gradientUnits="userSpaceOnUse">
<stop stop-color="#350202"/>
<stop offset="1" stop-color="#6B0504"/>
</linearGradient>
</defs>
</svg>
