<svg width="24" height="24" viewBox="0 0 24 24" fill="none" xmlns="http://www.w3.org/2000/svg">
<path d="M13.8386 14.7085C13.2913 15.1071 12.6555 15.3178 12 15.3178C11.3446 15.3178 10.7088 15.1071 10.1615 14.7085L1.14648 8.1428C1.09671 8.10645 1.04787 8.06862 1 8.02934L1 18.7879C1 20.0214 1.91631 21.0003 3.02525 21.0003H20.9747C22.1038 21.0003 23 19.9993 23 18.7879V8.0293C22.952 8.06867 22.9031 8.10659 22.8532 8.14299L13.8386 14.7085Z" fill="#F5F5F5"/>
<path d="M1.86152 6.97076L10.8765 13.5365C11.2178 13.785 11.6089 13.9093 12 13.9093C12.3911 13.9093 12.7822 13.785 13.1235 13.5365L22.1385 6.97076C22.678 6.57811 23 5.92095 23 5.21168C23 3.99213 22.0918 3 20.9754 3H3.02456C1.90823 3.00005 1 3.99217 1 5.21285C0.999666 5.56078 1.07816 5.90338 1.22849 6.21011C1.37881 6.51684 1.59629 6.77816 1.86152 6.97076Z" fill="#F5F5F5"/>
</svg>
