<svg width="40" height="41" viewBox="0 0 40 41" fill="none" xmlns="http://www.w3.org/2000/svg">
<path d="M26 13.4158C26 12.7531 25.4627 12.2158 24.8 12.2158H9.2C8.53728 12.2158 8 12.7531 8 13.4158C8 14.0785 8.53728 14.6158 9.2 14.6158H24.8C25.4627 14.6158 26 14.0785 26 13.4158ZM9.2 19.4158H30.8C31.4627 19.4158 32 19.9531 32 20.6158C32 21.2785 31.4627 21.8158 30.8 21.8158H9.2C8.53728 21.8158 8 21.2785 8 20.6158C8 19.9531 8.53728 19.4158 9.2 19.4158ZM9.2 26.6158H20C20.6627 26.6158 21.2 27.1531 21.2 27.8158C21.2 28.4785 20.6627 29.0158 20 29.0158H9.2C8.53728 29.0158 8 28.4785 8 27.8158C8 27.1531 8.53728 26.6158 9.2 26.6158Z" fill="white"/>
</svg>
