<svg width="101" height="100" viewBox="0 0 101 100" fill="none" xmlns="http://www.w3.org/2000/svg">
<path d="M61.4982 28.125C61.2681 28.1245 61.0401 28.1696 60.8275 28.2575C60.6148 28.3455 60.4217 28.4746 60.2591 28.6375L38.7623 50.1344C38.4336 50.463 38.249 50.9087 38.249 51.3734C38.249 51.8382 38.4336 52.2839 38.7623 52.6125C39.0909 52.9411 39.5366 53.1257 40.0013 53.1257C40.4661 53.1257 40.9118 52.9411 41.2404 52.6125L62.7373 31.1156C62.9824 30.8707 63.1494 30.5585 63.2171 30.2186C63.2848 29.8787 63.2501 29.5263 63.1174 29.2061C62.9848 28.8859 62.7601 28.6123 62.4719 28.4199C62.1836 28.2274 61.8448 28.1248 61.4982 28.125Z" fill="#FFBB15"/>
<path d="M50.75 18.7501C45.9037 18.7401 41.129 19.9192 36.8444 22.1839C32.5598 24.4486 28.8962 27.7298 26.1747 31.7398C23.4533 35.7499 21.7572 40.3663 21.235 45.1844C20.7128 50.0025 21.3806 54.8751 23.1797 59.3751H78.3203C80.1194 54.8751 80.7872 50.0025 80.265 45.1844C79.7428 40.3663 78.0467 35.7499 75.3253 31.7398C72.6038 27.7298 68.9402 24.4486 64.6556 22.1839C60.371 19.9192 55.5963 18.7401 50.75 18.7501ZM42.9375 26.5626C43.8646 26.5626 44.7709 26.8375 45.5417 27.3525C46.3126 27.8676 46.9134 28.5997 47.2682 29.4562C47.623 30.3128 47.7158 31.2553 47.5349 32.1646C47.3541 33.0738 46.9076 33.9091 46.2521 34.5646C45.5965 35.2202 44.7613 35.6666 43.852 35.8475C42.9427 36.0284 42.0002 35.9355 41.1437 35.5807C40.2871 35.226 39.5551 34.6252 39.04 33.8543C38.5249 33.0834 38.25 32.1772 38.25 31.2501C38.25 30.0069 38.7439 28.8146 39.6229 27.9355C40.502 27.0564 41.6943 26.5626 42.9375 26.5626ZM58.5625 54.6876C57.6354 54.6876 56.7291 54.4126 55.9583 53.8976C55.1874 53.3825 54.5866 52.6504 54.2318 51.7939C53.877 50.9374 53.7842 49.9949 53.9651 49.0856C54.1459 48.1763 54.5924 47.3411 55.2479 46.6855C55.9035 46.0299 56.7387 45.5835 57.648 45.4026C58.5573 45.2218 59.4998 45.3146 60.3563 45.6694C61.2129 46.0242 61.9449 46.625 62.46 47.3958C62.9751 48.1667 63.25 49.073 63.25 50.0001C63.25 51.2433 62.7561 52.4356 61.8771 53.3146C60.998 54.1937 59.8057 54.6876 58.5625 54.6876ZM64.9469 33.3251L43.45 54.8219C42.5354 55.7365 41.295 56.2503 40.0016 56.2503C38.7081 56.2503 37.4677 55.7365 36.5531 54.8219C35.6385 53.9074 35.1247 52.6669 35.1247 51.3735C35.1247 50.0801 35.6385 48.8396 36.5531 47.9251L58.05 26.4282C58.5029 25.9753 59.0405 25.6161 59.6322 25.371C60.2238 25.1259 60.858 24.9998 61.4984 24.9998C62.1389 24.9998 62.773 25.1259 63.3647 25.371C63.9564 25.6161 64.494 25.9753 64.9469 26.4282C65.3997 26.881 65.759 27.4187 66.004 28.0103C66.2491 28.602 66.3753 29.2362 66.3753 29.8766C66.3753 30.5171 66.2491 31.1512 66.004 31.7429C65.759 32.3346 65.3997 32.8722 64.9469 33.3251Z" fill="#FFBB15"/>
<path d="M19.8438 59.3755C18.0781 54.424 17.5279 49.1208 18.2396 43.9123C18.9512 38.7039 20.9039 33.7426 23.9331 29.4463C26.9624 25.15 30.9795 21.6444 35.6464 19.2247C40.3132 16.8049 45.4931 15.5419 50.75 15.5419C56.0069 15.5419 61.1868 16.8049 65.8536 19.2247C70.5205 21.6444 74.5376 25.15 77.5669 29.4463C80.5961 33.7426 82.5488 38.7039 83.2604 43.9123C83.9721 49.1208 83.4219 54.424 81.6562 59.3755H84.9688C86.6983 53.9859 87.1303 48.264 86.2296 42.6759C85.3289 37.0877 83.1209 31.7914 79.7856 27.2182C76.4502 22.645 72.0818 18.9243 67.0362 16.3592C61.9905 13.794 56.4103 12.457 50.75 12.457C45.0897 12.457 39.5095 13.794 34.4638 16.3592C29.4182 18.9243 25.0498 22.645 21.7144 27.2182C18.3791 31.7914 16.1711 37.0877 15.2704 42.6759C14.3697 48.264 14.8017 53.9859 16.5313 59.3755H19.8438ZM28.875 67.188H32V73.438H28.875V67.188Z" fill="#FFBB15"/>
<path d="M58.5625 51.5625C59.4254 51.5625 60.125 50.8629 60.125 50C60.125 49.1371 59.4254 48.4375 58.5625 48.4375C57.6996 48.4375 57 49.1371 57 50C57 50.8629 57.6996 51.5625 58.5625 51.5625Z" fill="#FFBB15"/>
<path d="M42.9375 32.8125C43.8004 32.8125 44.5 32.1129 44.5 31.25C44.5 30.3871 43.8004 29.6875 42.9375 29.6875C42.0746 29.6875 41.375 30.3871 41.375 31.25C41.375 32.1129 42.0746 32.8125 42.9375 32.8125Z" fill="#FFBB15"/>
<path d="M86.6875 62.5H14.8125V78.125H86.6875V62.5ZM35.125 75C35.125 75.4144 34.9604 75.8118 34.6674 76.1049C34.3743 76.3979 33.9769 76.5625 33.5625 76.5625H27.3125C26.8981 76.5625 26.5007 76.3979 26.2076 76.1049C25.9146 75.8118 25.75 75.4144 25.75 75V65.625C25.75 65.2106 25.9146 64.8132 26.2076 64.5201C26.5007 64.2271 26.8981 64.0625 27.3125 64.0625H33.5625C33.9769 64.0625 34.3743 64.2271 34.6674 64.5201C34.9604 64.8132 35.125 65.2106 35.125 65.625V75ZM44.5 67.1875H39.8125V68.75H44.5V71.875H39.8125V76.5625H36.6875V65.625C36.6875 65.2106 36.8521 64.8132 37.1451 64.5201C37.4382 64.2271 37.8356 64.0625 38.25 64.0625H44.5V67.1875ZM53.875 67.1875H49.1875V68.75H53.875V71.875H49.1875V76.5625H46.0625V65.625C46.0625 65.2106 46.2271 64.8132 46.5201 64.5201C46.8132 64.2271 47.2106 64.0625 47.625 64.0625H53.875V67.1875ZM63.25 67.1875H58.5625V68.75H63.25V71.875H58.5625V73.4375H63.25V76.5625H57C56.5856 76.5625 56.1882 76.3979 55.8951 76.1049C55.6021 75.8118 55.4375 75.4144 55.4375 75V65.625C55.4375 65.2106 55.6021 64.8132 55.8951 64.5201C56.1882 64.2271 56.5856 64.0625 57 64.0625H63.25V67.1875ZM74.1875 75V76.5625H71.0625V75C71.0625 74.5856 70.8979 74.1882 70.6049 73.8951C70.3118 73.6021 69.9144 73.4375 69.5 73.4375H67.9375V76.5625H64.8125V65.625C64.8125 65.2106 64.9771 64.8132 65.2701 64.5201C65.5632 64.2271 65.9606 64.0625 66.375 64.0625H69.5C70.4046 64.0631 71.2897 64.3255 72.0485 64.8179C72.8074 65.3104 73.4075 66.0119 73.7765 66.8378C74.1455 67.6637 74.2677 68.5788 74.1282 69.4726C73.9888 70.3664 73.5937 71.2007 72.9906 71.875C73.7621 72.7329 74.1885 73.8462 74.1875 75Z" fill="#FFBB15"/>
<path d="M69.4998 67.1875H67.9373V70.3125H69.4998C69.9142 70.3125 70.3116 70.1479 70.6047 69.8549C70.8977 69.5618 71.0623 69.1644 71.0623 68.75C71.0623 68.3356 70.8977 67.9382 70.6047 67.6451C70.3116 67.3521 69.9142 67.1875 69.4998 67.1875ZM11.6873 79.6875V71.875H6.04199L8.48262 79.1937C8.58937 79.5143 8.58937 79.8607 8.48262 80.1813L6.04199 87.5H17.9373V81.25H13.2498C12.8354 81.25 12.438 81.0854 12.145 80.7924C11.8519 80.4993 11.6873 80.1019 11.6873 79.6875ZM93.017 79.1937L95.4576 71.875H89.8123V79.6875C89.8123 80.1019 89.6477 80.4993 89.3547 80.7924C89.0616 81.0854 88.6642 81.25 88.2498 81.25H83.5623V87.5H95.4576L93.017 80.1813C92.9102 79.8607 92.9102 79.5143 93.017 79.1937ZM50.7498 84.375C55.7935 84.3749 60.7804 83.31 65.3842 81.25H36.1154C40.7192 83.31 45.7061 84.3749 50.7498 84.375Z" fill="#FFBB15"/>
</svg>
