<svg width="900" height="880" viewBox="0 0 900 880" fill="none" xmlns="http://www.w3.org/2000/svg">
<path d="M892.536 878.303C892.536 878.608 692.712 878.832 446.288 878.832C199.864 878.832 0 878.608 0 878.303C0 877.998 199.783 877.774 446.288 877.774C692.793 877.774 892.536 878.018 892.536 878.303Z" fill="#263238"/>
<path d="M554.844 461.957H396.718L366.513 506.706L337.04 461.957H181.721C179.359 461.957 177.021 461.492 174.84 460.588C172.658 459.685 170.676 458.36 169.006 456.691C167.337 455.021 166.012 453.039 165.108 450.857C164.205 448.676 163.74 446.338 163.74 443.976V136.003C163.737 133.64 164.2 131.299 165.103 129.115C166.005 126.932 167.329 124.947 168.999 123.275C170.669 121.603 172.652 120.277 174.835 119.372C177.018 118.467 179.358 118.001 181.721 118.001H554.844C557.207 118.001 559.547 118.467 561.73 119.372C563.913 120.277 565.896 121.603 567.566 123.275C569.236 124.947 570.56 126.932 571.462 129.115C572.365 131.299 572.828 133.64 572.825 136.003V444.058C572.804 448.812 570.9 453.365 567.53 456.719C564.16 460.074 559.599 461.957 554.844 461.957Z" fill="#FAFAFA"/>
<path d="M554.844 461.956H555.821C556.8 461.893 557.773 461.75 558.729 461.529C561.991 460.792 564.98 459.155 567.357 456.803C569.734 454.452 571.403 451.48 572.174 448.226C572.361 447.455 572.504 446.674 572.601 445.887C572.601 445.073 572.703 444.239 572.601 443.385C572.601 441.677 572.601 439.887 572.601 438.036C572.601 430.605 572.601 422.068 572.601 412.427C572.601 373.78 572.5 318.088 572.439 249.196C572.439 214.719 572.439 176.987 572.439 136.469C572.525 132.675 571.384 128.954 569.185 125.861C566.986 122.767 563.847 120.467 560.234 119.302C557.779 118.555 555.207 118.266 552.647 118.448H454.2H311.228H182.31C181.476 118.448 180.703 118.448 179.91 118.448C179.122 118.541 178.341 118.683 177.571 118.875C174.461 119.623 171.619 121.219 169.36 123.484C167.102 125.75 165.515 128.597 164.777 131.71C164.257 134.587 164.087 137.517 164.268 140.436V270.614C164.268 315.668 164.268 359.318 164.268 401.159V439.805C164.15 442.305 164.259 444.81 164.594 447.29C165.065 449.687 166.033 451.958 167.434 453.958C168.835 455.958 170.639 457.643 172.73 458.905C174.808 460.162 177.132 460.96 179.544 461.244C181.924 461.488 184.466 461.346 186.907 461.386H230.456H337.04H337.263L337.385 461.569L366.818 506.318H366.208L396.454 461.569L396.555 461.427H396.718L513.391 461.956L396.82 462.098L397.084 461.956C387.728 475.896 377.673 490.846 366.92 506.806L366.614 507.274L366.309 506.806L336.816 462.058L337.141 462.241H230.558H186.968C184.487 462.241 182.066 462.342 179.503 462.098C175.676 461.661 172.081 460.04 169.219 457.462C166.357 454.884 164.37 451.478 163.536 447.718C163.173 445.179 163.05 442.611 163.17 440.049V401.403C163.17 359.562 163.17 315.973 163.17 270.858V136.164C163.122 131.989 164.493 127.921 167.057 124.625C169.621 121.329 173.227 119.001 177.286 118.021C178.103 117.821 178.932 117.671 179.768 117.573C180.602 117.573 181.456 117.573 182.27 117.573H552.668C555.325 117.401 557.992 117.711 560.54 118.488C563.069 119.343 565.386 120.73 567.333 122.557C569.274 124.337 570.807 126.516 571.828 128.943C572.82 131.362 573.312 133.957 573.273 136.571C573.273 177.089 573.273 214.82 573.273 249.297C573.273 318.19 573.151 373.963 573.11 412.529C573.11 422.17 573.11 430.706 573.11 438.137C573.11 439.988 573.11 441.778 573.11 443.487C573.11 444.341 573.11 445.195 573.008 446.009C572.921 446.811 572.778 447.606 572.581 448.389C571.784 451.677 570.077 454.674 567.656 457.037C565.235 459.4 562.198 461.034 558.892 461.753C557.935 461.953 556.961 462.069 555.983 462.098L554.844 461.956Z" fill="#263238"/>
<path d="M322.679 307.371C322.679 311.439 319.689 313.839 314.889 313.839H311.288V318.782H307.22V300.862H314.97C319.689 300.943 322.679 303.425 322.679 307.371ZM318.468 307.371C318.468 305.337 317.207 304.238 314.665 304.238H311.288V310.462H314.665C317.207 310.544 318.468 309.405 318.468 307.371Z" fill="#263238"/>
<path d="M337.386 311.01V318.861H333.643V317.152C333.179 317.816 332.545 318.344 331.809 318.68C331.072 319.016 330.258 319.149 329.453 319.064C326.239 319.064 324.307 317.274 324.307 314.895C324.307 312.515 326.036 310.827 330.226 310.827H333.399C333.399 309.118 332.382 308.121 330.226 308.121C328.8 308.109 327.409 308.559 326.259 309.403L324.815 306.616C326.586 305.485 328.653 304.904 330.755 304.948C334.965 304.887 337.386 306.84 337.386 311.01ZM333.317 314.508V313.105H330.571C328.7 313.105 328.11 313.796 328.11 314.712C328.11 315.627 328.965 316.379 330.368 316.379C331.008 316.441 331.651 316.291 332.198 315.953C332.745 315.615 333.167 315.108 333.399 314.508H333.317Z" fill="#263238"/>
<path d="M339.663 317.54L340.985 314.672C342.439 315.532 344.096 315.989 345.786 315.995C347.616 315.995 348.308 315.527 348.308 314.754C348.308 312.496 339.989 314.754 339.989 309.303C339.989 306.699 342.348 304.848 346.375 304.848C348.209 304.82 350.022 305.231 351.664 306.048L350.342 308.896C349.102 308.196 347.697 307.845 346.274 307.879C344.484 307.879 343.711 308.428 343.711 309.14C343.711 311.499 352.03 309.14 352.03 314.652C352.03 317.215 349.65 319.025 345.521 319.025C343.474 319.04 341.456 318.529 339.663 317.54Z" fill="#263238"/>
<path d="M353.251 317.541L354.574 314.673C356.022 315.529 357.671 315.985 359.354 315.995C361.205 315.995 361.896 315.527 361.896 314.754C361.896 312.496 353.577 314.754 353.577 309.303C353.577 306.699 355.936 304.848 359.943 304.848C361.784 304.817 363.604 305.229 365.252 306.048L363.91 308.896C362.702 308.209 361.333 307.858 359.943 307.879C358.153 307.879 357.401 308.428 357.401 309.14C357.401 311.5 365.7 309.14 365.7 314.652C365.7 317.215 363.32 319.026 359.211 319.026C357.129 319.061 355.074 318.549 353.251 317.541Z" fill="#263238"/>
<path d="M390.006 305.091L385.022 318.861H381.178L378.086 310.318L374.893 318.861H371.008L366.045 305.091H369.808L373.062 314.407L376.439 305.091H379.815L383.09 314.407L386.446 305.091H390.006Z" fill="#263238"/>
<path d="M390.474 311.984C390.376 310.471 390.735 308.963 391.505 307.656C392.275 306.349 393.419 305.304 394.79 304.656C396.162 304.007 397.696 303.786 399.194 304.021C400.693 304.255 402.086 304.934 403.194 305.971C404.301 307.007 405.072 308.352 405.406 309.831C405.74 311.311 405.621 312.856 405.065 314.268C404.51 315.679 403.543 316.891 402.29 317.746C401.038 318.601 399.557 319.06 398.04 319.063C397.071 319.13 396.097 318.997 395.181 318.671C394.265 318.345 393.426 317.835 392.717 317.17C392.007 316.506 391.441 315.703 391.055 314.811C390.669 313.919 390.471 312.957 390.474 311.984ZM401.559 311.984C401.508 311.297 401.257 310.64 400.837 310.093C400.417 309.547 399.847 309.135 399.196 308.907C398.546 308.68 397.843 308.648 397.174 308.815C396.505 308.981 395.9 309.34 395.432 309.845C394.964 310.351 394.654 310.983 394.54 311.662C394.425 312.342 394.512 313.04 394.789 313.671C395.066 314.302 395.521 314.839 396.099 315.215C396.676 315.591 397.351 315.79 398.04 315.788C398.525 315.787 399.004 315.686 399.447 315.49C399.89 315.294 400.288 315.008 400.615 314.651C400.942 314.293 401.191 313.871 401.347 313.412C401.502 312.953 401.561 312.467 401.519 311.984H401.559Z" fill="#263238"/>
<path d="M416.794 304.889V308.57H415.899C415.392 308.522 414.881 308.59 414.404 308.768C413.927 308.946 413.496 309.229 413.144 309.597C412.792 309.965 412.527 310.407 412.37 310.892C412.214 311.376 412.168 311.89 412.238 312.394V318.903H408.17V305.133H411.994V306.943C412.563 306.232 413.299 305.672 414.136 305.314C414.974 304.956 415.887 304.809 416.794 304.889Z" fill="#263238"/>
<path d="M433.067 299.884V318.861H429.263V317.275C428.73 317.879 428.067 318.355 427.324 318.665C426.58 318.975 425.775 319.112 424.971 319.065C423.083 319.065 421.272 318.315 419.937 316.98C418.602 315.645 417.852 313.834 417.852 311.946C417.852 310.058 418.602 308.247 419.937 306.912C421.272 305.577 423.083 304.826 424.971 304.826C425.729 304.796 426.485 304.93 427.187 305.218C427.889 305.505 428.52 305.941 429.039 306.494V299.823L433.067 299.884ZM429.161 312.088C429.11 311.401 428.859 310.744 428.439 310.197C428.019 309.65 427.449 309.238 426.798 309.011C426.148 308.784 425.445 308.752 424.776 308.918C424.108 309.085 423.502 309.443 423.034 309.949C422.566 310.455 422.256 311.086 422.142 311.766C422.027 312.446 422.114 313.144 422.391 313.775C422.668 314.406 423.123 314.942 423.701 315.318C424.278 315.694 424.953 315.894 425.642 315.892C426.14 315.898 426.633 315.798 427.089 315.599C427.545 315.399 427.953 315.105 428.286 314.735C428.619 314.366 428.869 313.929 429.02 313.455C429.171 312.981 429.219 312.48 429.161 311.986V312.088Z" fill="#263238"/>
<path d="M267.984 349.758H242.07C235.914 349.758 230.924 354.749 230.924 360.905V405.308C230.924 411.464 235.914 416.454 242.07 416.454H267.984C274.14 416.454 279.131 411.464 279.131 405.308V360.905C279.131 354.749 274.14 349.758 267.984 349.758Z" fill="#EBEBEB"/>
<path d="M381.748 349.758H357.136C350.98 349.758 345.989 354.749 345.989 360.905V405.308C345.989 411.464 350.98 416.454 357.136 416.454H381.748C387.904 416.454 392.894 411.464 392.894 405.308V360.905C392.894 354.749 387.904 349.758 381.748 349.758Z" fill="#EBEBEB"/>
<path d="M325.364 349.758H300.752C294.596 349.758 289.605 354.749 289.605 360.905V405.308C289.605 411.464 294.596 416.454 300.752 416.454H325.364C331.52 416.454 336.51 411.464 336.51 405.308V360.905C336.51 354.749 331.52 349.758 325.364 349.758Z" fill="#EBEBEB"/>
<path d="M439.189 349.758H413.255C407.099 349.758 402.108 354.749 402.108 360.905V405.308C402.108 411.464 407.099 416.454 413.255 416.454H439.189C445.345 416.454 450.335 411.464 450.335 405.308V360.905C450.335 354.749 445.345 349.758 439.189 349.758Z" fill="#EBEBEB"/>
<path d="M494.494 349.758H468.56C462.404 349.758 457.414 354.749 457.414 360.905V405.308C457.414 411.464 462.404 416.454 468.56 416.454H494.494C500.65 416.454 505.641 411.464 505.641 405.308V360.905C505.641 354.749 500.65 349.758 494.494 349.758Z" fill="#EBEBEB"/>
<path d="M261.17 381.345L266.316 384.132L263.997 388.017L258.811 384.925V390.661H254.376V384.884L249.169 388.017L246.891 384.132L252.058 381.345L246.891 378.498L249.169 374.613L254.376 377.745V371.968H258.811V377.745L263.997 374.613L266.316 378.498L261.17 381.345Z" fill="#FFBB15"/>
<path d="M317.431 381.042L322.598 383.828L320.279 387.713L315.072 384.662L315.173 390.398H310.719V384.622L305.512 387.754L303.254 383.869L308.4 381.082L303.254 378.235L305.512 374.35L310.719 377.482V371.706H315.173L315.072 377.482L320.279 374.35L322.598 378.235L317.431 381.042Z" fill="#FFBB15"/>
<path d="M375.076 381.042L380.242 383.829L377.923 387.714L372.614 384.663L372.716 390.399H368.262V384.622L363.054 387.755L360.837 383.829L365.984 381.042L360.837 378.195L363.095 374.31L368.302 377.442V371.666H372.757L372.655 377.442L377.862 374.31L380.181 378.195L375.076 381.042Z" fill="#FFBB15"/>
<path d="M430.727 381.042L435.873 383.828L433.555 387.713L428.347 384.662L428.449 390.398H423.995V384.622L418.787 387.754L416.509 383.869L421.676 381.082L416.509 378.235L418.787 374.35L423.995 377.482V371.706H428.449L428.347 377.482L433.555 374.35L435.873 378.235L430.727 381.042Z" fill="#FFBB15"/>
<path d="M267.496 416.881H242.559C239.474 416.875 236.518 415.648 234.337 413.467C232.157 411.286 230.929 408.33 230.924 405.246V360.985C230.929 357.901 232.157 354.945 234.337 352.764C236.518 350.583 239.474 349.356 242.559 349.351H267.496C270.582 349.351 273.541 350.576 275.723 352.758C277.905 354.94 279.131 357.9 279.131 360.985V405.246C279.125 408.33 277.898 411.286 275.717 413.467C273.536 415.648 270.58 416.875 267.496 416.881ZM242.559 350.083C239.692 350.088 236.945 351.231 234.92 353.259C232.895 355.288 231.758 358.038 231.758 360.904V405.165C231.758 408.029 232.896 410.776 234.921 412.802C236.947 414.827 239.694 415.965 242.559 415.965H267.496C270.362 415.965 273.112 414.828 275.14 412.803C277.169 410.778 278.311 408.031 278.317 405.165V360.985C278.311 358.117 277.17 355.368 275.142 353.34C273.113 351.311 270.364 350.17 267.496 350.164L242.559 350.083Z" fill="#263238"/>
<path d="M325.425 416.881H300.468C297.384 416.875 294.427 415.648 292.247 413.467C290.066 411.286 288.838 408.33 288.833 405.246V360.985C288.838 357.901 290.066 354.945 292.247 352.764C294.427 350.583 297.384 349.356 300.468 349.351H325.425C328.508 349.356 331.462 350.584 333.639 352.765C335.817 354.947 337.04 357.903 337.04 360.985V405.246C337.04 408.328 335.817 411.284 333.639 413.466C331.462 415.647 328.508 416.875 325.425 416.881ZM300.468 350.083C297.601 350.088 294.854 351.231 292.829 353.259C290.804 355.288 289.667 358.038 289.667 360.904V405.165C289.667 408.029 290.805 410.776 292.83 412.802C294.856 414.827 297.603 415.965 300.468 415.965H325.425C328.29 415.965 331.037 414.827 333.063 412.802C335.088 410.776 336.226 408.029 336.226 405.165V360.985C336.226 358.119 335.089 355.37 333.064 353.341C331.039 351.312 328.292 350.17 325.425 350.164L300.468 350.083Z" fill="#263238"/>
<path d="M381.748 416.881H356.77C353.686 416.875 350.73 415.648 348.549 413.467C346.368 411.286 345.141 408.33 345.135 405.246V360.985C345.141 357.901 346.368 354.945 348.549 352.764C350.73 350.583 353.686 349.356 356.77 349.351H381.728C384.81 349.356 387.764 350.584 389.941 352.765C392.119 354.947 393.342 357.903 393.342 360.985V405.246C393.342 408.325 392.122 411.278 389.949 413.459C387.775 415.639 384.827 416.87 381.748 416.881ZM356.77 350.083C353.904 350.088 351.156 351.231 349.131 353.259C347.106 355.288 345.969 358.038 345.969 360.904V405.165C345.969 408.029 347.107 410.776 349.133 412.802C351.158 414.827 353.905 415.965 356.77 415.965H381.728C383.146 415.965 384.55 415.686 385.861 415.143C387.171 414.6 388.362 413.805 389.365 412.802C390.368 411.799 391.163 410.608 391.706 409.298C392.249 407.987 392.528 406.583 392.528 405.165V360.985C392.528 358.119 391.391 355.37 389.366 353.341C387.341 351.312 384.594 350.17 381.728 350.164L356.77 350.083Z" fill="#263238"/>
<path d="M438.701 416.881H413.723C410.639 416.875 407.682 415.648 405.502 413.467C403.321 411.286 402.093 408.33 402.088 405.246V360.985C402.088 357.9 403.314 354.94 405.496 352.758C407.678 350.576 410.637 349.351 413.723 349.351H438.66C441.744 349.356 444.7 350.583 446.881 352.764C449.062 354.945 450.289 357.901 450.295 360.985V405.246C450.289 408.323 449.067 411.273 446.895 413.453C444.723 415.632 441.778 416.865 438.701 416.881ZM413.723 350.083C410.854 350.088 408.105 351.23 406.077 353.258C404.049 355.286 402.907 358.036 402.901 360.904V405.165C402.907 408.031 404.049 410.778 406.078 412.803C408.107 414.828 410.856 415.965 413.723 415.965H438.66C441.524 415.965 444.272 414.827 446.297 412.802C448.323 410.776 449.461 408.029 449.461 405.165V360.985C449.461 358.119 448.323 355.37 446.298 353.341C444.273 351.312 441.526 350.17 438.66 350.164L413.723 350.083Z" fill="#263238"/>
<path d="M494.006 416.881H469.069C465.985 416.875 463.029 415.648 460.848 413.467C458.667 411.286 457.439 408.33 457.434 405.246V360.985C457.434 357.9 458.66 354.94 460.842 352.758C463.024 350.576 465.983 349.351 469.069 349.351H494.006C497.09 349.356 500.046 350.583 502.227 352.764C504.408 354.945 505.635 357.901 505.641 360.985V405.246C505.635 408.33 504.408 411.286 502.227 413.467C500.046 415.648 497.09 416.875 494.006 416.881ZM469.069 350.083C466.201 350.088 463.451 351.23 461.423 353.258C459.395 355.286 458.253 358.036 458.248 360.904V405.165C458.253 408.031 459.396 410.778 461.424 412.803C463.453 414.828 466.202 415.965 469.069 415.965H494.006C496.871 415.965 499.618 414.827 501.643 412.802C503.669 410.776 504.807 408.029 504.807 405.165V360.985C504.807 358.119 503.67 355.37 501.645 353.341C499.62 351.312 496.872 350.17 494.006 350.164L469.069 350.083Z" fill="#263238"/>
<path d="M494.901 399.163C490.468 399.699 485.999 399.876 481.537 399.692C477.076 399.876 472.607 399.699 468.174 399.163C472.608 398.64 477.076 398.463 481.537 398.634C485.999 398.463 490.467 398.64 494.901 399.163Z" fill="#FFBB15"/>
<path d="M370.479 280.601C400.237 280.601 424.361 256.477 424.361 226.719C424.361 196.961 400.237 172.837 370.479 172.837C340.721 172.837 316.598 196.961 316.598 226.719C316.598 256.477 340.721 280.601 370.479 280.601Z" fill="#FFBB15"/>
<path d="M361 216.916H360.105V211.892C360.043 210.474 360.268 209.057 360.768 207.728C361.268 206.399 362.032 205.185 363.014 204.159C363.995 203.134 365.175 202.317 366.48 201.759C367.786 201.202 369.191 200.914 370.611 200.914C372.031 200.914 373.436 201.202 374.742 201.759C376.048 202.317 377.227 203.134 378.209 204.159C379.191 205.185 379.954 206.399 380.454 207.728C380.954 209.057 381.179 210.474 381.117 211.892V215.96H380.222V211.892C380.282 210.593 380.078 209.295 379.622 208.077C379.165 206.859 378.467 205.746 377.569 204.805C376.671 203.865 375.591 203.116 374.395 202.604C373.199 202.093 371.912 201.829 370.611 201.829C369.31 201.829 368.023 202.093 366.827 202.604C365.632 203.116 364.552 203.865 363.653 204.805C362.755 205.746 362.057 206.859 361.601 208.077C361.145 209.295 360.941 210.593 361 211.892V216.916Z" fill="white"/>
<path d="M383.842 252.043H357.135C356.552 252.046 355.975 251.933 355.435 251.711C354.896 251.489 354.406 251.163 353.994 250.75C353.582 250.338 353.255 249.848 353.033 249.309C352.811 248.77 352.699 248.192 352.701 247.609V220.902C352.701 219.726 353.168 218.598 354 217.767C354.832 216.935 355.959 216.468 357.135 216.468H383.842C385.017 216.473 386.141 216.942 386.972 217.772C387.802 218.603 388.271 219.728 388.277 220.902V247.609C388.277 248.785 387.809 249.913 386.978 250.744C386.146 251.576 385.018 252.043 383.842 252.043ZM357.135 217.363C356.197 217.363 355.297 217.736 354.633 218.399C353.969 219.063 353.596 219.963 353.596 220.902V247.609C353.596 248.074 353.688 248.534 353.866 248.963C354.043 249.393 354.304 249.783 354.633 250.112C354.961 250.44 355.352 250.701 355.781 250.879C356.21 251.057 356.671 251.148 357.135 251.148H383.842C384.307 251.148 384.767 251.057 385.197 250.879C385.626 250.701 386.016 250.44 386.345 250.112C386.674 249.783 386.934 249.393 387.112 248.963C387.29 248.534 387.382 248.074 387.382 247.609V220.902C387.382 219.963 387.009 219.063 386.345 218.399C385.681 217.736 384.781 217.363 383.842 217.363H357.135Z" fill="white"/>
<path d="M370.621 235.141C369.787 235.145 368.97 234.901 368.275 234.439C367.579 233.978 367.036 233.321 366.715 232.551C366.394 231.781 366.309 230.932 366.471 230.114C366.632 229.295 367.034 228.543 367.624 227.953C368.214 227.363 368.966 226.961 369.785 226.8C370.603 226.638 371.452 226.723 372.222 227.044C372.992 227.365 373.649 227.908 374.11 228.604C374.571 229.299 374.815 230.116 374.811 230.95C374.806 232.06 374.363 233.123 373.578 233.907C372.794 234.692 371.731 235.135 370.621 235.141ZM370.621 227.655C369.97 227.655 369.333 227.849 368.791 228.211C368.249 228.573 367.826 229.087 367.577 229.689C367.328 230.292 367.262 230.954 367.39 231.593C367.517 232.233 367.831 232.82 368.291 233.281C368.752 233.741 369.339 234.055 369.979 234.182C370.618 234.309 371.28 234.244 371.882 233.995C372.484 233.745 372.999 233.323 373.361 232.781C373.723 232.239 373.916 231.602 373.916 230.95C373.919 230.517 373.836 230.087 373.671 229.686C373.507 229.285 373.264 228.921 372.957 228.614C372.651 228.308 372.287 228.065 371.886 227.901C371.485 227.736 371.055 227.653 370.621 227.655Z" fill="white"/>
<path d="M370.927 234.489H370.032V242.056H370.927V234.489Z" fill="white"/>
<path d="M552.911 152.126C554.886 143.151 549.212 134.275 540.237 132.3C531.263 130.326 522.387 136 520.412 144.974C518.437 153.949 524.112 162.825 533.086 164.8C542.061 166.775 550.937 161.1 552.911 152.126Z" fill="#E0E0E0"/>
<path d="M531.31 154.469C531.241 154.468 531.173 154.453 531.111 154.425C531.048 154.397 530.991 154.357 530.944 154.306C530.896 154.26 530.857 154.205 530.83 154.144C530.804 154.083 530.79 154.017 530.79 153.95C530.79 153.883 530.804 153.817 530.83 153.756C530.857 153.695 530.896 153.64 530.944 153.594L541.725 142.814C541.77 142.765 541.825 142.726 541.887 142.7C541.948 142.673 542.014 142.66 542.081 142.66C542.147 142.66 542.213 142.673 542.274 142.7C542.336 142.726 542.391 142.765 542.436 142.814C542.486 142.861 542.525 142.918 542.552 142.981C542.578 143.044 542.592 143.112 542.592 143.18C542.592 143.248 542.578 143.316 542.552 143.379C542.525 143.442 542.486 143.499 542.436 143.546L531.656 154.306C531.566 154.403 531.442 154.462 531.31 154.469Z" fill="white"/>
<path d="M542.07 154.469C541.938 154.462 541.814 154.403 541.725 154.306L530.944 143.546C530.895 143.499 530.856 143.442 530.829 143.379C530.802 143.316 530.789 143.248 530.789 143.18C530.789 143.112 530.802 143.044 530.829 142.981C530.856 142.918 530.895 142.861 530.944 142.814C530.99 142.765 531.045 142.726 531.106 142.7C531.167 142.673 531.233 142.66 531.3 142.66C531.367 142.66 531.433 142.673 531.494 142.7C531.555 142.726 531.61 142.765 531.656 142.814L542.436 153.594C542.485 153.64 542.524 153.695 542.55 153.756C542.577 153.817 542.591 153.883 542.591 153.95C542.591 154.017 542.577 154.083 542.55 154.144C542.524 154.205 542.485 154.26 542.436 154.306C542.39 154.357 542.333 154.397 542.27 154.425C542.207 154.453 542.139 154.468 542.07 154.469Z" fill="white"/>
<path d="M736.953 513.968L688.075 506.889L590.299 521.351L562.86 531.054L567.721 591.058L661.734 608.367L725.156 589.573L749.137 554.282L736.953 513.968Z" fill="#FFBE9D"/>
<path d="M767.769 519.703L726.844 510.062C726.844 510.062 697.94 599.56 626.566 595.634C568.392 592.481 567.721 527.555 567.721 527.555L525.8 540.979C525.8 540.979 509.751 648.519 527.508 724.714C531.576 742.512 537.211 766.493 537.211 766.493L531.536 877.816L841.604 878.304L767.769 519.703Z" fill="#FFBB15"/>
<g opacity="0.3">
<path d="M646.214 856.215C661.306 855.829 675.219 857.11 690.312 856.744C708.415 856.297 726.66 855.849 744.539 858.778C757.923 860.995 770.982 865.063 784.366 867.179C802.672 870.067 822.178 869.05 838.451 860.243L835.827 845.048L774.033 830.119L646.214 856.215Z" fill="black"/>
</g>
<path d="M490.793 566.04C505.031 547.734 528.545 540.106 528.545 540.106L544.41 678.197L514.368 879.282L415.961 878.814C415.961 878.814 470.229 592.584 490.793 566.04Z" fill="#FFBB15"/>
<path d="M762.988 518.688C762.988 518.688 829.217 523.996 852.974 632.594C863.714 681.675 877.383 739.177 881.227 777.844C884.054 805.873 868.819 849.768 840.872 853.368L805.724 858.087C798.832 859.079 791.818 858.824 785.017 857.334C762.826 852.229 760.609 836.994 756.541 820.722L746.37 788.34C740.757 757.544 769.457 751.727 785.302 752.154L773.484 611.582L762.988 518.688Z" fill="#FFBB15"/>
<path d="M520.349 616.891C520.193 617.38 520.091 617.885 520.043 618.396C519.881 619.494 519.657 620.959 519.372 622.769C519.25 623.725 519.087 624.803 518.925 625.942C518.762 627.081 518.681 628.363 518.538 629.725C518.253 632.431 517.928 635.522 517.786 638.96C517.315 647 517.261 655.059 517.623 663.104C518.107 672.944 519.085 682.754 520.552 692.496C522.077 702.89 523.989 712.694 525.942 721.562C527.895 730.431 529.786 738.384 531.454 745.055C533.122 751.727 534.526 757.076 535.522 760.778C536.011 762.548 536.397 763.972 536.702 765.03C536.812 765.534 536.976 766.025 537.19 766.494C537.147 765.984 537.051 765.48 536.906 764.989C536.662 763.89 536.336 762.467 535.929 760.677C535.014 756.832 533.732 751.462 532.146 744.872C530.559 738.282 528.729 730.227 526.878 721.359C525.027 712.49 523.094 702.707 521.589 692.353C520.084 682 519.026 672.013 518.579 663.043C518.131 654.073 518.111 645.835 518.579 639.001C518.681 635.563 518.945 632.492 519.169 629.766C519.264 628.41 519.365 627.149 519.474 625.983C519.596 624.844 519.718 623.786 519.82 622.81C520.023 620.999 520.186 619.535 520.288 618.416C520.358 617.911 520.378 617.4 520.349 616.891Z" fill="#263238"/>
<path d="M837.272 790.191C837.227 789.247 837.07 788.312 836.804 787.405C836.155 784.956 835.298 782.567 834.241 780.265C830.766 772.588 825.357 765.944 818.543 760.984C811.729 756.025 803.745 752.919 795.371 751.972C792.854 751.665 790.315 751.584 787.784 751.728C786.852 751.739 785.924 751.855 785.018 752.073C788.417 752.093 791.812 752.304 795.188 752.704C803.372 753.84 811.149 756.977 817.83 761.838C824.511 766.699 829.889 773.133 833.489 780.57C834.917 783.709 836.18 786.92 837.272 790.191Z" fill="#263238"/>
<path d="M821.975 736.124C821.45 735.992 820.908 735.944 820.368 735.982C818.907 735.955 817.447 736.023 815.995 736.185C811.193 736.673 806.486 737.852 802.021 739.684C797.56 741.536 793.383 744.008 789.613 747.027C788.476 747.935 787.396 748.914 786.379 749.956C785.667 750.708 785.301 751.135 785.342 751.196C785.383 751.257 787.132 749.773 790.081 747.617C797.752 741.984 806.683 738.311 816.097 736.917C819.697 736.389 821.975 736.307 821.975 736.124Z" fill="#263238"/>
<path d="M753.408 595.634C753.557 594.672 753.611 593.698 753.571 592.726C753.571 590.854 753.693 588.17 753.917 584.854C755.103 567.514 759.853 550.604 767.87 535.183C769.396 532.234 770.718 529.874 771.674 528.287C772.21 527.479 772.666 526.621 773.037 525.725C772.388 526.448 771.809 527.231 771.308 528.064C770.25 529.61 768.826 531.908 767.24 534.837C758.796 550.209 753.994 567.314 753.205 584.834C753.083 588.17 753.083 590.936 753.205 592.746C753.173 593.713 753.241 594.681 753.408 595.634Z" fill="#263238"/>
<path d="M626.566 694.141C626.61 694.532 626.705 694.915 626.851 695.28C627.095 696.013 627.4 697.131 627.949 698.474C629.432 702.361 631.277 706.1 633.461 709.641C640.68 721.448 651.157 730.918 663.633 736.908C676.108 742.899 690.05 745.155 703.778 743.406C707.919 742.891 712.004 741.999 715.982 740.741C717.386 740.314 718.443 739.846 719.155 739.582C719.529 739.461 719.89 739.304 720.233 739.114C720.233 739.012 718.667 739.541 715.86 740.334C711.866 741.454 707.783 742.23 703.656 742.653C690.085 744.249 676.339 741.958 664.02 736.045C651.701 730.132 641.315 720.841 634.071 709.254C631.857 705.774 629.925 702.121 628.295 698.332C627.298 695.647 626.647 694.101 626.566 694.141Z" fill="#263238"/>
<path d="M766.142 846.797C766.243 846.696 767.281 848.18 769.762 850.214C773.392 852.954 777.546 854.92 781.966 855.991C788.477 857.62 795.204 858.218 801.9 857.761C809.467 857.212 817.826 856.317 826.491 855.035C834.653 853.979 842.692 852.125 850.493 849.503C853.749 848.071 856.73 846.082 859.3 843.624C861.568 841.498 863.612 839.147 865.403 836.607C868.055 832.936 870.325 829.003 872.176 824.87C872.807 823.386 873.295 822.246 873.6 821.453C873.72 821.037 873.898 820.64 874.129 820.273C874.052 820.695 873.943 821.11 873.803 821.514C873.559 822.348 873.132 823.548 872.542 825.033C870.836 829.278 868.645 833.312 866.013 837.054C864.234 839.66 862.189 842.073 859.911 844.255C857.288 846.81 854.229 848.877 850.88 850.357C843.03 853.084 834.918 854.986 826.675 856.032C817.948 857.334 809.609 858.188 801.981 858.696C795.183 859.096 788.365 858.409 781.783 856.662C777.33 855.514 773.17 853.434 769.579 850.56C768.633 849.743 767.768 848.837 766.996 847.855C766.667 847.54 766.38 847.185 766.142 846.797Z" fill="#263238"/>
<path d="M755.218 630.212C755.482 630.212 762.479 657.244 770.799 690.765C779.118 724.286 785.647 751.502 785.362 751.583C785.078 751.664 778.101 724.53 769.782 691.009C761.462 657.488 754.933 630.273 755.218 630.212Z" fill="#263238"/>
<path d="M746.777 783.336C746.56 782.609 746.444 781.857 746.431 781.098C746.228 779.071 746.18 777.031 746.289 774.996C746.522 771.892 747.551 768.9 749.279 766.311C750.257 764.771 751.396 763.339 752.676 762.039C754.093 760.685 755.671 759.51 757.375 758.541C763.399 755.38 769.921 753.275 776.657 752.317C778.68 752.026 780.717 751.849 782.759 751.788C783.508 751.677 784.269 751.677 785.017 751.788C785.017 751.951 781.824 752.073 776.759 752.988C770.173 754.122 763.805 756.277 757.883 759.375C756.251 760.303 754.735 761.423 753.368 762.711C752.133 763.95 751.029 765.313 750.072 766.779C748.388 769.191 747.339 771.99 747.021 774.915C746.841 776.944 746.78 778.981 746.838 781.017C746.908 781.79 746.887 782.568 746.777 783.336Z" fill="#263238"/>
<g opacity="0.3">
<path d="M523.399 708.075C506.496 679.456 506.13 642.274 520.876 612.475C516.154 644.224 517.174 676.564 523.887 707.953" fill="black"/>
</g>
<path d="M550.35 836.443C555.679 826.395 597.234 799.831 597.234 799.831L585.986 797.227L573.558 802.475C572.618 806.688 570.795 810.654 568.208 814.11C563.652 820.619 555.902 813.886 555.902 813.886L561.15 788.725L585.721 773.938C585.721 773.938 608.828 777.477 612.571 779.267L622.415 788.277C626.748 791.674 639.237 805.038 642.654 805.445C646.071 805.852 753.407 781.748 753.407 781.748C768.114 793.403 775.782 816.53 778.182 833.23C778.182 833.23 780.806 841.366 777.958 845.881L646.295 856.214L618.388 863.923C610.915 867.014 603.26 869.643 595.464 871.795C586.189 873.829 579.945 870.758 579.68 865.693C579.416 860.628 586.637 859.998 586.637 859.998C592.793 857.788 598.788 855.151 604.577 852.106C608.816 849.281 612.306 845.47 614.747 841L604.801 842.179C604.801 842.179 583.647 856.865 575.694 861.177C567.741 865.489 566.174 857.577 565.523 855.075C564.873 852.573 589.281 828.816 589.281 828.816C589.281 828.816 566.073 843.054 561.903 846.715C557.733 850.377 551.55 851.414 550.227 848.993C548.905 846.573 545.041 846.492 550.35 836.443Z" fill="#FFBE9D"/>
<path d="M664.784 838.761C664.903 838.227 664.944 837.679 664.906 837.133C664.93 836.494 664.889 835.853 664.784 835.221C664.703 834.375 664.546 833.538 664.317 832.72C662.994 827.969 660.701 823.543 657.584 819.722C654.544 815.888 651.138 812.359 647.414 809.186C645.953 807.79 644.351 806.549 642.634 805.484C643.987 806.971 645.427 808.377 646.946 809.694C650.488 812.99 653.779 816.546 656.791 820.332C659.839 824.055 662.158 828.32 663.625 832.903C664.683 836.442 664.581 838.781 664.784 838.761Z" fill="#EB996E"/>
<path d="M598.191 799.079C600.571 799.43 603 799.213 605.28 798.446C607.56 797.679 609.627 796.383 611.31 794.665C611.148 794.441 608.605 796.333 604.964 797.513C601.323 798.693 598.191 798.794 598.191 799.079Z" fill="#EB996E"/>
<path d="M591.275 826.62C598.436 824.374 605.391 821.516 612.063 818.077C608.431 819.037 604.891 820.316 601.486 821.901C597.955 823.182 594.539 824.761 591.275 826.62Z" fill="#EB996E"/>
<path d="M613.568 840.695C615.441 840.266 617.257 839.617 618.978 838.762C620.826 838.225 622.601 837.467 624.267 836.504C620.385 836.9 616.686 838.348 613.568 840.695Z" fill="#EB996E"/>
<path d="M594.753 828.449C596.245 829.478 597.611 830.68 598.821 832.029C599.804 833.569 600.596 835.221 601.18 836.952C601.303 836.952 601.425 836.281 601.18 835.223C600.933 833.847 600.361 832.55 599.513 831.439C598.672 830.329 597.577 829.436 596.319 828.836C595.404 828.388 594.753 828.348 594.753 828.449Z" fill="#EB996E"/>
<path d="M584.95 813.095C584.807 813.339 586.638 814.336 587.838 816.431C588.449 817.777 588.945 819.172 589.323 820.601C589.618 819.821 589.711 818.98 589.594 818.155C589.476 817.33 589.152 816.548 588.652 815.882C587.289 813.522 584.99 812.831 584.95 813.095Z" fill="#EB996E"/>
<path d="M588.244 785.634C588.366 785.634 588.732 785.227 589.037 784.312C589.352 783.112 589.352 781.851 589.037 780.651C588.746 779.445 588.143 778.336 587.288 777.437C586.617 776.766 586.068 776.522 585.986 776.623C586.838 777.958 587.521 779.392 588.02 780.895C588.309 782.457 588.385 784.051 588.244 785.634Z" fill="#EB996E"/>
<path d="M779.037 849.645C778.902 848.641 778.847 847.628 778.874 846.615C778.874 845.638 778.874 844.459 778.732 843.076C778.589 841.692 778.61 840.126 778.406 838.418C777.643 829.391 775.708 820.502 772.65 811.975C770.932 807.317 768.851 802.801 766.426 798.469C765.205 796.435 764.148 794.625 762.927 792.977C762.358 792.143 761.788 791.35 761.239 790.577C760.69 789.804 760.1 789.113 759.551 788.543C755.178 783.153 751.821 780.407 751.984 780.244C752.837 780.787 753.628 781.421 754.344 782.136C755.26 782.904 756.129 783.726 756.947 784.597C757.903 785.594 758.981 786.631 760.141 788.055C760.69 788.746 761.28 789.438 761.89 790.089C762.5 790.74 763.049 791.655 763.66 792.489C764.921 794.137 766.019 796.049 767.26 798.001C769.773 802.354 771.909 806.913 773.647 811.629C776.733 820.221 778.588 829.205 779.159 838.316C779.301 840.045 779.281 841.631 779.322 843.014C779.362 844.398 779.322 845.598 779.322 846.574C779.331 847.605 779.236 848.634 779.037 849.645Z" fill="#263238"/>
<g opacity="0.3">
<path d="M824.213 755.57C811.866 750.471 798.266 749.23 785.2 752.01C796.431 751.493 807.543 754.496 816.985 760.6C826.426 766.705 833.725 775.606 837.861 786.06C838.797 788.582 840.668 791.572 843.353 791.186C846.038 790.799 846.77 787.687 846.77 785.185C846.791 772.025 836.356 760.635 824.213 755.57Z" fill="black"/>
</g>
<path d="M519.494 607.574C518.885 607.463 518.296 607.264 517.744 606.984C516.626 606.557 515.059 605.845 513.147 604.95C508.158 602.459 503.394 599.539 498.909 596.224C494.441 592.925 490.263 589.25 486.42 585.24C484.956 583.694 483.796 582.392 483.064 581.477C482.332 580.562 481.925 580.013 481.986 579.952C482.047 579.891 483.898 581.782 486.949 584.711C490.914 588.536 495.12 592.102 499.54 595.39C503.973 598.651 508.614 601.62 513.432 604.279C517.256 606.374 519.616 607.431 519.494 607.574Z" fill="white"/>
<path d="M754.364 615.243C754.211 615.38 754.04 615.497 753.856 615.589L752.29 616.524C750.927 617.358 748.852 618.558 746.188 619.901C738.551 623.82 730.63 627.159 722.491 629.888C710.401 633.887 697.998 636.867 685.411 638.797C669.998 641.091 654.452 642.382 638.872 642.662C622.294 643.048 606.51 642.662 592.089 642.418C579.363 642.239 566.661 641.281 554.052 639.55C545.546 638.344 537.161 636.397 528.993 633.732C526.125 632.756 523.908 631.942 522.444 631.312L520.776 630.6C520.577 630.532 520.386 630.443 520.206 630.335L520.816 630.498L522.525 631.108C524.01 631.678 526.247 632.43 529.135 633.346C537.316 635.831 545.682 637.661 554.154 638.817C566.744 640.427 579.417 641.303 592.109 641.441C606.348 641.706 622.213 641.99 638.75 641.604C654.287 641.331 669.79 640.067 685.166 637.821C697.715 635.955 710.09 633.064 722.166 629.176C730.299 626.518 738.238 623.297 745.923 619.535C748.628 618.192 750.723 617.114 752.025 616.341L753.632 615.507C754.161 615.304 754.344 615.222 754.364 615.243Z" fill="white"/>
<path d="M520.267 687.735C519.409 687.656 518.562 687.478 517.745 687.206L510.971 685.355C505.276 683.748 497.425 681.45 488.76 678.866C480.095 676.283 472.284 673.863 466.629 672.073L459.958 669.917C459.131 669.679 458.327 669.366 457.558 668.981C458.416 669.06 459.262 669.237 460.08 669.51L466.853 671.361C472.548 672.968 480.4 675.266 489.065 677.849C497.73 680.433 505.541 682.833 511.195 684.623L517.867 686.799C518.698 687.025 519.502 687.339 520.267 687.735Z" fill="white"/>
<path d="M526.186 800.155C526.186 800.42 505.845 794.603 480.827 787.138C455.808 779.673 435.691 773.388 435.773 773.103C435.854 772.818 456.113 778.635 481.132 786.121C506.15 793.606 526.267 799.871 526.186 800.155Z" fill="white"/>
<path d="M820.165 556.926C819.481 557.59 818.731 558.183 817.927 558.696C816.463 559.774 814.266 561.279 811.52 563.069C797.154 572.361 781.746 579.932 765.612 585.627C762.52 586.705 759.998 587.518 758.228 588.027C757.333 588.353 756.406 588.585 755.462 588.718C756.309 588.279 757.194 587.919 758.106 587.64L765.368 584.935C771.47 582.596 779.83 579.138 788.779 574.765C797.729 570.392 805.581 565.876 811.154 562.459L817.744 558.391C818.501 557.824 819.312 557.334 820.165 556.926Z" fill="white"/>
<path d="M860.683 672.499C859.624 673.1 858.523 673.623 857.388 674.065C855.252 675.021 852.079 676.282 848.133 677.726C827.506 685.238 805.85 689.546 783.918 690.5C779.708 690.683 776.311 690.723 773.951 690.642C772.736 690.669 771.519 690.615 770.311 690.479C771.515 690.297 772.733 690.215 773.951 690.235C776.291 690.235 779.687 690.032 783.878 689.747C794.772 689.055 805.61 687.649 816.32 685.537C827.022 683.387 837.574 680.547 847.909 677.034C851.875 675.672 855.069 674.512 857.266 673.678C858.369 673.188 859.512 672.794 860.683 672.499Z" fill="white"/>
<path d="M802.225 857.352C802.21 856.97 802.244 856.587 802.327 856.213C802.449 855.379 802.632 854.322 802.836 853.02C803.039 851.718 803.344 849.928 803.548 847.935C803.751 845.941 804.097 843.704 804.178 841.182C804.178 839.941 804.341 838.619 804.422 837.256C804.504 835.893 804.422 834.449 804.422 832.984C804.422 830.035 804.3 826.882 804.137 823.567C803.603 816.387 802.508 809.259 800.863 802.25C799.136 795.258 796.872 788.41 794.089 781.767C792.706 778.757 791.465 775.848 790.021 773.265C789.33 771.963 788.699 770.682 787.987 769.482L785.953 766.105C784.712 763.909 783.37 762.037 782.292 760.39C781.214 758.742 780.258 757.318 779.342 756.2L777.43 753.576C777.185 753.286 776.98 752.964 776.82 752.62C777.102 752.867 777.361 753.139 777.593 753.433L779.627 755.955C780.735 757.256 781.774 758.614 782.739 760.024C783.878 761.671 785.262 763.502 786.543 765.678L788.577 769.055C789.289 770.234 789.94 771.536 790.611 772.838C792.076 775.421 793.377 778.33 794.679 781.361C800.539 794.688 803.983 808.952 804.849 823.485C804.971 826.821 805.154 829.994 805.032 832.964C805.032 834.449 805.032 835.893 804.91 837.276C804.788 838.659 804.707 839.961 804.605 841.222C804.463 843.765 804.056 846.002 803.792 847.996C803.527 849.989 803.222 851.698 802.917 853.06C802.612 854.423 802.388 855.4 802.205 856.254C802.252 856.618 802.258 856.986 802.225 857.352Z" fill="white"/>
<path d="M880.698 795.011C880.596 795.011 880.535 793.343 880.067 790.414C879.349 786.277 877.976 782.281 875.999 778.576C873.105 773.075 869.207 768.163 864.507 764.094C858.781 759.071 852.145 755.191 844.96 752.663C837.732 750.248 830.183 748.932 822.565 748.757C816.332 748.584 810.094 748.822 803.893 749.469C798.584 749.957 794.292 750.507 791.322 750.832L787.905 751.198C787.507 751.252 787.103 751.252 786.705 751.198C787.078 751.06 787.468 750.971 787.864 750.934L791.261 750.364C794.211 749.896 798.503 749.266 803.811 748.656C810.047 747.912 816.327 747.599 822.606 747.72C830.327 747.873 837.981 749.196 845.306 751.646C852.616 754.235 859.357 758.213 865.158 763.362C869.911 767.536 873.819 772.583 876.671 778.231C878.601 782.055 879.86 786.184 880.393 790.435C880.553 791.58 880.634 792.736 880.637 793.893C880.699 794.262 880.72 794.637 880.698 795.011Z" fill="white"/>
<path d="M661.876 736.124C661.499 736.239 661.11 736.307 660.716 736.327L657.401 736.673L645.197 737.69C634.884 738.483 620.626 739.459 604.882 740.273C589.139 741.087 574.839 741.595 564.486 741.717C559.32 741.717 555.13 741.717 552.282 741.717H548.966C548.576 741.73 548.186 741.689 547.807 741.595C548.188 741.517 548.577 741.483 548.966 741.493H552.282L564.486 741.188C574.799 740.883 589.078 740.273 604.821 739.439L645.136 737.161L657.34 736.469L660.676 736.327C661.065 736.207 661.469 736.138 661.876 736.124Z" fill="white"/>
<g opacity="0.3">
<path d="M673.694 740.356C686.508 744.119 704.204 745.035 716.754 740.356C706.991 754.249 688.135 759.273 671.761 754.757C655.387 750.242 640.315 733.868 639.054 716.924C646.987 727.603 660.879 736.553 673.694 740.356Z" fill="black"/>
</g>
<path d="M777.613 726.951C777.276 727.074 776.929 727.17 776.576 727.235L773.626 727.866C771.043 728.395 767.321 729.086 762.683 729.9C753.428 731.527 740.593 733.521 726.375 735.27C712.158 737.019 699.201 738.158 689.763 738.809C685.084 739.134 681.281 739.358 678.657 739.46L675.647 739.562C675.296 739.619 674.939 739.619 674.589 739.562C674.929 739.474 675.276 739.42 675.626 739.399L678.637 739.094L689.702 738.097C699.058 737.263 711.954 736.063 726.192 734.253C740.431 732.443 753.225 730.632 762.5 729.208L773.484 727.5L776.494 727.073C776.857 726.967 777.236 726.925 777.613 726.951Z" fill="white"/>
<g opacity="0.3">
<path d="M756.296 636.395C753.082 673.211 763.11 709.742 773.056 745.338C773.499 747.55 774.43 749.635 775.782 751.44C776.481 752.342 777.453 752.994 778.552 753.298C779.652 753.603 780.821 753.543 781.884 753.128C784.996 751.542 784.569 747.026 783.694 743.69L756.052 637.921" fill="black"/>
</g>
<path d="M241.278 673.069L283.077 878.304H645.95C647.87 878.304 649.712 877.541 651.07 876.183C652.428 874.825 653.191 872.983 653.191 871.063C653.191 869.142 652.428 867.3 651.07 865.942C649.712 864.584 647.87 863.821 645.95 863.821H572.887L534.139 672.947C533.776 671.17 532.815 669.57 531.416 668.416C530.017 667.261 528.264 666.62 526.45 666.601L249.129 663.57C247.947 663.556 246.777 663.806 245.704 664.302C244.632 664.799 243.684 665.53 242.931 666.441C242.178 667.352 241.638 668.421 241.352 669.568C241.066 670.715 241.041 671.911 241.278 673.069Z" fill="#E0E0E0"/>
<path d="M241.278 673.069C241.225 672.868 241.184 672.664 241.156 672.459C241.078 671.837 241.078 671.209 241.156 670.587C241.3 669.361 241.72 668.184 242.386 667.144C243.053 666.104 243.946 665.23 245.001 664.587C245.744 664.145 246.555 663.829 247.401 663.651C248.339 663.476 249.295 663.415 250.248 663.468H256.778L273.05 663.611L377.905 664.607L451.008 665.34L491.973 665.767L513.453 665.99L524.416 666.092C525.352 666.092 526.227 666.092 527.223 666.092C528.201 666.188 529.153 666.464 530.03 666.906C531.845 667.758 533.291 669.24 534.098 671.076C534.453 671.973 534.705 672.908 534.851 673.862L535.42 676.628C535.786 678.459 536.173 680.31 536.539 682.161C537.312 685.883 538.065 689.626 538.838 693.369L543.475 716.211C546.608 731.602 549.808 747.352 553.076 763.462C559.625 795.64 566.439 829.1 573.416 863.597L572.928 863.19H644.77C645.716 863.145 646.663 863.2 647.598 863.353C649.544 863.835 651.232 865.043 652.316 866.73C652.933 867.626 653.355 868.642 653.554 869.712C653.753 870.782 653.725 871.882 653.472 872.941C653.219 873.999 652.746 874.993 652.085 875.857C651.423 876.721 650.587 877.437 649.632 877.957C648.58 878.525 647.409 878.839 646.214 878.873H551.693H453.449H283.078H282.773V878.568C269.978 815.513 259.585 764.173 252.384 728.618C248.825 710.841 246.038 697.01 244.146 687.612C243.211 682.914 242.499 679.334 242.112 676.913C241.726 674.493 241.441 673.252 241.441 673.252C241.441 673.252 241.726 674.493 242.234 676.893L244.472 687.551C246.404 696.948 249.252 710.78 252.913 728.517L283.627 878.425L283.24 878.1H453.611H646.357C647.393 878.06 648.408 877.789 649.326 877.307C650.157 876.851 650.883 876.226 651.457 875.472C652.032 874.718 652.441 873.852 652.66 872.93C652.878 872.008 652.901 871.05 652.726 870.119C652.551 869.187 652.183 868.303 651.645 867.523C650.69 866.121 649.235 865.138 647.577 864.777C646.71 864.638 645.831 864.584 644.953 864.614H572.48V864.228C565.483 829.649 558.71 796.25 552.14 764.072C548.872 747.989 545.679 732.239 542.56 716.821L537.8 693.674C537.048 689.911 536.295 686.188 535.542 682.466C535.156 680.615 534.79 678.764 534.403 676.913L533.854 674.167C533.721 673.268 533.482 672.387 533.142 671.543C532.462 669.924 531.23 668.598 529.664 667.801C528.879 667.414 528.032 667.166 527.162 667.068C526.308 667.068 525.332 667.068 524.437 667.068L513.453 666.946L491.973 666.702L451.028 666.214L377.925 665.36L273.07 664.078L256.798 663.855L250.269 663.753C249.331 663.696 248.389 663.743 247.462 663.895C246.64 664.079 245.851 664.388 245.123 664.811C244.075 665.426 243.183 666.275 242.517 667.291C241.85 668.307 241.426 669.463 241.278 670.669C241.176 671.466 241.176 672.272 241.278 673.069Z" fill="#263238"/>
<path d="M408.476 767.064C408.476 769.433 407.773 771.749 406.457 773.72C405.141 775.69 403.27 777.225 401.08 778.132C398.891 779.039 396.482 779.276 394.158 778.814C391.834 778.352 389.7 777.21 388.024 775.535C386.349 773.859 385.208 771.725 384.745 769.401C384.283 767.077 384.52 764.668 385.427 762.479C386.334 760.29 387.869 758.419 389.84 757.102C391.81 755.786 394.126 755.083 396.496 755.083C399.673 755.083 402.72 756.345 404.967 758.592C407.214 760.839 408.476 763.886 408.476 767.064Z" fill="white"/>
<path d="M241.604 674.737C241.604 674.737 242.031 674.737 242.865 674.737H260.642L312.53 674.981L483.695 676.181L508.449 676.384H514.551C515.592 676.336 516.635 676.397 517.663 676.567C518.705 676.772 519.699 677.172 520.592 677.747C522.405 678.893 523.72 680.679 524.274 682.751C524.742 684.785 525.067 686.656 525.474 688.609C528.545 704.068 531.576 718.977 534.322 733.175C539.936 761.651 545.001 787.178 549.231 808.678L559.218 859.529C560.357 865.529 561.252 870.187 561.883 873.381C562.168 874.947 562.392 876.147 562.554 877.001C562.717 877.856 562.737 878.222 562.737 878.222C562.737 878.222 562.615 877.815 562.453 877.022C562.29 876.229 562.005 874.988 561.68 873.422C561.029 870.228 560.073 865.591 558.832 859.61C556.391 847.569 552.893 830.198 548.54 808.76L533.406 733.297C530.579 719.058 527.589 704.19 524.518 688.731C524.111 686.819 523.745 684.826 523.338 682.954C522.833 681.127 521.665 679.554 520.063 678.541C519.264 678.055 518.381 677.724 517.46 677.564C516.499 677.406 515.524 677.351 514.551 677.401H508.449L483.695 677.218L312.51 675.713L260.642 675.144L246.526 674.94H242.865L241.604 674.737Z" fill="#263238"/>
<path d="M726.213 363.042C726.631 382.019 723.027 400.869 715.636 418.352C708.246 435.836 697.238 451.556 683.335 464.479C676.921 445.97 670.528 427.46 664.154 408.95" fill="#263238"/>
<path d="M581.715 252.594C598.17 243.603 618.043 242.302 636.43 245.983C654.818 249.665 671.945 257.984 688.176 267.381C697.289 272.649 706.361 278.446 712.91 286.664C724.85 301.695 736.668 326.389 737.807 345.651C738.743 361.15 732.803 399.939 726.254 414.015C720.253 426.931 692.122 436.776 678.23 439.969L550.818 291.688C553.121 283.45 557.039 275.751 562.343 269.04C567.647 262.329 574.232 256.738 581.715 252.594Z" fill="#263238"/>
<path d="M559.748 272.568L590.258 267.117C573.559 306.883 569.023 397.804 559.483 439.868C548.215 423.596 522.077 373.762 523.481 353.971C524.884 334.179 523.562 269.212 559.748 272.568Z" fill="#263238"/>
<path d="M704.592 338.756C702.944 315.527 687.892 296.488 665.335 290.732L594.978 272.792C564.589 269.517 544.289 306.903 542.296 337.413C540.079 371.321 538.716 407.079 542.682 432.382C550.636 483.233 589.608 489.824 589.608 489.824C589.608 489.824 589.608 514.029 589.608 528.877L613.142 626.328L688.991 521.534L704.694 339.407C704.755 338.512 704.592 339.915 704.592 338.756Z" fill="#FFBE9D"/>
<path d="M557.571 375.834C557.554 377.535 558.201 379.175 559.375 380.406C560.548 381.637 562.156 382.361 563.856 382.425C564.686 382.491 565.521 382.391 566.312 382.13C567.103 381.868 567.833 381.452 568.461 380.904C569.088 380.356 569.599 379.689 569.965 378.94C570.33 378.192 570.542 377.378 570.588 376.546C570.606 374.849 569.961 373.212 568.792 371.981C567.622 370.751 566.02 370.025 564.324 369.956C563.492 369.887 562.655 369.985 561.861 370.245C561.068 370.505 560.335 370.921 559.706 371.469C559.076 372.017 558.563 372.686 558.196 373.436C557.829 374.185 557.617 375.001 557.571 375.834Z" fill="#263238"/>
<path d="M550.004 357.325C550.818 358.18 555.761 354.539 562.778 354.559C569.795 354.579 574.982 358.119 575.694 357.264C576.081 356.878 575.247 355.352 573.009 353.705C569.978 351.595 566.369 350.473 562.676 350.491C559.028 350.478 555.469 351.617 552.506 353.745C550.269 355.413 549.536 356.939 550.004 357.325Z" fill="#263238"/>
<path d="M618.755 375.836C618.738 377.536 619.385 379.177 620.559 380.407C621.733 381.638 623.34 382.362 625.04 382.426C625.872 382.495 626.71 382.396 627.503 382.135C628.297 381.874 629.029 381.455 629.658 380.905C630.286 380.354 630.797 379.683 631.16 378.931C631.524 378.179 631.732 377.361 631.773 376.527C631.79 374.83 631.145 373.193 629.976 371.962C628.806 370.732 627.204 370.006 625.508 369.937C624.674 369.868 623.836 369.967 623.041 370.228C622.247 370.489 621.513 370.907 620.883 371.457C620.253 372.007 619.74 372.678 619.374 373.43C619.009 374.183 618.798 375.001 618.755 375.836Z" fill="#263238"/>
<path d="M616.578 357.327C617.392 358.181 622.355 354.54 629.372 354.561C636.39 354.581 641.576 358.12 642.288 357.266C642.655 356.88 641.841 355.354 639.603 353.706C636.586 351.616 633.003 350.495 629.332 350.493C625.685 350.487 622.128 351.625 619.161 353.747C616.924 355.415 616.192 356.941 616.578 357.327Z" fill="#263238"/>
<path d="M594.753 412.447C594.753 412.061 590.421 411.288 583.342 410.413C581.553 410.23 579.864 409.864 579.559 408.644C579.411 406.791 579.837 404.937 580.78 403.335C582.475 399.009 584.251 394.46 586.109 389.686C593.513 370.282 598.862 354.315 598.089 354.03C597.316 353.745 590.665 369.224 583.261 388.608C581.471 393.382 579.769 397.951 578.156 402.318C577.022 404.479 576.684 406.97 577.2 409.356C577.458 409.989 577.858 410.555 578.369 411.01C578.881 411.465 579.489 411.797 580.149 411.979C581.134 412.263 582.154 412.407 583.18 412.407C590.197 412.813 594.611 412.854 594.753 412.447Z" fill="#263238"/>
<path d="M657.076 471.699C657.076 471.699 640.519 506.705 589.627 501.762V489.802C613.353 490.129 636.703 483.862 657.076 471.699Z" fill="#EB996E"/>
<path d="M618.796 331.962C619.488 333.874 626.485 332.979 634.723 333.996C642.96 335.013 649.612 337.271 650.71 335.562C651.198 334.728 650.039 332.938 647.354 331.087C643.79 328.803 639.731 327.408 635.516 327.019C631.306 326.504 627.033 326.992 623.047 328.443C620.017 329.562 618.491 331.047 618.796 331.962Z" fill="#263238"/>
<path d="M552.222 335.846C553.442 337.452 558.324 335.846 564.101 335.744C569.877 335.642 574.84 336.842 575.979 335.174C576.468 334.361 575.695 332.774 573.559 331.249C570.671 329.439 567.312 328.526 563.906 328.623C560.499 328.721 557.198 329.826 554.419 331.798C552.344 333.425 551.673 335.073 552.222 335.846Z" fill="#263238"/>
<path d="M556.106 290.935C559.218 283.287 567.619 278.731 575.857 278.284C584.095 277.836 592.129 280.989 599.329 285.118C629.616 302.631 645.197 344.919 675.118 363.042C682.481 367.497 692.061 363.408 698.326 369.307C704.591 375.206 708.639 384.644 705.181 392.515C709.468 387.192 712.969 381.28 715.575 374.962C717.853 368.514 718.138 361.049 714.72 355.13C712.137 350.634 707.561 347.217 706.32 342.193C705.201 337.759 706.95 333.142 706.767 328.585C706.249 323.955 704.654 319.511 702.109 315.608C690.373 294.882 674.243 276.128 653.476 264.452C639.917 256.624 624.482 252.637 608.828 252.919C593.085 253.272 577.988 259.254 566.276 269.781C559.584 276.026 552.547 282.474 556.106 290.935Z" fill="#263238"/>
<path d="M697.594 375.611C698.123 374.147 724.667 364.587 725.013 392.779C725.358 420.177 697.716 414.787 697.655 413.993C697.594 413.2 697.594 375.611 697.594 375.611Z" fill="#FFBE9D"/>
<path d="M706.015 403.541C706.137 403.541 706.482 403.866 707.296 404.233C708.446 404.69 709.727 404.69 710.876 404.233C713.744 403.155 716.144 398.517 716.226 393.595C716.282 391.242 715.809 388.906 714.842 386.76C714.572 385.908 714.099 385.134 713.466 384.504C712.832 383.874 712.055 383.406 711.201 383.14C710.656 382.998 710.077 383.052 709.568 383.294C709.058 383.536 708.65 383.949 708.415 384.462C708.049 385.235 708.232 385.784 708.069 385.825C707.906 385.865 707.479 385.377 707.703 384.238C707.852 383.565 708.225 382.963 708.761 382.529C709.128 382.24 709.549 382.026 709.999 381.901C710.45 381.775 710.92 381.74 711.385 381.797C712.514 382.007 713.569 382.505 714.449 383.243C715.33 383.98 716.004 384.933 716.409 386.008C717.606 388.361 718.2 390.975 718.138 393.615C718.015 399.148 715.249 404.334 711.283 405.514C710.553 405.736 709.783 405.79 709.03 405.674C708.277 405.558 707.559 405.274 706.93 404.843C706.055 404.212 705.913 403.602 706.015 403.541Z" fill="#EB996E"/>
<path d="M708.497 361.536C707.922 361.279 707.371 360.973 706.849 360.62C705.792 359.949 704.164 359.054 702.252 357.691C696.85 353.744 691.886 349.23 687.445 344.226C680.984 336.738 674.947 328.895 669.362 320.733C662.634 310.731 655.074 301.314 646.764 292.582C642.328 288.219 637.431 284.352 632.159 281.049C627.219 278.037 621.933 275.633 616.416 273.889C607.051 270.885 597.203 269.677 587.39 270.329C580.769 270.733 574.23 272.012 567.945 274.133C565.687 274.825 564.019 275.577 562.86 276.025C562.284 276.289 561.684 276.5 561.07 276.655C561.611 276.33 562.176 276.045 562.758 275.801C564.389 275.02 566.067 274.341 567.782 273.767C574.062 271.43 580.645 270.005 587.329 269.536C597.258 268.724 607.25 269.829 616.762 272.791C622.386 274.524 627.776 276.942 632.81 279.991C638.161 283.343 643.132 287.264 647.638 291.687C656.002 300.505 663.583 310.033 670.298 320.163C675.823 328.326 681.77 336.195 688.116 343.738C692.468 348.751 697.298 353.329 702.537 357.407C704.408 358.81 705.975 359.766 706.971 360.498C707.508 360.801 708.018 361.148 708.497 361.536Z" fill="#455A64"/>
<path d="M709.128 408.381C710.476 408.132 711.869 408.407 713.022 409.149C714.175 409.891 715.002 411.045 715.334 412.375C715.667 413.705 715.48 415.112 714.811 416.31C714.143 417.507 713.043 418.404 711.736 418.819C710.429 419.234 709.013 419.135 707.776 418.543C706.54 417.95 705.575 416.909 705.079 415.63C704.584 414.352 704.594 412.933 705.108 411.661C705.622 410.39 706.601 409.362 707.846 408.788" fill="white"/>
<path d="M707.846 408.786C706.67 409.734 705.811 411.019 705.384 412.468C705.19 413.215 705.184 413.998 705.369 414.748C705.554 415.497 705.922 416.189 706.442 416.76C707.053 417.481 707.864 418.005 708.773 418.267C709.681 418.529 710.647 418.517 711.548 418.233C712.45 417.948 713.247 417.403 713.841 416.667C714.434 415.931 714.797 415.036 714.883 414.095C714.966 413.335 714.862 412.567 714.578 411.858C714.294 411.148 713.84 410.52 713.256 410.027C712.094 409.096 710.674 408.542 709.188 408.44C709.188 408.44 709.595 408.156 710.469 408.135C711.71 408.145 712.912 408.567 713.887 409.335C714.648 409.9 715.251 410.651 715.636 411.518C716.021 412.384 716.175 413.335 716.083 414.278C716.006 415.458 715.575 416.587 714.846 417.518C714.117 418.449 713.124 419.139 711.998 419.497C710.871 419.855 709.662 419.865 708.529 419.525C707.397 419.186 706.393 418.513 705.649 417.594C705.032 416.877 704.611 416.014 704.426 415.088C704.241 414.162 704.298 413.203 704.591 412.305C704.914 411.119 705.632 410.079 706.625 409.356C707.337 408.806 707.825 408.725 707.846 408.786Z" fill="#263238"/>
<path d="M701.601 369.286C702.028 376.771 702.374 384.663 698.916 391.314C695.458 397.966 686.711 402.501 680.243 398.779C674.934 395.748 673.348 388.934 672.433 382.893C669.849 365.441 668.649 347.806 665.903 330.375L701.601 369.286Z" fill="#263238"/>
<path d="M562.86 277.918C562.86 278.06 565.28 277.45 569.654 277.308C575.86 277.213 582.025 278.34 587.797 280.623C591.779 282.165 595.584 284.129 599.147 286.481C603.231 289.223 607.144 292.212 610.863 295.431C619.481 302.72 627.185 311.025 633.807 320.165C637.285 325.047 640.377 330.071 643.713 334.729C646.881 339.258 650.567 343.401 654.697 347.075C661.801 353.096 669.566 358.289 677.844 362.554C684.861 366.256 690.719 368.86 694.767 370.69L699.445 372.724C699.984 372.988 700.55 373.193 701.134 373.335C700.653 372.986 700.135 372.692 699.588 372.46L695.011 370.202C690.943 368.168 685.268 365.483 678.373 361.68C670.245 357.303 662.619 352.051 655.632 346.017C651.601 342.382 648.01 338.286 644.933 333.813C641.658 329.216 638.587 324.192 635.068 319.25C628.374 310.012 620.558 301.642 611.799 294.333C608.001 291.104 604.007 288.115 599.839 285.383C596.177 283.031 592.268 281.088 588.184 279.586C582.268 277.344 575.95 276.36 569.633 276.698C567.928 276.797 566.235 277.035 564.568 277.409C563.978 277.5 563.403 277.671 562.86 277.918Z" fill="#455A64"/>
<path d="M702.354 352.364C703.094 353 703.906 353.546 704.774 353.992L711.73 358.06L714.049 359.382C714.965 359.936 715.994 360.277 717.06 360.378C717.707 360.449 718.359 360.298 718.911 359.951C719.205 359.745 719.449 359.475 719.625 359.162C719.801 358.848 719.904 358.5 719.928 358.141C719.867 356.884 719.42 355.676 718.646 354.683L710.51 341.787L709.412 342.784C714.782 346.74 721.363 348.703 728.023 348.337C728.875 348.33 729.719 348.186 730.525 347.91C730.975 347.762 731.39 347.521 731.74 347.202C732.091 346.883 732.37 346.493 732.559 346.059C732.715 345.595 732.754 345.1 732.672 344.617C732.591 344.134 732.391 343.679 732.091 343.292C731.639 342.669 731.12 342.096 730.545 341.584C726.928 338.087 723.789 334.127 721.209 329.807C718.934 325.749 716.949 321.534 715.27 317.196C715.398 318.456 715.692 319.694 716.144 320.877C717.168 324.169 718.531 327.346 720.212 330.356C722.712 334.842 725.835 338.951 729.488 342.56C730.505 343.537 731.522 344.594 731.135 345.51C730.749 346.425 729.244 346.811 727.799 346.811C724.666 346.969 721.53 346.591 718.524 345.693C715.53 344.814 712.704 343.439 710.164 341.625L706.91 339.224L709.086 342.621L717.222 355.415C717.857 356.181 718.26 357.113 718.382 358.1C718.382 358.873 717.69 359.321 716.816 359.26C715.057 358.913 713.384 358.222 711.893 357.226L704.733 353.564C703.985 353.082 703.187 352.679 702.354 352.364Z" fill="#455A64"/>
<path d="M621.338 425.346C620.827 423.261 619.6 421.423 617.871 420.151C616.143 418.88 614.022 418.256 611.88 418.389C610.315 418.581 608.823 419.159 607.537 420.072C606.252 420.985 605.214 422.203 604.517 423.617C603.835 425.039 603.445 426.584 603.372 428.16C603.299 429.736 603.543 431.31 604.09 432.79L604.252 433.441C605.713 435.015 607.624 436.1 609.725 436.548C611.825 436.996 614.013 436.784 615.989 435.943C617.923 435.013 619.496 433.469 620.464 431.553C621.431 429.637 621.738 427.455 621.338 425.346Z" fill="#EB996E"/>
<path d="M599.147 433.644C599.147 432.586 606.245 432.912 611.595 427.095C616.944 421.277 616.517 413.67 617.514 413.67C617.961 413.67 618.816 415.419 618.734 418.633C618.589 422.786 616.982 426.755 614.198 429.841C611.512 432.809 607.778 434.617 603.784 434.885C600.855 435.007 599.086 434.132 599.147 433.644Z" fill="#263238"/>
<path d="M838.268 864.697C838.113 864.718 837.956 864.718 837.8 864.697L836.377 864.84L830.946 865.287C826.227 865.674 819.392 866.121 810.931 866.63C794.028 867.626 770.657 868.664 744.825 869.091C718.992 869.518 695.56 869.274 678.637 868.826C670.175 868.623 663.321 868.379 658.602 868.175L653.15 867.891H658.602L678.657 868.236C695.58 868.481 718.972 868.603 744.804 868.236C770.636 867.87 793.987 866.894 810.89 866.08L830.925 865.084L836.377 864.84H837.78L838.268 864.697Z" fill="white"/>
</svg>
