<svg width="816" height="801" viewBox="0 0 816 801" fill="none" xmlns="http://www.w3.org/2000/svg">
<path d="M695.223 799.787C695.223 800.054 562.748 800.283 399.387 800.283C236.025 800.283 103.493 800.054 103.493 799.787C103.493 799.52 235.949 799.291 399.387 799.291C562.824 799.291 695.223 799.539 695.223 799.787Z" fill="#263238"/>
<path d="M633.602 49.1795L623.778 52.6898L619.561 39.8506C611.816 16.1753 587.129 3.60316 564.446 11.5967C541.763 19.5902 529.687 45.5548 537.432 69.2301L541.648 82.0693L531.785 85.5987C528.024 87.0574 524.97 89.9095 523.258 93.5619C521.545 97.2143 521.306 101.386 522.59 105.21L549.928 188.751C550.496 190.644 551.438 192.404 552.699 193.926C553.96 195.448 555.514 196.7 557.269 197.61C559.023 198.519 560.943 199.067 562.913 199.22C564.884 199.372 566.865 199.128 568.739 198.5L670.556 162.081C674.366 160.625 677.464 157.747 679.197 154.054C680.929 150.361 681.162 146.14 679.847 142.278L652.489 58.7374C651.907 56.8496 650.951 55.0984 649.677 53.5884C648.403 52.0783 646.838 50.8403 645.075 49.9483C643.313 49.0563 641.388 48.5285 639.417 48.3964C637.446 48.2643 635.468 48.5307 633.602 49.1795ZM555.995 62.5339C553.906 56.3779 554.281 49.6526 557.041 43.767C559.801 37.8813 564.731 33.2919 570.799 30.9604C573.795 29.9353 576.967 29.5242 580.126 29.7517C583.285 29.9792 586.365 30.8406 589.184 32.2846C592.002 33.7285 594.501 35.7254 596.531 38.1562C598.561 40.5869 600.08 43.4016 600.999 46.4324L605.196 59.2716L560.192 75.3731L555.995 62.5339ZM613.228 136.669L620.21 157.998C620.338 158.426 620.297 158.886 620.094 159.284C619.892 159.682 619.544 159.987 619.123 160.135L609.336 163.626C608.946 163.734 608.53 163.687 608.174 163.495C607.819 163.303 607.551 162.981 607.428 162.596L600.388 141.362C596.507 141.151 592.782 139.759 589.714 137.372C586.645 134.985 584.379 131.718 583.219 128.008C581.559 123.103 581.862 117.746 584.063 113.06C586.264 108.373 590.193 104.719 595.028 102.864C597.414 102.048 599.941 101.722 602.457 101.903C604.973 102.085 607.426 102.771 609.671 103.922C611.916 105.072 613.906 106.662 615.523 108.597C617.141 110.533 618.352 112.774 619.084 115.188C620.312 118.957 620.413 123.002 619.376 126.828C618.34 130.653 616.209 134.093 613.247 136.727L613.228 136.669Z" fill="#FFBB15"/>
<path d="M623.338 52.4609C623.338 52.728 605.119 59.5768 582.455 67.723C559.791 75.8691 541.305 82.4127 541.209 82.2219C541.114 82.0312 559.428 75.1251 582.112 66.9599C604.795 58.7946 623.243 52.2129 623.338 52.4609Z" fill="#263238"/>
<path d="M644.973 55.9707C645.057 56.1363 645.127 56.3086 645.182 56.4858C645.335 56.8673 645.507 57.3634 645.736 57.9738C646.232 59.3665 646.918 61.2934 647.777 63.6971L655.103 85.0259C658.155 94.0687 661.799 104.79 665.843 116.695C667.751 122.666 670.002 128.885 672.101 135.429C673.224 138.801 673.709 142.353 673.532 145.902C673.37 147.749 672.845 149.545 671.986 151.187C671.07 152.824 669.845 154.268 668.381 155.441C665.433 157.593 662.162 159.261 658.689 160.382L648.864 163.912L630.264 170.57L598.767 181.787L577.495 189.266L571.772 191.174L570.246 191.67C570.082 191.742 569.908 191.787 569.73 191.803C569.73 191.803 569.883 191.803 570.207 191.574L571.695 190.983L577.419 188.827L598.576 181.043L630.016 169.597L648.578 162.882L658.403 159.333C661.777 158.257 664.953 156.64 667.808 154.545C669.171 153.456 670.311 152.116 671.166 150.596C671.974 149.077 672.461 147.408 672.597 145.693C672.773 142.272 672.307 138.849 671.223 135.601C669.163 129.114 666.988 122.838 665.023 116.866C661.055 104.943 657.392 94.1831 654.492 85.1403C651.592 76.0976 649.151 68.829 647.472 63.7162C646.67 61.217 646.06 59.2711 645.564 57.8594L645.106 56.3332C645.049 56.2176 645.004 56.096 644.973 55.9707Z" fill="#263238"/>
<path d="M591.25 29.6633C591.25 29.6633 590.239 29.1673 588.369 28.4042C585.704 27.3802 582.886 26.8126 580.032 26.7253C575.802 26.5803 571.593 27.3752 567.708 29.0528C562.983 31.1417 558.943 34.5206 556.052 38.8014C553.141 43.0701 551.579 48.1146 551.568 53.2813C551.608 57.516 552.25 61.7235 553.476 65.7772C554.468 69.2493 555.498 72.0155 556.185 73.9424C556.59 74.9211 556.922 75.9286 557.177 76.9566C556.635 76.0416 556.182 75.077 555.823 74.0759C555.04 72.1682 553.915 69.4591 552.808 65.9679C551.45 61.8717 550.711 57.5958 550.614 53.2813C550.564 47.9194 552.162 42.6714 555.193 38.2482C558.186 33.8109 562.391 30.3276 567.307 28.2134C571.314 26.5266 575.654 25.7825 579.994 26.0385C582.909 26.1871 585.773 26.8659 588.445 28.0417C589.16 28.3713 589.848 28.7539 590.506 29.1863C590.777 29.3056 591.028 29.4665 591.25 29.6633Z" fill="#263238"/>
<path d="M592.128 104.314C592.432 104.13 592.751 103.97 593.082 103.837C594.037 103.406 595.026 103.055 596.039 102.788C597.647 102.313 599.306 102.031 600.98 101.948C603.258 101.826 605.536 102.17 607.676 102.96C612.56 104.677 617.043 109.656 619.256 116.314C620.318 119.887 620.318 123.691 619.256 127.264C618.08 131.142 615.97 134.673 613.113 137.547L613.228 137.032C615.765 143.995 618.531 151.55 621.393 159.429L621.565 159.906L621.088 160.078L616.719 161.528L607.18 164.714L606.703 164.866L606.551 164.389C603.937 156.491 601.075 149.127 598.92 141.897L599.339 142.221C595.61 141.911 592.054 140.512 589.114 138.196C586.454 136.147 584.273 133.543 582.723 130.565C581.324 127.924 580.628 124.968 580.7 121.98C580.789 118.926 581.551 115.93 582.933 113.206C584.315 110.482 586.282 108.097 588.694 106.222C589.687 105.416 590.801 104.772 591.994 104.314C590.917 104.953 589.872 105.648 588.866 106.394C586.217 108.635 584.187 111.519 582.971 114.769C581.927 117.219 581.439 119.871 581.541 122.533C581.643 125.195 582.333 127.801 583.562 130.164C585.086 133.029 587.215 135.529 589.8 137.49C592.605 139.691 595.996 141.018 599.549 141.306H599.873L599.969 141.592C602.067 148.689 604.948 156.11 607.6 164.046L606.97 163.741L616.509 160.555L620.859 159.086L620.554 159.734C617.711 151.855 614.964 144.282 612.446 137.318V137.032L612.675 136.803C615.448 134.048 617.516 130.665 618.703 126.94C619.715 123.522 619.715 119.884 618.703 116.467C616.624 110.056 612.331 105.192 607.676 103.475C605.616 102.68 603.416 102.31 601.209 102.387C599.561 102.425 597.923 102.649 596.325 103.055C593.482 103.761 592.147 104.409 592.128 104.314Z" fill="#263238"/>
<path d="M533.159 655.16L342.592 654.282C331.587 654.221 321.056 649.795 313.312 641.976C305.568 634.157 301.244 623.583 301.289 612.578L303.312 134.856C303.334 129.404 304.431 124.01 306.539 118.981C308.648 113.953 311.727 109.39 315.6 105.552C319.473 101.715 324.064 98.6781 329.111 96.616C334.159 94.5538 339.563 93.5066 345.015 93.5342L535.562 94.4118C546.567 94.4673 557.1 98.8885 564.848 106.704C572.596 114.52 576.925 125.091 576.884 136.096L574.862 613.799C574.84 619.253 573.743 624.65 571.635 629.68C569.527 634.71 566.449 639.276 562.576 643.117C558.704 646.957 554.113 649.998 549.065 652.064C544.018 654.13 538.613 655.182 533.159 655.16Z" fill="#455A64"/>
<path d="M535.276 110.838H498.342C497.137 110.86 495.948 111.12 494.843 111.601C493.738 112.083 492.739 112.778 491.903 113.646C491.067 114.514 490.41 115.539 489.97 116.661C489.529 117.783 489.314 118.981 489.337 120.186V126.882C489.36 128.086 489.145 129.283 488.704 130.404C488.264 131.525 487.607 132.548 486.77 133.414C485.934 134.281 484.935 134.974 483.83 135.454C482.725 135.934 481.537 136.191 480.333 136.211L408.334 135.887C405.898 135.822 403.588 134.793 401.91 133.026C400.232 131.259 399.325 128.898 399.386 126.462V119.766C399.448 117.333 398.543 114.976 396.869 113.209C395.196 111.443 392.89 110.412 390.458 110.342H377.466L345.13 110.189C337.438 110.143 330.042 113.147 324.561 118.543C319.079 123.938 315.959 131.286 315.884 138.977L313.976 605.272C313.958 609.087 314.692 612.869 316.136 616.401C317.58 619.933 319.706 623.146 322.391 625.856C325.077 628.566 328.27 630.721 331.789 632.198C335.307 633.674 339.082 634.443 342.898 634.46L533.063 635.338C536.881 635.356 540.665 634.621 544.199 633.176C547.734 631.731 550.949 629.604 553.661 626.917C556.373 624.229 558.529 621.034 560.007 617.513C561.484 613.993 562.253 610.215 562.271 606.397L564.179 140.103C564.224 132.39 561.205 124.975 555.786 119.487C550.366 113.999 542.989 110.888 535.276 110.838Z" fill="white"/>
<path d="M509.693 573.126L368.29 572.515C366.821 572.515 365.638 570.913 365.657 568.967L365.81 531.975C365.81 530.067 367.012 528.427 368.481 528.427L509.884 529.075C510.698 529.216 511.426 529.666 511.917 530.33C512.407 530.995 512.622 531.824 512.517 532.643L512.383 569.596C512.383 571.561 511.162 573.145 509.693 573.126Z" fill="#FFBB15"/>
<path d="M410.624 542.982C410.589 542.69 410.449 542.462 410.202 542.301C409.956 542.139 409.654 542.058 409.296 542.058C409.034 542.058 408.805 542.101 408.608 542.185C408.414 542.27 408.262 542.386 408.152 542.535C408.044 542.683 407.991 542.851 407.991 543.04C407.991 543.198 408.028 543.334 408.103 543.447C408.18 543.559 408.278 543.652 408.398 543.727C408.517 543.8 408.642 543.861 408.773 543.909C408.904 543.955 409.024 543.993 409.134 544.022L409.735 544.183C409.889 544.224 410.06 544.28 410.249 544.351C410.439 544.422 410.621 544.519 410.794 544.643C410.97 544.764 411.114 544.92 411.227 545.11C411.341 545.301 411.398 545.535 411.398 545.812C411.398 546.132 411.314 546.42 411.147 546.678C410.981 546.936 410.739 547.141 410.419 547.293C410.101 547.445 409.715 547.521 409.261 547.521C408.838 547.521 408.471 547.453 408.161 547.316C407.853 547.18 407.61 546.989 407.433 546.745C407.258 546.5 407.159 546.216 407.136 545.893H407.875C407.894 546.116 407.969 546.301 408.1 546.447C408.233 546.592 408.401 546.699 408.603 546.771C408.807 546.84 409.026 546.875 409.261 546.875C409.534 546.875 409.78 546.83 409.997 546.742C410.215 546.651 410.387 546.526 410.514 546.366C410.641 546.205 410.705 546.016 410.705 545.8C410.705 545.604 410.65 545.444 410.54 545.321C410.431 545.198 410.286 545.098 410.107 545.021C409.928 544.944 409.735 544.876 409.527 544.819L408.799 544.611C408.337 544.478 407.971 544.288 407.702 544.042C407.432 543.796 407.298 543.473 407.298 543.075C407.298 542.744 407.387 542.455 407.566 542.208C407.747 541.96 407.99 541.768 408.294 541.631C408.6 541.492 408.942 541.423 409.319 541.423C409.7 541.423 410.039 541.491 410.335 541.628C410.632 541.763 410.867 541.948 411.04 542.182C411.215 542.417 411.307 542.684 411.317 542.982H410.624ZM413.291 541.504V547.417H412.575V541.504H413.291ZM419.417 541.504V547.417H418.723L415.501 542.774H415.443V547.417H414.727V541.504H415.42L418.654 546.159H418.712V541.504H419.417ZM424.892 543.352C424.828 543.157 424.745 542.983 424.641 542.829C424.539 542.673 424.417 542.54 424.274 542.431C424.134 542.321 423.974 542.237 423.795 542.179C423.616 542.122 423.419 542.093 423.206 542.093C422.855 542.093 422.537 542.183 422.25 542.364C421.963 542.545 421.735 542.812 421.566 543.164C421.396 543.516 421.311 543.949 421.311 544.461C421.311 544.973 421.397 545.405 421.568 545.757C421.74 546.109 421.972 546.376 422.264 546.557C422.557 546.738 422.886 546.828 423.252 546.828C423.591 546.828 423.889 546.756 424.147 546.612C424.407 546.466 424.609 546.26 424.753 545.994C424.9 545.726 424.973 545.412 424.973 545.05L425.192 545.096H423.414V544.461H425.666V545.096C425.666 545.583 425.562 546.006 425.354 546.366C425.148 546.726 424.863 547.006 424.499 547.204C424.137 547.4 423.722 547.498 423.252 547.498C422.728 547.498 422.268 547.375 421.872 547.129C421.477 546.882 421.169 546.532 420.948 546.078C420.728 545.623 420.618 545.084 420.618 544.461C420.618 543.993 420.681 543.572 420.806 543.199C420.933 542.823 421.112 542.504 421.343 542.24C421.574 541.976 421.848 541.774 422.163 541.634C422.479 541.493 422.826 541.423 423.206 541.423C423.518 541.423 423.808 541.47 424.078 541.564C424.349 541.657 424.591 541.789 424.802 541.96C425.016 542.129 425.194 542.333 425.337 542.569C425.479 542.804 425.577 543.065 425.631 543.352H424.892ZM433.06 541.504H433.776V545.419C433.776 545.824 433.681 546.185 433.49 546.502C433.302 546.818 433.035 547.067 432.69 547.25C432.346 547.431 431.942 547.521 431.478 547.521C431.014 547.521 430.61 547.431 430.265 547.25C429.92 547.067 429.653 546.818 429.462 546.502C429.274 546.185 429.179 545.824 429.179 545.419V541.504H429.895V545.362C429.895 545.65 429.959 545.907 430.086 546.133C430.213 546.356 430.394 546.532 430.629 546.661C430.866 546.788 431.149 546.852 431.478 546.852C431.807 546.852 432.09 546.788 432.327 546.661C432.563 546.532 432.744 546.356 432.87 546.133C432.997 545.907 433.06 545.65 433.06 545.362V541.504ZM435.206 547.417V541.504H437.204C437.668 541.504 438.048 541.588 438.342 541.755C438.639 541.921 438.858 542.145 439 542.428C439.143 542.711 439.214 543.027 439.214 543.375C439.214 543.723 439.143 544.04 439 544.325C438.86 544.61 438.642 544.837 438.348 545.006C438.053 545.174 437.676 545.258 437.216 545.258H435.784V544.622H437.193C437.51 544.622 437.766 544.567 437.958 544.458C438.151 544.348 438.29 544.2 438.377 544.013C438.465 543.824 438.51 543.612 438.51 543.375C438.51 543.138 438.465 542.926 438.377 542.74C438.29 542.553 438.15 542.407 437.955 542.301C437.761 542.193 437.503 542.139 437.181 542.139H435.922V547.417H435.206Z" fill="#E8E8E3"/>
<path d="M396.495 247.911L347.428 247.688L347.387 256.693L396.454 256.915L396.495 247.911Z" fill="#FFBB15"/>
<path opacity="0.1" d="M396.495 247.911L347.428 247.688L347.387 256.693L396.454 256.915L396.495 247.911Z" fill="black"/>
<path d="M540.332 303.198C540.718 303.159 541.096 303.069 541.458 302.93C541.986 302.724 542.445 302.373 542.782 301.917C543.12 301.462 543.322 300.92 543.366 300.355C543.366 297.322 543.366 292.896 543.366 287.21C543.366 284.368 543.366 281.182 543.366 277.672C543.366 276.813 543.366 275.917 543.366 275.02C543.49 274.15 543.301 273.264 542.831 272.521C542.569 272.164 542.227 271.874 541.833 271.672C541.439 271.47 541.004 271.362 540.561 271.357H537.585H510.018L350.453 270.766C350.044 270.759 349.64 270.85 349.275 271.033C348.91 271.216 348.594 271.484 348.354 271.815C347.894 272.561 347.718 273.448 347.858 274.314C347.858 276.222 347.858 278.13 347.858 280.037C347.858 283.853 347.858 287.668 347.858 291.484C347.858 293.392 347.858 295.299 347.858 297.207C347.779 298.096 347.779 298.989 347.858 299.878C347.959 300.259 348.145 300.612 348.403 300.909C348.661 301.207 348.984 301.442 349.346 301.595C349.722 301.745 350.125 301.816 350.529 301.805H360.24L402.611 302.034L474.343 302.473L522.705 302.854L535.849 303.007H539.264C540.046 303.007 540.428 303.007 540.428 303.007H539.264H535.849H522.705H474.343L402.611 302.778L360.24 302.606H350.529C349.995 302.628 349.462 302.537 348.965 302.339C348.462 302.125 348.016 301.798 347.659 301.385C347.302 300.972 347.044 300.482 346.904 299.954C346.794 299.454 346.755 298.94 346.79 298.428V297.016C346.79 295.109 346.79 293.201 346.79 291.293C346.79 287.478 346.79 283.662 346.79 279.847C346.79 277.939 346.79 276.031 346.79 274.123C346.754 273.615 346.754 273.105 346.79 272.597C346.861 272.036 347.079 271.503 347.42 271.052C347.749 270.591 348.184 270.217 348.689 269.961C349.194 269.706 349.753 269.576 350.319 269.583L509.884 270.46L537.452 270.651H540.428C540.952 270.652 541.468 270.778 541.933 271.021C542.398 271.263 542.798 271.614 543.098 272.044C543.636 272.873 543.853 273.87 543.709 274.848C543.709 275.745 543.709 276.641 543.709 277.5C543.709 280.972 543.709 284.158 543.709 287.039C543.709 292.762 543.575 297.15 543.537 300.202C543.491 300.789 543.277 301.351 542.922 301.82C542.568 302.29 542.086 302.649 541.534 302.854C541.173 303.078 540.757 303.197 540.332 303.198Z" fill="#E0E0E0"/>
<path d="M451.907 280.342H362.166V288.755H451.907V280.342Z" fill="#FFBB15"/>
<path opacity="0.2" d="M451.907 280.342H362.166V288.755H451.907V280.342Z" fill="white"/>
<path d="M396.16 330.057L347.093 329.834L347.052 338.839L396.119 339.061L396.16 330.057Z" fill="#FFBB15"/>
<path opacity="0.1" d="M396.16 330.057L347.093 329.834L347.052 338.839L396.119 339.061L396.16 330.057Z" fill="black"/>
<path d="M539.091 385.345C539.477 385.297 539.859 385.227 540.236 385.135C540.769 384.965 541.259 384.683 541.674 384.308C542.089 383.933 542.418 383.473 542.64 382.96C542.94 382.19 543.058 381.361 542.983 380.537C542.983 379.622 542.983 378.629 542.983 377.523C542.983 375.31 542.983 372.792 542.983 369.892V357.778C543.074 356.901 542.88 356.018 542.43 355.259C541.959 354.482 541.219 353.905 540.35 353.638C539.4 353.468 538.433 353.417 537.47 353.485H510.017L351.005 352.894C350.15 352.896 349.325 353.208 348.682 353.773C348.04 354.338 347.625 355.117 347.514 355.965C347.514 357.778 347.514 359.781 347.514 361.689C347.514 365.504 347.514 369.32 347.514 373.135C347.514 375.043 347.514 376.951 347.514 378.858C347.443 379.75 347.482 380.647 347.629 381.529C347.867 382.303 348.357 382.974 349.021 383.437C349.726 383.884 350.554 384.098 351.387 384.048H354.039H359.552L401.771 384.257L473.255 384.696L521.445 385.078L534.551 385.23H521.445H473.255L401.733 385.154L359.514 385.001H351.215C350.183 385.063 349.159 384.788 348.296 384.219C347.428 383.618 346.795 382.735 346.503 381.72C346.332 380.751 346.281 379.764 346.35 378.782C346.35 376.874 346.35 374.967 346.35 373.059C346.35 369.243 346.35 365.428 346.35 361.612C346.35 359.705 346.35 357.797 346.35 355.889C346.49 354.798 347.022 353.795 347.847 353.068C348.672 352.342 349.734 351.94 350.834 351.94L509.845 352.817L537.298 353.027C538.32 352.965 539.346 353.035 540.35 353.237C541.342 353.561 542.178 354.241 542.697 355.145C543.191 355.985 543.404 356.961 543.307 357.93C543.307 358.827 543.307 359.705 543.307 360.582C543.307 364.035 543.307 367.202 543.307 370.121C543.307 373.04 543.307 375.501 543.307 377.752C543.307 378.839 543.307 379.85 543.307 380.785C543.377 381.638 543.239 382.496 542.907 383.284C542.659 383.811 542.301 384.278 541.857 384.653C541.412 385.028 540.892 385.303 540.331 385.459C539.915 385.494 539.495 385.455 539.091 385.345Z" fill="#E0E0E0"/>
<path d="M395.79 415.769L346.723 415.546L346.682 424.551L395.749 424.774L395.79 415.769Z" fill="#FFBB15"/>
<path opacity="0.1" d="M395.79 415.769L346.723 415.546L346.682 424.551L395.749 424.774L395.79 415.769Z" fill="black"/>
<path d="M538.71 471.023C539.095 470.977 539.478 470.907 539.854 470.813C540.385 470.645 540.873 470.365 541.288 469.994C541.702 469.622 542.033 469.166 542.258 468.657C542.557 467.887 542.675 467.058 542.602 466.235C542.602 465.3 542.602 464.327 542.602 463.201C542.602 461.007 542.602 458.47 542.602 455.57V443.456C542.693 442.579 542.499 441.696 542.048 440.938C541.566 440.174 540.83 439.606 539.969 439.335C539.019 439.159 538.052 439.101 537.088 439.163H509.635L350.624 438.572C349.768 438.574 348.943 438.887 348.301 439.452C347.659 440.017 347.243 440.795 347.132 441.643C347.132 443.551 347.132 445.459 347.132 447.367C347.132 451.182 347.132 454.998 347.132 458.813C347.132 460.721 347.132 462.629 347.132 464.537C347.061 465.422 347.1 466.313 347.247 467.188C347.475 467.967 347.968 468.641 348.64 469.096C349.34 469.553 350.171 469.768 351.005 469.707H359.304L401.523 469.936L473.006 470.374L521.196 470.756L534.303 470.909H521.196H473.006L401.523 470.699L359.304 470.527H351.005C349.973 470.597 348.946 470.322 348.086 469.745C347.218 469.143 346.585 468.261 346.293 467.246C346.122 466.276 346.071 465.29 346.14 464.308C346.14 462.4 346.14 460.492 346.14 458.584C346.14 454.769 346.14 450.953 346.14 447.138C346.14 445.23 346.14 443.322 346.14 441.319C346.275 440.23 346.803 439.227 347.626 438.5C348.448 437.773 349.507 437.371 350.605 437.37L509.616 438.248L537.069 438.458C538.091 438.395 539.117 438.465 540.121 438.667C541.113 438.991 541.949 439.671 542.468 440.575C542.962 441.415 543.175 442.391 543.078 443.36C543.078 444.257 543.078 445.154 543.078 446.012C543.078 449.465 543.078 452.632 543.078 455.551C543.078 458.47 543.078 460.931 543.078 463.182C543.078 464.27 543.078 465.281 543.078 466.215C543.152 467.069 543.014 467.927 542.678 468.715C542.43 469.241 542.072 469.708 541.628 470.083C541.183 470.458 540.663 470.734 540.102 470.889C539.655 471.043 539.178 471.088 538.71 471.023Z" fill="#E0E0E0"/>
<path d="M449.991 364.869L360.251 364.462L360.213 372.875L449.953 373.282L449.991 364.869Z" fill="#FFBB15"/>
<path opacity="0.2" d="M449.991 364.869L360.251 364.462L360.213 372.875L449.953 373.282L449.991 364.869Z" fill="white"/>
<path d="M368.366 455.455C368.31 456.222 368.029 456.956 367.56 457.566C367.09 458.175 366.452 458.634 365.724 458.884C364.997 459.134 364.212 459.165 363.467 458.973C362.721 458.781 362.049 458.375 361.533 457.804C361.016 457.234 360.679 456.524 360.562 455.764C360.445 455.003 360.554 454.225 360.876 453.526C361.197 452.827 361.717 452.237 362.37 451.831C363.023 451.424 363.781 451.218 364.551 451.239C365.613 451.298 366.61 451.774 367.324 452.563C368.039 453.352 368.413 454.391 368.366 455.455Z" fill="#FFBB15"/>
<path d="M380.518 455.513C380.556 456.051 380.482 456.59 380.302 457.099C380.122 457.607 379.84 458.073 379.472 458.467C379.104 458.861 378.659 459.175 378.165 459.39C377.67 459.605 377.137 459.716 376.598 459.716C376.059 459.716 375.525 459.605 375.031 459.39C374.537 459.175 374.092 458.861 373.724 458.467C373.356 458.073 373.074 457.607 372.894 457.099C372.713 456.59 372.64 456.051 372.678 455.513C372.64 454.975 372.713 454.435 372.894 453.927C373.074 453.419 373.356 452.953 373.724 452.559C374.092 452.164 374.537 451.85 375.031 451.635C375.525 451.42 376.059 451.309 376.598 451.309C377.137 451.309 377.67 451.42 378.165 451.635C378.659 451.85 379.104 452.164 379.472 452.559C379.84 452.953 380.122 453.419 380.302 453.927C380.482 454.435 380.556 454.975 380.518 455.513Z" fill="#FFBB15"/>
<path d="M392.69 455.57C392.634 456.337 392.354 457.071 391.884 457.681C391.414 458.291 390.776 458.749 390.049 458.999C389.321 459.249 388.536 459.28 387.791 459.088C387.046 458.896 386.373 458.49 385.857 457.92C385.341 457.349 385.003 456.64 384.886 455.879C384.77 455.118 384.879 454.34 385.2 453.641C385.521 452.942 386.041 452.353 386.694 451.946C387.347 451.539 388.106 451.334 388.875 451.354C389.936 451.418 390.93 451.895 391.643 452.683C392.356 453.472 392.732 454.508 392.69 455.57Z" fill="#FFBB15"/>
<path d="M404.843 455.627C404.786 456.394 404.506 457.128 404.036 457.738C403.567 458.347 402.929 458.805 402.201 459.056C401.473 459.306 400.688 459.337 399.943 459.145C399.198 458.953 398.526 458.547 398.009 457.976C397.493 457.406 397.155 456.696 397.039 455.936C396.922 455.175 397.031 454.397 397.352 453.698C397.674 452.999 398.193 452.409 398.846 452.003C399.5 451.596 400.258 451.39 401.027 451.411C402.088 451.475 403.082 451.952 403.795 452.74C404.508 453.528 404.884 454.565 404.843 455.627Z" fill="#FFBB15"/>
<path d="M416.995 455.665C416.943 456.434 416.665 457.17 416.198 457.782C415.73 458.394 415.093 458.856 414.366 459.109C413.638 459.362 412.852 459.395 412.106 459.205C411.359 459.016 410.685 458.61 410.167 458.04C409.648 457.47 409.309 456.761 409.191 455.999C409.073 455.238 409.181 454.459 409.502 453.759C409.823 453.059 410.343 452.468 410.997 452.061C411.651 451.654 412.41 451.448 413.18 451.468C414.237 451.532 415.228 452.007 415.941 452.791C416.654 453.575 417.032 454.606 416.995 455.665Z" fill="#FFBB15"/>
<path d="M429.166 455.722C429.114 456.487 428.84 457.22 428.377 457.83C427.914 458.441 427.282 458.903 426.56 459.159C425.838 459.415 425.056 459.455 424.312 459.273C423.568 459.091 422.893 458.695 422.37 458.135C421.848 457.574 421.501 456.873 421.372 456.117C421.242 455.362 421.337 454.585 421.644 453.883C421.95 453.181 422.456 452.583 423.097 452.164C423.739 451.746 424.489 451.523 425.255 451.525C426.33 451.565 427.345 452.029 428.078 452.816C428.811 453.603 429.202 454.648 429.166 455.722Z" fill="#FFBB15"/>
<path d="M441.319 455.78C441.357 456.318 441.283 456.857 441.103 457.366C440.923 457.874 440.64 458.34 440.273 458.734C439.905 459.128 439.46 459.443 438.966 459.658C438.471 459.873 437.938 459.983 437.399 459.983C436.86 459.983 436.326 459.873 435.832 459.658C435.337 459.443 434.892 459.128 434.525 458.734C434.157 458.34 433.874 457.874 433.694 457.366C433.514 456.857 433.441 456.318 433.478 455.78C433.441 455.242 433.514 454.702 433.694 454.194C433.874 453.686 434.157 453.22 434.525 452.826C434.892 452.431 435.337 452.117 435.832 451.902C436.326 451.687 436.86 451.576 437.399 451.576C437.938 451.576 438.471 451.687 438.966 451.902C439.46 452.117 439.905 452.431 440.273 452.826C440.64 453.22 440.923 453.686 441.103 454.194C441.283 454.702 441.357 455.242 441.319 455.78Z" fill="#FFBB15"/>
<path d="M453.472 455.837C453.42 456.602 453.145 457.334 452.682 457.945C452.219 458.556 451.588 459.017 450.866 459.274C450.143 459.53 449.362 459.57 448.618 459.388C447.873 459.206 447.198 458.81 446.676 458.249C446.153 457.689 445.806 456.987 445.677 456.232C445.548 455.477 445.643 454.7 445.949 453.998C446.256 453.295 446.761 452.698 447.403 452.279C448.045 451.86 448.795 451.638 449.561 451.64C450.636 451.68 451.651 452.144 452.384 452.931C453.117 453.717 453.508 454.763 453.472 455.837Z" fill="#FFBB15"/>
<path d="M465.624 455.894C465.572 456.662 465.294 457.398 464.827 458.011C464.359 458.623 463.722 459.084 462.994 459.337C462.267 459.59 461.481 459.624 460.734 459.434C459.988 459.244 459.314 458.839 458.795 458.269C458.277 457.699 457.938 456.989 457.82 456.228C457.702 455.467 457.81 454.688 458.131 453.987C458.452 453.287 458.972 452.697 459.626 452.289C460.28 451.882 461.039 451.676 461.809 451.697C462.866 451.761 463.857 452.235 464.57 453.019C465.283 453.803 465.661 454.835 465.624 455.894Z" fill="#FFBB15"/>
<g opacity="0.2">
<path d="M368.366 455.455C368.31 456.222 368.029 456.956 367.56 457.566C367.09 458.175 366.452 458.634 365.724 458.884C364.997 459.134 364.212 459.165 363.467 458.973C362.721 458.781 362.049 458.375 361.533 457.804C361.016 457.234 360.679 456.524 360.562 455.764C360.445 455.003 360.554 454.225 360.876 453.526C361.197 452.827 361.717 452.237 362.37 451.831C363.023 451.424 363.781 451.218 364.551 451.239C365.613 451.298 366.61 451.774 367.324 452.563C368.039 453.352 368.413 454.391 368.366 455.455Z" fill="white"/>
<path d="M380.518 455.512C380.556 456.05 380.482 456.589 380.302 457.098C380.122 457.606 379.84 458.072 379.472 458.466C379.104 458.86 378.659 459.175 378.165 459.389C377.67 459.604 377.137 459.715 376.598 459.715C376.059 459.715 375.525 459.604 375.031 459.389C374.537 459.175 374.092 458.86 373.724 458.466C373.356 458.072 373.074 457.606 372.894 457.098C372.713 456.589 372.64 456.05 372.678 455.512C372.64 454.974 372.713 454.434 372.894 453.926C373.074 453.418 373.356 452.952 373.724 452.558C374.092 452.163 374.537 451.849 375.031 451.634C375.525 451.419 376.059 451.308 376.598 451.308C377.137 451.308 377.67 451.419 378.165 451.634C378.659 451.849 379.104 452.163 379.472 452.558C379.84 452.952 380.122 453.418 380.302 453.926C380.482 454.434 380.556 454.974 380.518 455.512Z" fill="white"/>
<path d="M392.69 455.569C392.634 456.337 392.354 457.07 391.884 457.68C391.414 458.29 390.776 458.748 390.049 458.998C389.321 459.248 388.536 459.279 387.791 459.087C387.046 458.895 386.373 458.489 385.857 457.919C385.341 457.348 385.003 456.639 384.886 455.878C384.77 455.117 384.879 454.339 385.2 453.64C385.521 452.941 386.041 452.352 386.694 451.945C387.347 451.538 388.106 451.333 388.875 451.353C389.936 451.417 390.93 451.894 391.643 452.682C392.356 453.471 392.732 454.507 392.69 455.569Z" fill="white"/>
<path d="M404.843 455.627C404.786 456.394 404.506 457.128 404.036 457.738C403.567 458.347 402.929 458.805 402.201 459.056C401.473 459.306 400.688 459.337 399.943 459.145C399.198 458.953 398.526 458.547 398.009 457.976C397.493 457.406 397.155 456.696 397.039 455.936C396.922 455.175 397.031 454.397 397.352 453.698C397.674 452.999 398.193 452.409 398.846 452.003C399.5 451.596 400.258 451.39 401.027 451.411C402.088 451.475 403.082 451.952 403.795 452.74C404.508 453.528 404.884 454.565 404.843 455.627Z" fill="white"/>
<path d="M416.994 455.664C416.942 456.433 416.664 457.169 416.197 457.781C415.729 458.393 415.092 458.855 414.365 459.108C413.637 459.361 412.851 459.394 412.105 459.204C411.358 459.015 410.684 458.609 410.166 458.039C409.647 457.469 409.308 456.76 409.19 455.999C409.072 455.237 409.18 454.458 409.501 453.758C409.822 453.058 410.342 452.467 410.996 452.06C411.65 451.653 412.409 451.447 413.179 451.467C414.236 451.531 415.227 452.006 415.94 452.79C416.653 453.574 417.031 454.605 416.994 455.664Z" fill="white"/>
<path d="M429.166 455.722C429.114 456.486 428.84 457.219 428.377 457.829C427.914 458.44 427.282 458.902 426.56 459.158C425.838 459.414 425.056 459.454 424.312 459.272C423.568 459.09 422.893 458.694 422.37 458.134C421.848 457.573 421.501 456.872 421.372 456.116C421.242 455.361 421.337 454.584 421.644 453.882C421.95 453.18 422.456 452.582 423.097 452.164C423.739 451.745 424.489 451.522 425.255 451.524C426.33 451.564 427.345 452.028 428.078 452.815C428.811 453.602 429.202 454.647 429.166 455.722Z" fill="white"/>
<path d="M441.319 455.779C441.357 456.317 441.283 456.856 441.103 457.365C440.923 457.873 440.64 458.339 440.273 458.733C439.905 459.127 439.46 459.442 438.966 459.657C438.471 459.872 437.938 459.982 437.399 459.982C436.86 459.982 436.326 459.872 435.832 459.657C435.337 459.442 434.892 459.127 434.525 458.733C434.157 458.339 433.874 457.873 433.694 457.365C433.514 456.856 433.441 456.317 433.478 455.779C433.441 455.241 433.514 454.701 433.694 454.193C433.874 453.685 434.157 453.219 434.525 452.825C434.892 452.43 435.337 452.116 435.832 451.901C436.326 451.686 436.86 451.575 437.399 451.575C437.938 451.575 438.471 451.686 438.966 451.901C439.46 452.116 439.905 452.43 440.273 452.825C440.64 453.219 440.923 453.685 441.103 454.193C441.283 454.701 441.357 455.241 441.319 455.779Z" fill="white"/>
<path d="M453.471 455.837C453.419 456.601 453.144 457.334 452.681 457.945C452.218 458.555 451.587 459.017 450.865 459.273C450.142 459.53 449.361 459.569 448.617 459.387C447.872 459.205 447.197 458.809 446.675 458.249C446.152 457.688 445.805 456.987 445.676 456.232C445.547 455.476 445.642 454.7 445.948 453.997C446.255 453.295 446.76 452.698 447.402 452.279C448.044 451.86 448.794 451.638 449.56 451.64C450.635 451.679 451.65 452.143 452.383 452.93C453.116 453.717 453.507 454.762 453.471 455.837Z" fill="white"/>
<path d="M465.623 455.894C465.571 456.662 465.293 457.398 464.826 458.011C464.358 458.623 463.721 459.084 462.993 459.337C462.266 459.59 461.48 459.624 460.734 459.434C459.987 459.244 459.313 458.839 458.794 458.269C458.276 457.699 457.937 456.989 457.819 456.228C457.701 455.467 457.809 454.688 458.13 453.987C458.451 453.287 458.971 452.697 459.625 452.289C460.279 451.882 461.038 451.676 461.808 451.697C462.865 451.761 463.856 452.235 464.569 453.019C465.282 453.803 465.66 454.835 465.623 455.894Z" fill="white"/>
</g>
<path d="M448.358 180.489C449.684 179.906 450.808 178.945 451.592 177.728C452.375 176.51 452.783 175.089 452.765 173.641C452.815 172.699 452.672 171.758 452.346 170.874C452.02 169.989 451.517 169.181 450.868 168.497C450.219 167.813 449.438 167.269 448.572 166.896C447.706 166.524 446.773 166.333 445.831 166.333C444.888 166.333 443.955 166.524 443.089 166.896C442.223 167.269 441.442 167.813 440.793 168.497C440.145 169.181 439.642 169.989 439.316 170.874C438.989 171.758 438.847 172.699 438.896 173.641C438.867 175.103 439.272 176.541 440.06 177.774C440.847 179.006 441.983 179.978 443.322 180.566C432.639 182.168 433.116 193.767 433.116 193.767L458.374 193.882C458.374 193.882 458.966 182.073 448.358 180.489Z" fill="#FFBB15"/>
<path opacity="0.1" d="M448.358 180.489C449.684 179.906 450.808 178.945 451.592 177.728C452.375 176.51 452.783 175.089 452.765 173.641C452.815 172.699 452.672 171.758 452.346 170.874C452.02 169.989 451.517 169.181 450.868 168.497C450.219 167.813 449.438 167.269 448.572 166.896C447.706 166.524 446.773 166.333 445.831 166.333C444.888 166.333 443.955 166.524 443.089 166.896C442.223 167.269 441.442 167.813 440.793 168.497C440.145 169.181 439.642 169.989 439.316 170.874C438.989 171.758 438.847 172.699 438.896 173.641C438.867 175.103 439.272 176.541 440.06 177.774C440.847 179.006 441.983 179.978 443.322 180.566C432.639 182.168 433.116 193.767 433.116 193.767L458.374 193.882C458.374 193.882 458.966 182.073 448.358 180.489Z" fill="black"/>
<path d="M489.403 201.363L399.377 200.955L399.328 211.714L489.354 212.123L489.403 201.363Z" fill="#FFBB15"/>
<path opacity="0.2" d="M489.403 201.363L399.377 200.955L399.328 211.714L489.354 212.123L489.403 201.363Z" fill="white"/>
<path d="M158.437 257.125H157.54L154.946 257.316C153.541 257.4 152.145 257.585 150.768 257.869C149.875 257.994 148.99 258.166 148.116 258.384L145.159 259.205C140.126 260.749 135.377 263.1 131.099 266.168C125.446 270.271 120.725 275.524 117.248 281.583C115.204 285.075 113.578 288.795 112.402 292.667C111.167 296.875 110.456 301.219 110.285 305.601C110.171 307.903 110.209 310.21 110.399 312.507C110.399 313.671 110.724 314.835 110.876 316.018C111.005 317.21 111.228 318.39 111.544 319.547C113.259 327.202 116.74 334.351 121.709 340.422C126.677 346.494 132.996 351.32 140.16 354.516C145.346 356.754 150.904 358.003 156.548 358.198C162.378 358.519 168.213 357.682 173.718 355.737L175.397 355.108H175.626L175.816 355.222L199.873 367.432L199.167 368.042C196.592 360.068 194.112 352.341 191.708 344.92V344.634L191.918 344.424C197.754 338.546 202.086 331.348 204.547 323.439C206.777 316.208 207.427 308.584 206.455 301.08C205.59 294.411 203.446 287.972 200.14 282.117C197.291 277.087 193.615 272.572 189.266 268.762C185.678 265.747 181.708 263.22 177.457 261.246C174.241 259.859 170.891 258.804 167.46 258.098L163.645 257.469L160.879 257.259L159.2 257.144H158.627C158.818 257.123 159.01 257.123 159.2 257.144H160.898L163.664 257.259L167.479 257.812C170.953 258.466 174.348 259.483 177.61 260.845C181.933 262.796 185.976 265.317 189.629 268.343C194.057 272.136 197.811 276.651 200.732 281.697C204.131 287.616 206.341 294.142 207.237 300.908C208.29 308.528 207.685 316.285 205.463 323.649C202.986 331.722 198.586 339.074 192.643 345.073L192.757 344.577C195.161 351.998 197.66 359.724 200.255 367.68L200.617 368.844L199.53 368.29L175.473 356.1H175.893L174.176 356.729C168.565 358.704 162.621 359.559 156.682 359.248C150.916 359.028 145.241 357.734 139.951 355.432C129.858 351.11 121.461 343.597 116.046 334.046C113.555 329.635 111.735 324.877 110.647 319.929C110.349 318.742 110.126 317.538 109.98 316.323C109.827 315.121 109.579 313.938 109.522 312.755C109.005 305.967 109.723 299.142 111.639 292.609C112.844 288.684 114.516 284.918 116.619 281.392C120.179 275.279 124.997 269.992 130.755 265.882C135.104 262.806 139.933 260.473 145.044 258.976L148.039 258.213C148.921 258.008 149.812 257.849 150.71 257.736C152.102 257.478 153.512 257.325 154.926 257.278L157.54 257.182C157.837 257.142 158.137 257.123 158.437 257.125Z" fill="#FFBB15"/>
<path d="M169.311 301.614H165.781L158.15 290.892V283.853C158.15 283.853 152.694 283.509 153.343 292.724C153.992 301.938 153.343 299.592 153.343 299.592C153.343 299.592 141.763 299.592 140.809 300.641C139.855 301.69 139.798 312.87 139.664 319.108C139.591 320.612 140.023 322.097 140.89 323.328C141.758 324.558 143.012 325.463 144.453 325.9C144.857 326.012 145.274 326.069 145.693 326.071C148.593 326.071 163.34 323.725 163.34 323.725H169.425L169.311 301.614Z" fill="#FFBB15"/>
<path d="M179.403 299.726L177.228 323.84H171.199V300.222L179.403 299.726Z" fill="#FFBB15"/>
<path d="M251.306 790.65V774.338L222.061 774.128L221.812 798.796L223.625 798.929C231.695 799.444 264.68 800.208 270.098 798.529C276.126 796.659 251.306 790.65 251.306 790.65Z" fill="#FFBB15"/>
<path d="M270.785 797.002C270.785 797.269 259.834 797.498 246.347 797.498C232.859 797.498 221.908 797.269 221.908 797.002C221.908 796.735 232.859 796.506 246.347 796.506C259.834 796.506 270.785 796.735 270.785 797.002Z" fill="#263238"/>
<path d="M251.822 793.988C251.574 793.854 251.822 792.996 252.414 792.08C253.005 791.164 253.806 790.783 253.997 790.974C254.188 791.164 253.787 791.889 253.215 792.672C252.642 793.454 252.07 794.121 251.822 793.988Z" fill="#263238"/>
<path d="M253.692 795.057C253.425 795.057 253.558 793.988 254.131 792.977C254.703 791.966 255.466 791.356 255.676 791.508C255.886 791.661 255.542 792.519 255.008 793.416C254.474 794.313 253.94 795.152 253.692 795.057Z" fill="#263238"/>
<path d="M230.722 796.926C230.608 796.926 230.169 796.583 229.54 795.858C228.771 794.926 227.915 794.07 226.983 793.302C226.067 792.569 224.975 792.089 223.816 791.909C222.92 791.794 222.347 791.909 222.29 791.794C222.233 791.68 222.786 791.279 223.835 791.203C225.22 791.174 226.571 791.633 227.651 792.5C228.663 793.325 229.516 794.327 230.169 795.457C230.608 796.297 230.837 796.85 230.722 796.926Z" fill="#263238"/>
<path d="M251.917 790.916C252.051 791.145 251.555 791.717 250.715 792.023C249.876 792.328 249.132 792.213 249.094 792.023C249.055 791.832 249.647 791.431 250.372 791.164C251.097 790.897 251.764 790.687 251.917 790.916Z" fill="#263238"/>
<path d="M251.46 789.334C251.46 789.62 250.697 789.849 249.705 789.868C248.713 789.887 247.93 789.658 247.95 789.391C247.969 789.124 248.751 788.876 249.705 788.857C250.659 788.838 251.422 789.066 251.46 789.334Z" fill="#263238"/>
<path d="M323.325 790.65V774.338L294.079 774.128L293.831 798.548L295.643 798.681C303.713 799.196 336.717 800.208 342.116 798.529C348.145 796.659 323.325 790.65 323.325 790.65Z" fill="#FFBB15"/>
<path d="M342.803 797.04C342.803 797.307 331.872 797.536 318.365 797.536C304.858 797.536 293.945 797.307 293.945 797.04C293.945 796.773 304.877 796.544 318.365 796.544C331.853 796.544 342.803 796.773 342.803 797.04Z" fill="#263238"/>
<path d="M323.839 793.988C323.61 793.854 323.839 792.996 324.431 792.08C325.022 791.164 325.823 790.783 326.014 790.974C326.205 791.164 325.804 791.889 325.232 792.672C324.66 793.454 324.087 794.121 323.839 793.988Z" fill="#263238"/>
<path d="M325.71 795.057C325.462 795.057 325.576 793.988 326.168 792.977C326.759 791.966 327.503 791.356 327.713 791.508C327.923 791.661 327.56 792.519 327.026 793.416C326.492 794.313 325.977 795.152 325.71 795.057Z" fill="#263238"/>
<path d="M302.74 796.926C302.626 796.926 302.206 796.583 301.557 795.858C300.789 794.926 299.933 794.07 299.001 793.302C298.084 792.569 296.993 792.089 295.834 791.909C294.956 791.794 294.365 791.909 294.308 791.794C294.251 791.68 294.804 791.279 295.853 791.203C297.238 791.174 298.589 791.633 299.669 792.5C300.686 793.32 301.54 794.323 302.187 795.457C302.626 796.297 302.855 796.85 302.74 796.926Z" fill="#263238"/>
<path d="M323.936 790.916C324.069 791.145 323.573 791.717 322.734 792.023C321.894 792.328 321.15 792.213 321.112 792.023C321.074 791.832 321.665 791.431 322.39 791.164C323.115 790.897 323.783 790.687 323.936 790.916Z" fill="#263238"/>
<path d="M323.515 789.334C323.515 789.62 322.752 789.849 321.76 789.868C320.768 789.887 320.005 789.658 320.024 789.391C320.043 789.124 320.806 788.876 321.76 788.857C322.714 788.838 323.515 789.066 323.515 789.334Z" fill="#263238"/>
<path d="M431.075 306.269C430.312 305.487 428.423 305.868 428.423 305.868C428.613 304.77 428.613 303.647 428.423 302.549C428.08 301.48 425.676 301.69 425.676 301.69C425.565 300.791 425.565 299.881 425.676 298.981C425.695 298.782 425.652 298.581 425.553 298.407C425.454 298.233 425.304 298.094 425.123 298.008C423.985 297.544 422.764 297.324 421.536 297.36C420.067 296.31 426.019 287.973 428.232 285.303C430.445 282.632 430.045 280.552 428.08 280.552C426.725 280.552 419.781 288.565 417.644 291.255C415.508 293.945 409.842 301.423 409.651 295.452C409.46 289.481 407.056 284.978 405.549 284.215C404.042 283.452 402.439 285.245 403.26 286.905C403.981 288.791 404.43 290.769 404.595 292.781C404.802 294.384 404.731 296.01 404.385 297.589C403.753 300.526 402.892 303.409 401.81 306.212H401.657C401.657 306.212 360.03 346.141 357.016 348.984C354.326 351.54 300.222 345.95 289.367 344.806C285.678 344.266 281.953 344.011 278.225 344.042C273.513 344.252 272.674 344.92 267.981 344.977C256.129 345.109 244.304 346.148 232.611 348.087C227.316 348.987 222.37 351.324 218.313 354.843C214.256 358.362 211.243 362.928 209.603 368.042C198.672 402.191 173.909 483.023 169.54 528.428C166.239 534.414 163.259 540.572 160.612 546.876C157.54 555.232 158.284 555.518 159.315 555.708C162.1 556.224 165.267 541.229 166.45 544.853C167.632 548.478 160.44 562.729 163.359 563.149C167.175 563.683 170.208 547.887 170.57 546.628C170.933 545.368 172.822 545.769 172.478 546.952C171.925 548.631 166.564 566.43 170.303 567.002C172.364 567.308 172.593 563.549 172.593 563.549C172.593 563.549 176.408 546.513 178.144 546.856C179.88 547.2 178.03 557.254 177.152 560.611C176.275 563.969 177.496 565.667 179.289 564.847C180.51 564.274 183.429 554.068 184.23 550.748C185.031 547.429 187.034 538.233 189.724 543.556C192.414 548.879 196.497 551.969 198.176 552.046C198.554 552.002 198.911 551.846 199.2 551.598C199.489 551.35 199.697 551.021 199.797 550.654C199.898 550.287 199.886 549.898 199.764 549.537C199.641 549.177 199.414 548.861 199.11 548.631C197.666 547.221 196.427 545.615 195.428 543.861C194.539 542.495 193.893 540.985 193.521 539.397C192.752 536.232 192.305 532.998 192.185 529.744L191.88 527.836C196.153 506.679 208.458 444.581 226.22 404.919L233.507 419.914L236.674 431.017L217.253 478.959L300.088 477.872L287.726 430.292L302.74 380.691C318.975 381.053 360.66 381.664 367.604 378.516C376.341 374.7 421.536 317.62 421.536 317.62C424.482 315.331 427.303 312.885 429.988 310.294C429.988 310.294 432.735 307.986 431.075 306.269Z" fill="#FFBE9D"/>
<path d="M213.609 443.533C216.013 435.33 228.356 394.771 228.356 394.771C228.356 394.771 234.423 427.832 232.82 431.819C231.346 435.233 229.605 438.524 227.612 441.663C213.609 462.973 215.441 473.637 215.441 473.637L300.05 471.062C300.241 459.234 293.239 431.724 291.789 427.336C290.339 422.948 295.166 408.583 295.166 408.583C295.166 408.583 304.705 398.872 304.361 393.874C304.18 389.384 303.625 384.917 302.702 380.52L354.211 382.427L352.59 347.515L278.607 340.113C276.031 347.382 252.737 343.814 252.737 343.814C227.593 344.654 226.029 349.271 215.574 357.398C205.12 365.525 187.816 435.272 187.816 435.272L213.609 443.533Z" fill="#FFBB15"/>
<path d="M263.631 435.272C262.165 435.534 260.672 435.611 259.186 435.501C256.42 435.501 252.624 435.31 248.446 434.891C244.268 434.471 240.49 433.879 237.8 433.345C236.317 433.154 234.863 432.783 233.47 432.239C234.961 432.239 236.45 432.38 237.915 432.658C240.624 433.002 244.382 433.479 248.541 433.899C252.7 434.318 256.477 434.604 259.205 434.795C260.692 434.814 262.174 434.974 263.631 435.272Z" fill="#263238"/>
<path d="M269.43 428.08C267.963 428.799 266.412 429.331 264.813 429.663C257.202 431.664 249.349 432.595 241.481 432.43C239.853 432.483 238.225 432.329 236.636 431.972C238.243 431.769 239.862 431.686 241.481 431.724C244.477 431.629 248.597 431.419 253.138 430.884C257.678 430.35 261.723 429.587 264.584 428.977C266.174 428.552 267.794 428.252 269.43 428.08Z" fill="#263238"/>
<path d="M297.895 395.991C297.856 397.445 297.658 398.891 297.303 400.302C296.807 402.954 296.044 406.579 295.071 410.547C294.098 414.515 293.163 418.178 292.324 420.658C291.986 422.078 291.487 423.454 290.836 424.76C290.942 423.31 291.211 421.876 291.637 420.486C292.362 417.51 293.182 414.076 294.098 410.318C295.014 406.56 295.891 403.126 296.616 400.15C296.875 398.717 297.304 397.321 297.895 395.991Z" fill="#263238"/>
<path d="M214.506 438.668C210.093 437.986 205.737 436.972 201.476 435.634C197.123 434.616 192.85 433.277 188.694 431.628C193.106 432.321 197.461 433.334 201.724 434.661C206.079 435.676 210.352 437.015 214.506 438.668Z" fill="#263238"/>
<path d="M303.617 380.1C302.898 380.224 302.162 380.224 301.442 380.1C299.45 379.895 297.493 379.427 295.624 378.707C292.503 377.534 289.662 375.722 287.283 373.386C284.904 371.05 283.041 368.242 281.812 365.143C280.453 361.734 279.873 358.064 280.114 354.402C280.199 351.382 281.102 348.441 282.727 345.894C283.87 344.177 285.578 342.915 287.554 342.326C288.082 342.18 288.628 342.11 289.175 342.116C289.557 342.116 289.748 342.116 289.748 342.116C289.748 342.116 288.947 342.116 287.668 342.631C285.856 343.301 284.318 344.556 283.3 346.199C280.705 350.281 279.98 357.741 282.746 364.704C284.034 367.987 286.049 370.936 288.641 373.327C290.765 375.284 293.211 376.859 295.872 377.982C298.368 378.969 300.966 379.679 303.617 380.1Z" fill="#263238"/>
<path d="M348.088 381.74C347.611 375.89 347.458 370.018 347.63 364.151C347.481 358.288 347.659 352.422 348.164 346.58C348.642 352.424 348.795 358.29 348.622 364.151C348.782 370.019 348.604 375.892 348.088 381.74Z" fill="#263238"/>
<path d="M278.111 342.249C278.321 337.995 278.759 333.187 278.759 333.187C278.759 333.187 289.29 332.024 289.92 321.149C290.549 310.275 289.92 285.188 289.92 285.188L270.842 275.42L249.666 292.075L252.928 346.446L272.349 347.686C273.834 347.727 275.274 347.178 276.354 346.159C277.434 345.14 278.066 343.734 278.111 342.249Z" fill="#FFBE9D"/>
<path d="M280 312.545C280 312.545 280 312.755 279.828 313.003C279.686 313.183 279.503 313.326 279.293 313.419C279.084 313.512 278.855 313.552 278.626 313.537C277.405 313.537 276.223 312.125 275.803 310.485C275.603 309.69 275.603 308.857 275.803 308.062C275.842 307.715 275.967 307.383 276.167 307.096C276.367 306.81 276.635 306.578 276.948 306.421C277.204 306.315 277.492 306.315 277.749 306.421C277.939 306.516 278.093 306.67 278.188 306.86C278.321 307.184 278.188 307.394 278.188 307.375C278.188 307.356 278.188 307.184 277.997 306.994C277.897 306.857 277.75 306.762 277.585 306.727C277.42 306.692 277.247 306.719 277.1 306.803C276.866 306.944 276.672 307.143 276.535 307.38C276.398 307.616 276.324 307.884 276.318 308.157C276.157 308.867 276.157 309.603 276.318 310.313C276.7 311.801 277.73 313.003 278.645 313.118C278.825 313.142 279.007 313.129 279.181 313.08C279.355 313.03 279.517 312.946 279.657 312.831C279.886 312.679 279.962 312.526 280 312.545Z" fill="#EB996E"/>
<path d="M296.463 279.312C294.994 274.314 289.671 271.834 284.826 270.46C277.443 268.362 269.468 267.446 262.257 270.098C255.045 272.75 246.384 277.405 246.384 285.36C242.13 285.017 239.688 288.737 238.009 293.354C236.936 296.166 236.293 299.125 236.101 302.129C235.567 312.546 232.648 326.93 225.895 334.561C222.079 338.816 216.795 341.753 214.62 347.057C212.712 351.655 213.704 357.111 211.93 361.766C210.347 365.868 206.855 368.786 204.299 372.354C201.695 376.401 200.162 381.044 199.845 385.846C199.528 390.648 200.437 395.452 202.487 399.807C204.551 404.049 207.458 407.827 211.03 410.91C214.601 413.993 218.763 416.317 223.262 417.74C232.173 420.451 241.676 420.543 250.639 418.007C257.365 416.398 263.639 413.287 268.991 408.907C274.467 404.435 278.228 398.207 279.637 391.279C280.991 383.495 278.816 375.578 277.195 367.833C272.12 343.356 273.57 342.078 279.98 319.356C280.133 318.956 280.209 318.536 280.323 318.135C280.438 317.735 280.495 317.544 280.571 317.239C280.753 316.341 280.849 315.427 280.857 314.511C279.921 314.859 278.905 314.932 277.928 314.723C276.952 314.513 276.055 314.029 275.344 313.328C274.631 312.58 274.134 311.653 273.906 310.645C273.678 309.637 273.726 308.587 274.047 307.605C274.497 306.53 275.168 305.563 276.015 304.764C276.863 303.965 277.87 303.354 278.969 302.969C281.086 302.091 283.357 301.633 285.436 300.66C289.843 298.562 292.895 294.212 294.975 289.653C296.685 286.492 297.212 282.826 296.463 279.312Z" fill="#263238"/>
<path d="M280.762 313.061C281.165 313.656 281.498 314.296 281.754 314.968C282.327 316.17 283.09 317.868 283.929 319.833L284.082 320.196H283.681L281.773 320.367C280.457 320.367 279.351 320.615 278.053 320.596C277.94 320.571 277.836 320.517 277.749 320.441C277.662 320.364 277.596 320.266 277.557 320.157C277.5 319.984 277.5 319.797 277.557 319.623C277.601 319.366 277.659 319.111 277.729 318.86L278.072 317.506C278.245 316.602 278.514 315.719 278.874 314.873C278.838 315.794 278.704 316.709 278.473 317.601L278.206 318.956C278.11 319.413 277.939 320.119 278.206 320.062C279.16 320.062 280.514 319.852 281.773 319.776L283.681 319.604L283.433 320.024C282.613 318.116 281.926 316.323 281.525 315.083C281.174 314.449 280.917 313.768 280.762 313.061Z" fill="#FFBB15"/>
<path d="M215.441 473.637L300.05 471.061L336.87 614.792L330.097 779.66H285.36L290.836 618.302L258.118 518.24L263.154 786.051L217.94 786.719L213.19 534.99C212.98 527.989 210.691 512.211 211.549 505.267L215.441 473.637Z" fill="#263238"/>
<path d="M269.373 520.281C267.988 520.369 266.598 520.285 265.233 520.033C262.677 519.728 259.186 519.194 255.351 518.431C251.517 517.668 248.083 516.79 245.603 516.084C244.277 515.793 242.994 515.331 241.787 514.711C241.787 514.425 248.006 515.913 255.637 517.458C263.268 519.003 269.411 519.995 269.373 520.281Z" fill="#455A64"/>
<path d="M329.639 770.617C329.639 770.884 319.509 771.113 307.013 771.113C294.517 771.113 284.368 770.884 284.368 770.617C284.368 770.35 294.498 770.121 307.013 770.121C319.528 770.121 329.639 770.331 329.639 770.617Z" fill="#455A64"/>
<path d="M262.753 779.088C262.753 779.374 252.909 779.584 240.776 779.584C228.642 779.584 218.817 779.374 218.817 779.088C218.817 778.802 228.661 778.592 240.776 778.592C252.89 778.592 262.753 778.821 262.753 779.088Z" fill="#455A64"/>
<path d="M256.916 778.402C256.649 778.402 255.466 719.891 254.264 647.72C253.062 575.55 252.356 517 252.604 517C252.852 517 254.073 575.492 255.256 647.701C256.439 719.91 257.202 778.402 256.916 778.402Z" fill="#455A64"/>
<path d="M323.63 770.618C323.609 770.358 323.609 770.096 323.63 769.836V767.547C323.63 765.486 323.783 762.529 323.897 758.771C324.164 751.14 324.546 740.056 325.023 726.473C326.053 699.153 327.503 661.494 329.086 619.924C329.086 619.524 329.086 619.142 329.086 618.799V618.932C319.071 578.869 310.009 542.507 303.427 516.199L295.796 485.084C294.918 481.44 294.251 478.597 293.774 476.613C293.545 475.679 293.392 474.954 293.259 474.4C293.184 474.152 293.139 473.896 293.125 473.637C293.224 473.878 293.301 474.127 293.354 474.381C293.507 474.915 293.697 475.64 293.964 476.556C294.479 478.464 295.224 481.364 296.177 484.988C298.085 492.352 300.775 502.959 304.133 516.028C310.772 542.317 319.929 578.583 330.078 618.703V618.837C330.078 619.18 330.078 619.581 330.078 619.962C328.38 661.532 326.835 699.173 325.71 726.492C325.118 740.094 324.622 751.102 324.279 758.771C324.088 762.586 323.935 765.486 323.84 767.547C323.84 768.52 323.725 769.283 323.706 769.836C323.709 770.099 323.684 770.361 323.63 770.618Z" fill="#455A64"/>
<path d="M309.035 615.44C305.822 616.496 302.512 617.231 299.153 617.634C295.032 618.34 291.522 618.836 289.939 618.912V618.531C290.454 618.683 290.721 618.779 290.721 618.855C290.721 618.931 290.397 618.855 289.862 618.855H288.718L289.862 618.511C291.35 618.073 294.861 617.348 298.982 616.604C302.286 615.887 305.654 615.497 309.035 615.44Z" fill="#455A64"/>
<path d="M308.253 620.916C305.277 621.052 302.295 620.918 299.344 620.516C296.364 620.455 293.395 620.129 290.473 619.543C296.435 619.056 302.436 619.52 308.253 620.916Z" fill="#455A64"/>
<path opacity="0.2" d="M215.078 476.67C216.08 477.957 217.342 479.017 218.782 479.783C220.222 480.549 221.807 481.003 223.434 481.115C226.842 481.519 230.289 481.454 233.679 480.924C255.523 478.501 278.664 476.269 300.05 471.061C272.368 472.606 243.122 472.091 215.441 473.637L215.154 476.002" fill="black"/>
<g opacity="0.2">
<path d="M243.6 515.683L259.205 576.235L258.118 518.239L243.6 515.683Z" fill="black"/>
</g>
</svg>
