<svg width="40" height="40" viewBox="0 0 40 40" fill="none" xmlns="http://www.w3.org/2000/svg">
<g clip-path="url(#clip0_140_2007)">
<path d="M20.0155 20.8084C23.5347 20.8084 26.4197 17.9552 26.4197 14.4042C26.4197 10.8534 23.5665 8 20.0155 8C16.4647 8 13.6113 10.8532 13.6113 14.4042C13.6113 17.9552 16.4964 20.8084 20.0155 20.8084Z" fill="white"/>
<path d="M24.7393 21.1255H24.6126H24.5491H24.4541H24.3906C24.359 21.1255 24.3271 21.1571 24.2955 21.1571H24.2639C24.2004 21.1887 24.1688 21.2206 24.1053 21.2522C22.9005 22.1083 21.5055 22.5521 20.0156 22.5521C18.5255 22.5521 17.1305 22.1083 15.9259 21.2522C15.8943 21.2206 15.8308 21.1887 15.7673 21.1571H15.7357C15.7041 21.1571 15.6722 21.1255 15.609 21.1255H15.5455H15.4504H15.3869H15.2918H15.2602C10.9801 22.1083 8 25.8494 8 30.2562V31.2074C8 31.6513 8.34876 32 8.7926 32H31.2073C31.6512 32 31.9999 31.6513 31.9999 31.2074V30.2562C31.9993 25.881 29.0191 22.1083 24.7392 21.1255H24.7393Z" fill="white"/>
</g>
<defs>
<clipPath id="clip0_140_2007">
<rect width="24" height="24" fill="white" transform="translate(8 8)"/>
</clipPath>
</defs>
</svg>
