<svg width="24" height="24" viewBox="0 0 24 24" fill="none" xmlns="http://www.w3.org/2000/svg">
<path d="M21.4755 17.1458L18.6786 14.0756C17.6797 12.9791 15.9816 13.4178 15.582 14.8431C15.2823 15.83 14.2834 16.3783 13.3844 16.1589C11.3866 15.6107 8.68957 12.7598 8.19012 10.4572C7.89045 9.47031 8.48979 8.37383 9.3888 8.04493C10.6874 7.60633 11.0869 5.7423 10.088 4.64582L7.2911 1.57566C6.49198 0.808115 5.29329 0.808115 4.59406 1.57566L2.69614 3.65898C0.798225 5.85195 2.89592 11.6633 7.59077 16.8168C12.2856 21.9703 17.5798 24.3826 19.5776 22.1896L21.4755 20.1063C22.1748 19.2291 22.1748 17.9133 21.4755 17.1458Z" fill="#F5F5F5"/>
</svg>
