<svg width="40" height="40" viewBox="0 0 40 40" fill="none" xmlns="http://www.w3.org/2000/svg">
<circle cx="20" cy="20" r="20" fill="#FFBB15"/>
<path d="M29.8102 28.9119L24.6466 23.8308C25.9988 22.3616 26.8296 20.4187 26.8296 18.2807C26.829 13.7071 23.0618 10 18.4145 10C13.7671 10 10 13.7071 10 18.2807C10 22.8543 13.7671 26.5614 18.4145 26.5614C20.4225 26.5614 22.2641 25.8668 23.7107 24.7122L28.8944 29.8134C29.147 30.0622 29.5571 30.0622 29.8097 29.8134C29.8697 29.7547 29.9175 29.6846 29.9501 29.6073C29.9827 29.5299 29.9996 29.4468 29.9996 29.3628C29.9997 29.2788 29.9829 29.1957 29.9504 29.1182C29.9179 29.0408 29.8702 28.9707 29.8102 28.9119ZM18.4145 25.2873C14.4823 25.2873 11.2947 22.1504 11.2947 18.2807C11.2947 14.411 14.4823 11.274 18.4145 11.274C22.3467 11.274 25.5343 14.411 25.5343 18.2807C25.5343 22.1504 22.3467 25.2873 18.4145 25.2873Z" fill="#F5F5F5"/>
</svg>
