<svg width="36" height="36" viewBox="0 0 36 36" fill="none" xmlns="http://www.w3.org/2000/svg">
<path d="M31.9303 1.12695H4.07168C1.82609 1.12695 0 2.95244 0 5.20068V30.8044C0 33.05 1.82609 34.8735 4.07168 34.8735H31.9301C34.1757 34.8735 35.9999 33.05 35.9999 30.8044V5.20068C36 2.95244 34.1758 1.12695 31.9303 1.12695ZM23.2794 7.18536C25.451 7.18536 27.2122 8.94662 27.2122 11.1181C27.2122 13.2896 25.4509 15.0508 23.2794 15.0508C21.1072 15.0508 19.3467 13.2896 19.3467 11.1181C19.3467 8.94662 21.1072 7.18536 23.2794 7.18536ZM30.6533 31.1098H5.9097C4.82354 31.1098 4.33981 30.3239 4.82944 29.3544L11.5787 15.9862C12.0678 15.0168 12.9998 14.9303 13.6598 15.7928L20.4465 24.6619C21.1065 25.5245 22.2602 25.5979 23.0237 24.825L24.684 23.1438C25.4469 22.371 26.571 22.4667 27.1937 23.3561L31.4929 29.4972C32.1144 30.388 31.7395 31.1098 30.6533 31.1098Z" fill="#999999"/>
</svg>
