<svg width="213" height="23" viewBox="0 0 213 23" fill="none" xmlns="http://www.w3.org/2000/svg">
<g clip-path="url(#clip0_1_1749)">
<path d="M101.993 10.2366C101.993 10.2366 101.941 10.1557 101.841 10.0082C101.741 9.86063 101.593 9.64173 101.398 9.37048C101.298 9.23723 101.189 9.08495 101.07 8.92315C101.008 8.84225 100.946 8.76135 100.879 8.67093C100.846 8.6281 100.813 8.58527 100.779 8.53768C100.746 8.49485 100.708 8.44727 100.67 8.40444C100.599 8.31402 100.522 8.21884 100.446 8.12367C100.365 8.02849 100.285 7.93331 100.199 7.82862C100.118 7.72868 100.028 7.62875 99.9372 7.52406C99.8896 7.47171 99.8467 7.41936 99.7992 7.36702C99.7516 7.31467 99.704 7.26232 99.6564 7.20997C99.2662 6.7912 98.8236 6.35339 98.3192 5.92985C97.8147 5.51108 97.2579 5.10182 96.6393 4.74491C96.4823 4.65925 96.3252 4.57359 96.1682 4.48793C96.0064 4.40703 95.8446 4.33089 95.678 4.25951C95.3449 4.11674 94.9975 3.99302 94.6406 3.88832C93.9315 3.68369 93.1796 3.56472 92.4325 3.55996C91.6854 3.55045 90.943 3.6599 90.2577 3.88356C89.9151 3.99777 89.5915 4.14054 89.2822 4.31186C89.1299 4.39751 88.9824 4.48793 88.8396 4.58787C88.7682 4.63546 88.7064 4.6878 88.6397 4.73539C88.5779 4.78774 88.5112 4.84008 88.4494 4.89719C87.9545 5.33976 87.569 5.88227 87.3073 6.44381C87.0408 7.0101 86.898 7.59544 86.8552 8.13794C86.8171 8.68045 86.8742 9.18012 87.0075 9.5989C87.0741 9.80829 87.155 9.99388 87.2454 10.1652C87.2692 10.208 87.293 10.2461 87.3168 10.2889C87.3263 10.308 87.3406 10.327 87.3501 10.346C87.3644 10.3651 87.3739 10.3841 87.3882 10.4031C87.412 10.4412 87.4358 10.4745 87.4596 10.5126C87.4881 10.5459 87.5119 10.5792 87.5357 10.6125C87.55 10.6268 87.5595 10.6458 87.5738 10.6601C87.588 10.6744 87.5976 10.6887 87.6118 10.7029C87.6356 10.7315 87.6594 10.7601 87.688 10.7838C87.7356 10.8362 87.7879 10.8838 87.8403 10.9314C87.9402 11.0218 88.0401 11.0932 88.1305 11.155C88.3161 11.2788 88.4637 11.3501 88.5541 11.393C88.7349 11.4834 88.9538 11.5643 89.1918 11.6214C89.4297 11.6737 89.6819 11.6975 89.9246 11.6642C90.0483 11.6452 90.1673 11.6166 90.2815 11.5738C90.3101 11.5643 90.3386 11.55 90.3672 11.5357C90.3815 11.531 90.391 11.5215 90.4053 11.5167C90.4148 11.5119 90.4291 11.5072 90.4386 11.5024C90.4624 11.4929 90.4814 11.4739 90.5052 11.4644C90.529 11.4501 90.548 11.431 90.5718 11.4168C90.7431 11.2835 90.9002 11.0551 90.9953 10.7934C91.0905 10.5316 91.1238 10.2461 91.1096 9.98912C91.0953 9.73215 91.0287 9.51324 90.943 9.33241C90.8573 9.15633 90.7431 9.01832 90.6527 8.90887C90.6289 8.88508 90.6099 8.85652 90.5908 8.83273C90.5718 8.80894 90.5575 8.7899 90.5433 8.76611C90.5195 8.72328 90.51 8.68521 90.5147 8.6519C90.5242 8.61858 90.548 8.59003 90.5956 8.56624C90.6194 8.55672 90.648 8.5472 90.6813 8.53768C90.7146 8.52817 90.7527 8.52817 90.8002 8.52817C90.824 8.52817 90.8478 8.52817 90.8716 8.52817C90.8954 8.53292 90.9192 8.53292 90.9478 8.53768C90.9763 8.54244 91.0001 8.5472 91.0334 8.55196C91.062 8.56148 91.0905 8.571 91.1191 8.58051C91.2428 8.61858 91.3713 8.68521 91.5093 8.78038C91.7758 8.97074 92.0375 9.28482 92.1993 9.6798C92.3659 10.0748 92.4468 10.5459 92.404 11.0456C92.3802 11.2978 92.3278 11.5548 92.2326 11.8117C92.1375 12.0687 91.9947 12.3257 91.8091 12.5541C91.7615 12.6112 91.7092 12.6683 91.6568 12.7207C91.5997 12.773 91.5474 12.8254 91.4903 12.8777C91.4617 12.9015 91.4284 12.9253 91.3998 12.9491C91.3713 12.9729 91.338 12.9967 91.3094 13.0157C91.2523 13.0538 91.1952 13.0966 91.1334 13.1347C90.8954 13.2822 90.6337 13.3964 90.3719 13.4726C89.8437 13.6296 89.3155 13.6391 88.8586 13.5773C88.397 13.5106 87.9973 13.3774 87.6785 13.2204C87.5167 13.1442 87.2597 13.0062 86.9551 12.7778C86.8028 12.6636 86.6363 12.5256 86.4697 12.3543C86.3841 12.2686 86.2984 12.1782 86.2175 12.0782C86.1747 12.0259 86.1318 11.9783 86.0938 11.9212C86.0747 11.8926 86.0509 11.8641 86.0319 11.8403C86.0129 11.8117 85.9938 11.7832 85.9748 11.7546C85.9367 11.6975 85.8987 11.6404 85.8558 11.5833C85.8178 11.5215 85.7845 11.4596 85.7464 11.3977C85.7273 11.3644 85.7083 11.3359 85.6893 11.3026C85.6702 11.2692 85.656 11.2359 85.6369 11.2026C85.6036 11.136 85.5655 11.0694 85.537 10.998C85.4085 10.7172 85.3038 10.4079 85.2229 10.0795C85.0659 9.42282 85.0373 8.68997 85.1468 7.94283C85.261 7.1957 85.5132 6.43905 85.9177 5.72998C86.3174 5.02092 86.8695 4.35469 87.569 3.82646C87.6547 3.75983 87.7451 3.69797 87.8355 3.6361C87.9307 3.579 88.0211 3.51713 88.1163 3.46003C88.3019 3.35058 88.497 3.25064 88.6921 3.16022C89.0871 2.97939 89.5011 2.83662 89.9199 2.73193C90.7622 2.5273 91.633 2.47495 92.4706 2.55585C94.1552 2.70814 95.7256 3.34582 96.9677 4.21192C97.5911 4.64021 98.1383 5.11134 98.619 5.59198C99.1044 6.06786 99.5184 6.55326 99.8801 7.01486C99.9229 7.07197 99.9705 7.12907 100.013 7.18618C100.056 7.24329 100.099 7.30039 100.142 7.3575C100.223 7.47171 100.308 7.5764 100.384 7.68586C100.461 7.79531 100.537 7.9 100.608 7.99994C100.68 8.10463 100.746 8.20457 100.813 8.3045C100.846 8.35209 100.879 8.39968 100.908 8.44727C100.937 8.49485 100.97 8.54244 100.998 8.59003C101.055 8.68045 101.113 8.77087 101.17 8.85652C101.274 9.02784 101.37 9.18964 101.46 9.33241C101.631 9.62269 101.76 9.85112 101.845 10.0082C101.945 10.1557 101.993 10.2366 101.993 10.2366Z" fill="#410C0C"/>
<path d="M85.6225 6.8866C85.6225 6.8866 85.6034 6.95323 85.5653 7.0722C85.5558 7.10075 85.5463 7.13882 85.532 7.17689C85.5225 7.21496 85.5082 7.25779 85.4892 7.30062C85.4559 7.38628 85.4178 7.49097 85.375 7.60043C85.3274 7.70988 85.2703 7.83361 85.2084 7.96685C85.1751 8.03348 85.1371 8.1001 85.1037 8.17148C85.0657 8.24287 85.0276 8.31425 84.9848 8.38563C84.9419 8.45701 84.8944 8.53315 84.8468 8.61405C84.7992 8.69019 84.7421 8.76633 84.6897 8.84723C84.6612 8.8853 84.6326 8.92813 84.6088 8.96621C84.5803 9.00428 84.547 9.0471 84.5184 9.08518C84.4899 9.12325 84.4565 9.16608 84.4232 9.2089C84.409 9.22794 84.3899 9.25173 84.3756 9.27077C84.3566 9.2898 84.3423 9.30884 84.3233 9.33263C84.052 9.66099 83.7237 9.99411 83.3382 10.3034C82.9528 10.6128 82.5102 10.9078 82.0105 11.1457C81.5108 11.3884 80.9588 11.574 80.3782 11.6882C79.7977 11.8025 79.1885 11.8405 78.5746 11.8025C77.9608 11.7644 77.3469 11.6502 76.7568 11.4551C76.1667 11.2647 75.6004 10.9935 75.0864 10.6556C75.0246 10.6128 74.958 10.5699 74.8961 10.5271C74.8342 10.4795 74.7724 10.4367 74.7105 10.3891C74.5915 10.2939 74.4726 10.1987 74.3583 10.0988C74.1299 9.89893 73.9205 9.68003 73.7302 9.44685C73.5398 9.21842 73.3637 8.97572 73.221 8.71875C73.2019 8.68543 73.1829 8.65688 73.1639 8.62357C73.1448 8.59026 73.1306 8.55695 73.1115 8.52364C73.0782 8.45701 73.0449 8.39515 73.0116 8.32852C72.9545 8.19528 72.8926 8.06203 72.8498 7.92403C72.7499 7.65277 72.688 7.37676 72.6452 7.10551C72.6309 6.9675 72.6119 6.83902 72.6071 6.69625C72.6023 6.62487 72.6071 6.55824 72.6071 6.49162C72.6119 6.425 72.6119 6.35837 72.6166 6.29175C72.6594 5.76352 72.8022 5.30668 72.9783 4.93073C73.0687 4.74038 73.1639 4.57382 73.2591 4.4263C73.359 4.27877 73.4589 4.15028 73.5541 4.03607C73.7492 3.81241 73.9205 3.66489 74.0347 3.58399C74.2584 3.41267 74.5487 3.24135 74.9008 3.12714C75.0769 3.06527 75.2673 3.0272 75.4671 3.00341C75.5671 2.98913 75.667 2.98438 75.7717 2.98438C75.8288 2.98438 75.8812 2.98437 75.9383 2.98913C75.9954 2.98913 76.0477 2.99865 76.1048 3.00341C76.5474 3.05576 76.9614 3.22707 77.2898 3.46026C77.6229 3.69344 77.8894 3.98848 78.0797 4.30257C78.2701 4.61665 78.3843 4.95452 78.4271 5.26861C78.47 5.58745 78.4319 5.88249 78.351 6.10616C78.2701 6.33458 78.1511 6.48686 78.0417 6.56776C78.0179 6.5868 77.9893 6.60583 77.9655 6.62011C77.9417 6.63439 77.9179 6.63914 77.8941 6.64866C77.8513 6.65818 77.8132 6.65342 77.7847 6.63914C77.661 6.56776 77.661 6.31555 77.561 6.03953C77.5134 5.90153 77.4421 5.74925 77.3421 5.60648C77.2422 5.46372 77.1089 5.31619 76.9519 5.19722C76.7996 5.07349 76.6188 4.97832 76.4475 4.92121C76.2761 4.86411 76.1143 4.85459 75.9859 4.86887C75.9716 4.87362 75.9525 4.87362 75.9383 4.87838C75.924 4.88314 75.9097 4.8879 75.8954 4.8879C75.8621 4.89742 75.8241 4.90694 75.7907 4.91645C75.7194 4.94025 75.6575 4.96404 75.5956 4.99735C75.4719 5.05922 75.3577 5.1306 75.2625 5.20674C75.2149 5.24481 75.134 5.30192 75.0341 5.40185C74.9865 5.44944 74.9294 5.51131 74.8723 5.57793C74.8152 5.64931 74.7581 5.73021 74.7057 5.82063C74.5963 6.00622 74.4963 6.24416 74.444 6.5059C74.4392 6.53921 74.4345 6.57252 74.4297 6.60583C74.425 6.63914 74.4202 6.67246 74.4202 6.71053C74.4154 6.77715 74.4202 6.85805 74.4154 6.93895C74.425 7.09599 74.4392 7.26731 74.4868 7.43863C74.5011 7.52428 74.5344 7.6147 74.563 7.70512C74.582 7.74795 74.5963 7.79554 74.6153 7.83837C74.6248 7.86216 74.6296 7.88595 74.6391 7.90499L74.6677 7.97161C74.7438 8.15245 74.8485 8.33804 74.9675 8.51888C75.0864 8.69971 75.2244 8.88055 75.3815 9.05186C75.4576 9.13752 75.5433 9.22318 75.6289 9.30408C75.6718 9.34215 75.7194 9.38498 75.7622 9.42305C75.805 9.46588 75.8526 9.49919 75.9002 9.54202C76.2761 9.85134 76.714 10.1274 77.1851 10.3367C77.6562 10.5509 78.1654 10.7079 78.6889 10.7983C79.2123 10.8888 79.7453 10.9173 80.264 10.8745C80.7827 10.8317 81.2919 10.7222 81.7631 10.5604C82.7101 10.232 83.5095 9.68479 84.0901 9.12325C84.1092 9.10421 84.1282 9.08993 84.1472 9.0709C84.1663 9.05186 84.1805 9.03283 84.1996 9.01855C84.2329 8.98048 84.2662 8.94717 84.3043 8.91386C84.3376 8.88055 84.3709 8.84248 84.4042 8.80916C84.4375 8.77109 84.4661 8.73778 84.4946 8.70447C84.5565 8.63309 84.6136 8.56646 84.6707 8.49984C84.723 8.42846 84.7754 8.36184 84.8277 8.29521C84.8801 8.22859 84.9229 8.16197 84.9657 8.1001C85.0086 8.03348 85.0514 7.97161 85.0942 7.91451C85.1704 7.79078 85.237 7.67657 85.2989 7.57663C85.356 7.47194 85.4035 7.37676 85.4464 7.2911C85.4702 7.24827 85.4844 7.2102 85.5035 7.17689C85.5178 7.13882 85.532 7.11027 85.5463 7.07696C85.5939 6.94847 85.6225 6.8866 85.6225 6.8866Z" fill="#410C0C"/>
<path d="M73.6778 6.5012C73.6778 6.5012 73.4923 6.41078 73.1353 6.24422C72.9593 6.15857 72.7356 6.06339 72.4786 5.95394C72.412 5.92538 72.3454 5.89683 72.274 5.86828C72.2026 5.83973 72.1312 5.81117 72.0551 5.78262C71.9028 5.72551 71.741 5.65889 71.5744 5.59227C70.8892 5.34005 70.0469 5.05928 69.0523 4.81658C68.0624 4.56912 66.9298 4.35973 65.6783 4.21697C64.4267 4.07421 63.0609 4.01234 61.6095 4.03613C60.1628 4.06469 58.6305 4.18366 57.0553 4.3978C56.2653 4.5025 55.4659 4.63099 54.6616 4.78327C53.8526 4.93555 53.0389 5.10211 52.2203 5.29722C51.4018 5.48757 50.5786 5.69696 49.7505 5.92538C49.3365 6.0396 48.9225 6.15381 48.5132 6.2823C48.0992 6.40602 47.6852 6.52499 47.2712 6.65348C43.959 7.66711 40.6469 8.84254 37.4347 9.86568C37.2348 9.93231 37.035 9.99417 36.8351 10.056C36.6352 10.1179 36.4354 10.1798 36.2355 10.2416C36.0356 10.3035 35.8357 10.3654 35.6406 10.4272C35.5407 10.4558 35.4455 10.4891 35.3456 10.5176C35.2457 10.5462 35.1457 10.5747 35.0505 10.6033C34.6556 10.7175 34.2653 10.8317 33.8751 10.9459C33.4849 11.0554 33.0994 11.1601 32.714 11.2648C32.5236 11.3171 32.3333 11.3695 32.1429 11.4171C31.9526 11.4646 31.7622 11.5122 31.5718 11.5598C31.3815 11.6074 31.1959 11.655 31.0103 11.7026C30.9151 11.7264 30.8247 11.7502 30.7295 11.774C30.6391 11.7978 30.5439 11.8168 30.4488 11.8358C30.0776 11.9167 29.7112 12.0024 29.3495 12.0785C29.2591 12.0976 29.1686 12.1214 29.0782 12.1356C28.9878 12.1547 28.8974 12.169 28.807 12.188C28.6261 12.2213 28.4501 12.2546 28.2692 12.2927C28.0932 12.326 27.9171 12.3593 27.741 12.3926C27.6553 12.4069 27.5649 12.4259 27.4793 12.4402C27.3936 12.4545 27.3032 12.4688 27.2175 12.483C26.8701 12.5354 26.5323 12.5925 26.1991 12.6448C26.1135 12.6591 26.0326 12.6686 25.9517 12.6829C25.8708 12.6924 25.7851 12.7019 25.7042 12.7115C25.5377 12.7305 25.3759 12.7495 25.2141 12.7686C24.8905 12.8066 24.5764 12.8447 24.2671 12.8828C23.025 13.0065 21.8639 13.0493 20.8264 12.9684C19.7938 12.8923 18.8944 12.6924 18.1948 12.4545C18.1092 12.4259 18.0235 12.3926 17.9378 12.3641C17.8569 12.3307 17.776 12.3022 17.6999 12.2736C17.5476 12.207 17.4096 12.1499 17.2859 12.088C17.1622 12.0262 17.0479 11.9691 16.948 11.9167C16.8481 11.8596 16.7624 11.8073 16.6863 11.7645C16.6482 11.7407 16.6101 11.7216 16.5721 11.6978C16.534 11.674 16.4959 11.6502 16.4579 11.6217C16.3817 11.5693 16.3056 11.5218 16.2247 11.4694C16.1485 11.4123 16.0724 11.3552 15.9915 11.2981C15.9534 11.2695 15.9106 11.241 15.8725 11.2077C15.8344 11.1744 15.7964 11.141 15.7583 11.1125C15.4442 10.8555 15.1349 10.551 14.8494 10.1988C14.264 9.50401 13.7834 8.59032 13.593 7.54814C13.4979 7.01039 13.5026 6.46313 13.593 5.9349C13.6835 5.40667 13.8548 4.89272 14.1022 4.41684C14.3497 3.94572 14.6781 3.50791 15.073 3.14624C15.468 2.78457 15.9344 2.49428 16.4341 2.32772L16.5292 2.29441C16.5625 2.28489 16.5911 2.27537 16.6244 2.26586C16.6863 2.24682 16.7481 2.22779 16.8148 2.21827C16.8814 2.20399 16.9385 2.18971 17.0051 2.1802C17.0717 2.17068 17.1384 2.16116 17.205 2.15164C17.4715 2.12785 17.7285 2.13737 17.9759 2.17544C18.0996 2.19447 18.2186 2.22303 18.3376 2.25158C18.3947 2.27061 18.4518 2.28489 18.5089 2.30393C18.566 2.32296 18.6184 2.342 18.6755 2.36579C18.8896 2.45145 19.0942 2.55138 19.2798 2.6656C19.6463 2.89402 19.9508 3.17479 20.1888 3.46508C20.4267 3.75536 20.6028 4.06945 20.7122 4.36925C20.8264 4.66906 20.8788 4.95934 20.8835 5.21156C20.8883 5.46378 20.8502 5.68268 20.7979 5.84924C20.7836 5.89207 20.7693 5.93014 20.7551 5.96345C20.7408 6.00153 20.7218 6.03008 20.7075 6.06339C20.6932 6.09194 20.6789 6.1205 20.6646 6.14429C20.6504 6.16808 20.6313 6.18712 20.6171 6.20615C20.56 6.27754 20.5124 6.31085 20.4791 6.29657C20.4077 6.27278 20.4172 6.08718 20.3886 5.80166C20.3696 5.65889 20.3458 5.48757 20.2839 5.30198C20.2221 5.11639 20.1317 4.91652 19.9984 4.71189C19.8652 4.51202 19.6938 4.30739 19.4797 4.12655C19.2703 3.94096 19.0133 3.77916 18.7326 3.66019C18.5946 3.59832 18.447 3.55074 18.2948 3.51742C18.2567 3.50791 18.2186 3.49839 18.1805 3.49363C18.1425 3.48887 18.1044 3.47935 18.0663 3.47459C17.9902 3.46984 17.914 3.46032 17.8379 3.46032C17.6856 3.46032 17.5381 3.46984 17.3953 3.50315C17.362 3.51267 17.324 3.52218 17.2906 3.5317C17.2526 3.54122 17.2145 3.55549 17.1764 3.56977C17.1384 3.57929 17.1003 3.59832 17.067 3.6126C17.0479 3.62212 17.0289 3.62688 17.0099 3.63639L16.9575 3.66495C16.6672 3.80295 16.4007 4.00758 16.1723 4.26456C15.9439 4.52153 15.7583 4.8261 15.6155 5.15446C15.3395 5.81117 15.2681 6.56307 15.4252 7.19123L15.4395 7.24833C15.4442 7.26737 15.4537 7.29116 15.4585 7.3102C15.4728 7.35303 15.4823 7.3911 15.4966 7.43393C15.5108 7.472 15.5204 7.51483 15.5346 7.5529C15.5489 7.59097 15.568 7.6338 15.5822 7.67187C15.5965 7.70994 15.6108 7.74801 15.6298 7.79084C15.6441 7.82891 15.6679 7.86698 15.6822 7.90505C15.7202 7.98119 15.7488 8.05733 15.7964 8.12872C15.8392 8.2001 15.8773 8.27148 15.9201 8.34286C15.9677 8.40949 16.0105 8.48087 16.0581 8.54749C16.158 8.67598 16.2532 8.80923 16.3627 8.92344C16.5768 9.16138 16.8005 9.37552 17.0384 9.56112C17.067 9.58491 17.0955 9.60871 17.1241 9.6325C17.1526 9.65629 17.1812 9.67533 17.2145 9.69912C17.2716 9.74195 17.3287 9.78478 17.3858 9.82285C17.4429 9.86092 17.5048 9.89899 17.5619 9.93707C17.5905 9.9561 17.619 9.97514 17.6476 9.99417C17.6761 10.0132 17.7047 10.0275 17.7332 10.0465C17.7903 10.0798 17.8569 10.1179 17.9283 10.1607C18.0045 10.1988 18.0901 10.2464 18.1805 10.294C18.2757 10.3416 18.3804 10.3844 18.4899 10.4415C18.547 10.4653 18.6088 10.4891 18.6659 10.5129C18.7278 10.5367 18.7897 10.5652 18.8611 10.589C19.4036 10.7889 20.1221 10.9745 21.0025 11.0649C21.8877 11.1601 22.9346 11.1601 24.1148 11.0792C24.4098 11.0554 24.7144 11.0268 25.0237 10.9983C25.1808 10.984 25.333 10.9697 25.4948 10.9555C25.5757 10.9459 25.6519 10.9412 25.7328 10.9317C25.8137 10.9221 25.8946 10.9126 25.9707 10.9031C26.2943 10.865 26.6227 10.8222 26.9558 10.7794C27.0415 10.7699 27.1224 10.7603 27.208 10.7461C27.2937 10.7365 27.3746 10.7223 27.4602 10.708C27.6315 10.6794 27.8029 10.6556 27.9742 10.6271C28.1455 10.5985 28.3216 10.5747 28.4977 10.5462C28.5833 10.5319 28.6737 10.5176 28.7594 10.5034C28.8498 10.4891 28.9355 10.4701 29.0259 10.4558C29.378 10.3892 29.7397 10.3225 30.1014 10.2559C30.1918 10.2369 30.2822 10.2226 30.3774 10.2036C30.4678 10.1845 30.5582 10.1655 30.6534 10.1465C30.839 10.1084 31.0198 10.0656 31.2102 10.0275C31.3958 9.98941 31.5814 9.94658 31.7717 9.90851C31.9621 9.87044 32.1477 9.82285 32.338 9.77527C33.8561 9.42787 35.4312 9.00434 37.0397 8.55701C40.2567 7.65759 43.6212 6.60114 46.9952 5.70172C47.4187 5.58751 47.8422 5.48281 48.261 5.37336C48.6798 5.26391 49.1033 5.16397 49.5269 5.05928C50.3692 4.85941 51.2162 4.67857 52.0538 4.51678C52.8913 4.35022 53.7241 4.21221 54.5474 4.08848C55.3707 3.96475 56.1892 3.86482 56.9887 3.78868C58.5924 3.63164 60.1485 3.56977 61.619 3.59357C63.0847 3.62688 64.4695 3.73633 65.7259 3.93144C66.9869 4.12179 68.1195 4.37877 69.1094 4.6643C70.0992 4.94983 70.9368 5.26391 71.6125 5.53992C71.7791 5.6113 71.9409 5.68268 72.0884 5.74931C72.1645 5.78262 72.2359 5.81117 72.3073 5.84448C72.3739 5.8778 72.4406 5.91111 72.5072 5.93966C72.7641 6.06339 72.9831 6.16332 73.1544 6.2585C73.4922 6.40127 73.6778 6.5012 73.6778 6.5012Z" fill="#410C0C"/>
<path d="M14.5688 8.76562C14.5688 8.76562 14.426 8.82749 14.1691 8.93218C14.0406 8.98453 13.8883 9.05115 13.7074 9.12254C13.5266 9.18916 13.322 9.2653 13.0983 9.35096C13.0412 9.36999 12.9841 9.39379 12.927 9.41282C12.8699 9.43186 12.808 9.45089 12.7462 9.47469C12.6224 9.51752 12.494 9.56035 12.3655 9.60318C12.1037 9.69359 11.823 9.77449 11.5279 9.86015C10.9426 10.0315 10.3049 10.1885 9.65294 10.3313C8.34903 10.612 6.98325 10.7738 5.88396 10.8405C5.60795 10.8547 5.34621 10.8643 5.11303 10.8738C4.87509 10.8738 4.66094 10.8785 4.47535 10.8785C4.38017 10.8785 4.29452 10.8785 4.21362 10.8785C4.13272 10.8785 4.06133 10.8738 3.99947 10.869C3.87098 10.8643 3.7758 10.8547 3.71394 10.85C3.59497 10.8357 3.45696 10.8167 3.30944 10.7881C3.16192 10.7548 3.00488 10.712 2.84308 10.6644C2.76218 10.6406 2.68128 10.612 2.59562 10.5883C2.51472 10.5597 2.42906 10.5311 2.34816 10.4978C2.18636 10.4312 2.02456 10.3598 1.87228 10.2884C1.56771 10.1457 1.30122 9.9696 1.11563 9.81256C0.934792 9.65076 0.834857 9.49372 0.868169 9.35572C0.90148 9.21771 1.05376 9.11778 1.28219 9.03688C1.51061 8.96074 1.80566 8.91791 2.1245 8.87508C2.2863 8.85604 2.4481 8.84177 2.61465 8.83701C2.69555 8.83225 2.78121 8.82749 2.86211 8.82273C2.94301 8.81797 3.02391 8.81321 3.10481 8.81321C3.26185 8.80845 3.41413 8.81321 3.5569 8.81797C3.6949 8.81797 3.82339 8.82749 3.93285 8.83701C3.98995 8.84177 4.07561 8.85604 4.19458 8.87508C4.25169 8.8846 4.31831 8.89887 4.38969 8.90839C4.46107 8.91791 4.54197 8.93218 4.62763 8.94646C4.79895 8.97501 4.99406 9.00357 5.21297 9.04164C5.43187 9.07019 5.66981 9.1035 5.92679 9.13681C6.94993 9.26054 8.25385 9.35572 9.53397 9.33192C10.1764 9.31765 10.8141 9.2891 11.4042 9.23675C11.6992 9.2082 11.9895 9.18916 12.256 9.15109C12.3893 9.13205 12.5225 9.11778 12.651 9.1035C12.7129 9.09398 12.7747 9.08922 12.8366 9.07971C12.8985 9.07019 12.9556 9.06067 13.0174 9.05115C13.2506 9.01308 13.4648 8.97977 13.6551 8.95122C13.8455 8.91791 14.0073 8.8846 14.1405 8.8608C14.4118 8.79418 14.5688 8.76562 14.5688 8.76562Z" fill="#410C0C"/>
<path d="M105.976 0.5C105.976 0.5 105.933 0.590417 105.848 0.756976C105.805 0.842635 105.752 0.94257 105.695 1.0663C105.633 1.18527 105.553 1.32327 105.472 1.47556C105.129 2.08469 104.591 2.94127 103.801 3.874C103.011 4.80197 101.96 5.80608 100.67 6.6817C100.023 7.11951 99.3186 7.52401 98.5619 7.87616C97.8052 8.23783 97.0105 8.51384 96.2539 8.81365C95.8732 8.96593 95.502 9.12297 95.1498 9.29429C95.0642 9.33712 94.9738 9.37995 94.8881 9.42754L94.6359 9.5703L94.3932 9.71782C94.3123 9.77017 94.2361 9.82252 94.16 9.87486C94.0077 9.98432 93.8649 10.0985 93.7317 10.2175C93.6984 10.2461 93.6651 10.2746 93.6318 10.3079L93.5366 10.4031L93.4414 10.4983C93.4129 10.5316 93.3843 10.5649 93.3557 10.5934C93.1321 10.8552 92.9513 11.1502 92.8132 11.4596C92.5372 12.0782 92.4373 12.7587 92.4849 13.3821C92.5325 14.0055 92.7323 14.5766 93.0226 15.0144C93.0417 15.0429 93.0607 15.0715 93.0797 15.0953C93.0988 15.1238 93.1178 15.1476 93.1368 15.1762C93.1797 15.2238 93.2177 15.2761 93.2558 15.3237C93.2986 15.3713 93.3367 15.4141 93.3795 15.457C93.4033 15.476 93.4224 15.4998 93.4462 15.5188C93.47 15.5379 93.489 15.5569 93.5128 15.5807C93.6936 15.7377 93.8887 15.871 94.0886 15.9757C94.4883 16.1851 94.8928 16.2945 95.2498 16.3421C95.2926 16.3469 95.3354 16.3564 95.383 16.3564C95.4258 16.3611 95.4687 16.3611 95.5115 16.3659C95.5924 16.3659 95.6733 16.3706 95.7494 16.3706C95.8256 16.3706 95.897 16.3659 95.9636 16.3611C96.0302 16.3516 96.0921 16.3516 96.1539 16.3421C96.3919 16.3088 96.5584 16.2612 96.6631 16.2326C96.8725 16.1755 97.1009 16.0851 97.3294 15.9614C97.4436 15.8948 97.5578 15.8234 97.6672 15.7377C97.7767 15.6521 97.8814 15.5521 97.9861 15.4427C98.1859 15.219 98.3715 14.943 98.5048 14.6384C98.6428 14.3339 98.738 13.996 98.7856 13.6629C98.8094 13.4963 98.8236 13.3298 98.8236 13.168C98.8236 13.0062 98.8189 12.8491 98.7998 12.6968C98.7713 12.397 98.6999 12.1258 98.6285 11.8926C98.4858 11.431 98.3144 11.1312 98.4144 11.0217C98.462 10.9694 98.5667 10.9742 98.7285 11.0455C98.8855 11.1169 99.0901 11.2549 99.2995 11.4786C99.5089 11.7022 99.723 12.0021 99.8896 12.378C99.9753 12.5636 100.042 12.7682 100.099 12.9871C100.156 13.206 100.194 13.4345 100.218 13.6724C100.261 14.1483 100.227 14.6575 100.104 15.1571C99.9848 15.6568 99.7611 16.1517 99.4661 16.5848C99.3138 16.7989 99.1425 16.9988 98.9616 17.1796C98.776 17.3605 98.5809 17.5128 98.3811 17.646C97.9813 17.9077 97.5768 18.0791 97.2199 18.179C97.0438 18.2313 96.7488 18.298 96.3586 18.3313C96.2634 18.3408 96.1587 18.3456 96.0492 18.3503C95.9398 18.3503 95.8256 18.3551 95.7066 18.3456C95.5876 18.3408 95.4639 18.3313 95.3307 18.317C95.264 18.3075 95.2022 18.298 95.1355 18.2884C95.0689 18.2789 95.0023 18.2647 94.9309 18.2504C94.3837 18.1457 93.765 17.9363 93.1606 17.5604C92.8608 17.3748 92.561 17.1416 92.285 16.8608C92.2517 16.8275 92.2184 16.7894 92.1803 16.7561C92.147 16.718 92.1137 16.68 92.0804 16.6419C92.0138 16.5658 91.9519 16.4849 91.89 16.404C91.8282 16.3231 91.7711 16.2374 91.714 16.1517C91.6854 16.1089 91.6616 16.0661 91.6331 16.0185C91.6045 15.9757 91.5807 15.9281 91.5569 15.8852C90.7384 14.4338 90.6956 12.4684 91.5712 10.8361C91.7901 10.4316 92.0661 10.0462 92.404 9.70831C92.4468 9.66548 92.4896 9.62265 92.5325 9.58458L92.661 9.47037L92.7942 9.35615C92.837 9.31808 92.8846 9.28477 92.9322 9.25146C93.1131 9.1087 93.3034 8.98021 93.4985 8.86124C93.5984 8.80413 93.6936 8.74703 93.7936 8.68992C93.8935 8.63757 93.9934 8.58523 94.0934 8.53764L94.3979 8.39963C94.4979 8.3568 94.6026 8.31397 94.7025 8.27114C95.107 8.10934 95.5163 7.97134 95.9208 7.84761C96.725 7.59539 97.515 7.39076 98.2431 7.10524C98.9807 6.82922 99.6802 6.49611 100.332 6.12492C101.631 5.38254 102.726 4.49265 103.573 3.64558C104.415 2.79375 105.015 1.99427 105.405 1.41369C105.5 1.26617 105.591 1.14244 105.662 1.02347C105.733 0.909258 105.791 0.809323 105.838 0.728423C105.929 0.585659 105.976 0.5 105.976 0.5Z" fill="#410C0C"/>
<path d="M70.7228 7.65746C70.7228 7.65746 70.4135 7.60988 69.871 7.52422C69.733 7.50518 69.5854 7.48615 69.4189 7.46235C69.2523 7.43856 69.0762 7.41476 68.8859 7.39573C68.6955 7.37669 68.4909 7.3529 68.2768 7.32911C68.0626 7.31007 67.8342 7.29103 67.601 7.272C66.654 7.20062 65.5452 7.15303 64.3507 7.17206C63.1563 7.18634 61.8809 7.27676 60.6008 7.4338C60.439 7.45283 60.2819 7.47187 60.1201 7.49566L59.6395 7.56705L59.4016 7.60036L59.1636 7.64319C59.0066 7.67174 58.8448 7.69553 58.6877 7.72409C58.5307 7.75264 58.3737 7.78595 58.2166 7.8145C58.0596 7.84782 57.9025 7.87637 57.7503 7.90492C57.4409 7.97155 57.1411 8.03817 56.8508 8.11431C56.2703 8.26659 55.7278 8.45219 55.2566 8.68537C55.0187 8.79958 54.7998 8.92807 54.5999 9.06131C54.4048 9.19456 54.2287 9.34208 54.0717 9.49437C53.9146 9.64665 53.7766 9.80369 53.6577 9.96549C53.5435 10.1273 53.4483 10.2843 53.3674 10.4414C53.296 10.5984 53.2341 10.7459 53.1961 10.8887C53.1818 10.922 53.1818 10.9601 53.1723 10.9934C53.1675 11.0267 53.1532 11.06 53.1532 11.0933C53.1437 11.16 53.1294 11.2218 53.1294 11.2837C53.1247 11.3122 53.1247 11.3455 53.1199 11.3741C53.1199 11.4027 53.1199 11.4264 53.1199 11.455C53.1199 11.4788 53.1199 11.5073 53.1247 11.5311C53.1247 11.5549 53.1294 11.5787 53.1294 11.6025C53.139 11.6977 53.158 11.7834 53.177 11.8643C53.2151 12.0165 53.2627 12.1307 53.2912 12.1974C53.3484 12.3354 53.4245 12.4877 53.5292 12.6399C53.6339 12.7875 53.7576 12.9302 53.9051 13.0397C53.9765 13.092 54.0574 13.1396 54.1431 13.1777C54.2335 13.2158 54.2954 13.2396 54.381 13.2586C54.5476 13.2871 54.7617 13.2681 54.9664 13.192C55.171 13.1206 55.3661 13.0016 55.5184 12.8684C55.6754 12.7351 55.7896 12.5876 55.88 12.4448C55.9657 12.3021 56.018 12.1641 56.0656 12.0546C56.0752 12.0261 56.0894 12.0023 56.099 11.9785C56.1085 11.9547 56.1227 11.9356 56.1323 11.9166C56.1561 11.8785 56.1846 11.8547 56.2179 11.8405C56.2512 11.8309 56.2893 11.8357 56.3321 11.8595C56.3512 11.869 56.375 11.888 56.3988 11.9071C56.4225 11.9261 56.4416 11.9547 56.4654 11.9832C56.5558 12.1022 56.6415 12.3068 56.6557 12.5828C56.67 12.8541 56.6129 13.1872 56.4559 13.5108C56.2988 13.8344 56.0561 14.158 55.7182 14.4197C55.5517 14.553 55.3566 14.6672 55.1472 14.7576C54.933 14.848 54.6999 14.9147 54.4476 14.9432C54.3858 14.948 54.3239 14.9575 54.2573 14.9575C54.1954 14.9575 54.1288 14.9622 54.0622 14.9575C53.9289 14.948 53.81 14.9384 53.691 14.9147C53.453 14.8718 53.2199 14.7909 53.0105 14.691C52.5822 14.4911 52.2348 14.2008 51.9731 13.8963C51.7113 13.5917 51.5305 13.2729 51.4115 12.9873C51.3544 12.8446 51.264 12.6066 51.2021 12.2735C51.1736 12.107 51.1498 11.9166 51.145 11.7072C51.145 11.6549 51.145 11.5978 51.145 11.5454C51.145 11.4883 51.1498 11.4312 51.1545 11.3741C51.1593 11.317 51.1641 11.2551 51.1736 11.198C51.1831 11.1409 51.1926 11.0838 51.2021 11.0219C51.2164 10.903 51.2497 10.784 51.2783 10.6603C51.2925 10.5984 51.3163 10.5365 51.3354 10.4747C51.3544 10.4128 51.3734 10.351 51.3972 10.2891C51.4877 10.0416 51.6114 9.79417 51.7589 9.54671C51.9064 9.30401 52.0825 9.06607 52.2824 8.84241C52.4822 8.61874 52.7059 8.4046 52.9534 8.20949C53.2008 8.01437 53.4673 7.82878 53.7529 7.67174C54.0384 7.5147 54.3334 7.38145 54.6427 7.26248C55.2614 7.0293 55.9086 6.87702 56.5606 6.76756C56.8889 6.71522 57.2125 6.67239 57.5409 6.63432C57.7027 6.61528 57.8692 6.60101 58.031 6.58673C58.1976 6.57245 58.3594 6.55342 58.5259 6.53914C58.6925 6.52487 58.8591 6.51535 59.0209 6.50107L59.2683 6.48204L59.5158 6.46776L60.0155 6.44397C60.182 6.43445 60.3486 6.43445 60.5151 6.42969C61.8428 6.39638 63.1515 6.43445 64.365 6.53914C65.5785 6.63908 66.6921 6.80088 67.6296 6.96743C67.8627 7.01026 68.0912 7.05309 68.3053 7.09592C68.5195 7.13875 68.7193 7.18158 68.9097 7.22441C69.1 7.26248 69.2761 7.30531 69.4379 7.34338C69.5997 7.38145 69.7472 7.41952 69.8805 7.44808C70.4182 7.57656 70.7228 7.65746 70.7228 7.65746Z" fill="#410C0C"/>
<path d="M104.477 8.66113C104.477 8.66113 104.496 8.72776 104.539 8.84673C104.558 8.90859 104.587 8.98473 104.611 9.07039C104.634 9.16081 104.663 9.2655 104.696 9.37971C104.725 9.49868 104.753 9.62717 104.787 9.76994C104.801 9.84132 104.815 9.91746 104.829 9.9936C104.844 10.0697 104.858 10.1506 104.872 10.2363C104.887 10.322 104.896 10.4076 104.91 10.4933C104.92 10.5837 104.929 10.6741 104.944 10.7693C104.948 10.8169 104.953 10.8645 104.958 10.9121C104.963 10.9596 104.967 11.012 104.967 11.0596C104.972 11.1595 104.986 11.2642 104.986 11.3689C105.029 12.2064 104.958 13.2058 104.715 14.2575C104.592 14.781 104.43 15.3235 104.216 15.8565C104.001 16.3894 103.74 16.9224 103.435 17.4364C103.131 17.9503 102.774 18.4405 102.383 18.8973C101.988 19.3542 101.555 19.773 101.099 20.1442C100.18 20.8865 99.1712 21.4243 98.2337 21.7812C97.7626 21.962 97.3105 22.0953 96.8918 22.2C96.473 22.2999 96.0875 22.3713 95.7449 22.4141C95.0644 22.5045 94.5742 22.5045 94.3553 22.5045C93.9175 22.495 93.3417 22.4236 92.7421 22.2666C92.1425 22.1143 91.5238 21.8764 90.9956 21.5956C90.4626 21.3148 90.0248 20.9865 89.744 20.7009C89.6726 20.6296 89.6108 20.5629 89.5632 20.4963C89.5156 20.4297 89.4728 20.3726 89.4442 20.3155C89.3871 20.206 89.3728 20.1204 89.4109 20.0585C89.449 19.9966 89.5299 19.9681 89.6536 19.9633C89.7155 19.9586 89.7821 19.9633 89.8582 19.9681C89.9344 19.9776 90.02 19.9824 90.1104 19.9966C90.4769 20.0537 90.9528 20.1537 91.4667 20.2346C91.9807 20.3202 92.5374 20.3821 93.0514 20.4202C93.5653 20.4582 94.046 20.463 94.4077 20.4725C94.5885 20.4725 94.993 20.5058 95.564 20.4773C95.8496 20.4678 96.1779 20.4344 96.5396 20.3916C96.9013 20.3393 97.2915 20.2631 97.7007 20.1537C98.524 19.9348 99.4282 19.5731 100.28 19.0211C100.708 18.7451 101.122 18.4262 101.513 18.0646C101.903 17.7029 102.264 17.2984 102.593 16.8701C102.921 16.4418 103.216 15.9849 103.468 15.5138C103.721 15.0427 103.93 14.5621 104.101 14.0814C104.439 13.1249 104.615 12.1779 104.672 11.3689C104.73 10.5551 104.677 9.86987 104.615 9.39875C104.596 9.27978 104.582 9.17508 104.568 9.08467C104.553 8.99425 104.534 8.91811 104.525 8.85149C104.492 8.72776 104.477 8.66113 104.477 8.66113Z" fill="#410C0C"/>
<path d="M78.2705 7.98597C78.2705 7.98597 78.3752 7.95266 78.5513 7.89555C78.5941 7.87652 78.6417 7.85748 78.694 7.83845C78.7464 7.81465 78.8035 7.79562 78.8606 7.76706C78.9177 7.73851 78.9796 7.70996 79.0462 7.67665C79.0795 7.66237 79.1128 7.64334 79.1461 7.6243C79.1794 7.60526 79.2128 7.58623 79.2461 7.56719C79.5173 7.40539 79.8124 7.18649 80.0789 6.90572C80.3501 6.62971 80.5881 6.29659 80.7689 5.94444C80.7784 5.92064 80.7927 5.90161 80.8022 5.87782L80.8308 5.81119L80.8926 5.67795C80.9307 5.58753 80.9592 5.49235 80.9926 5.40669C81.0163 5.31152 81.0449 5.2211 81.0639 5.13068C81.0735 5.08309 81.083 5.04026 81.0925 4.99268C81.102 4.94985 81.1115 4.90226 81.1163 4.85943C81.1639 4.50252 81.1496 4.16464 81.1068 3.87435C81.102 3.83628 81.0925 3.80297 81.0877 3.7649C81.083 3.73159 81.0782 3.69352 81.0687 3.66021C81.0544 3.59358 81.0401 3.53172 81.0211 3.46986C80.983 3.35088 80.9545 3.24143 80.9164 3.15101C80.8974 3.10343 80.8831 3.0606 80.8688 3.02253C80.8545 2.98446 80.8355 2.95114 80.826 2.91783C80.8022 2.85597 80.7879 2.80838 80.7736 2.77983C80.7546 2.72272 80.7356 2.6561 80.7213 2.5752C80.7023 2.49906 80.688 2.4134 80.6737 2.32298C80.6642 2.28015 80.6547 2.23256 80.6499 2.18498C80.6404 2.13739 80.6404 2.0898 80.6261 2.04221C80.6071 1.94703 80.5976 1.84234 80.5833 1.74716C80.5738 1.69958 80.569 1.64723 80.5643 1.59488C80.5595 1.54254 80.55 1.49971 80.5452 1.44736C80.5357 1.35218 80.5309 1.25225 80.5309 1.16659C80.5309 0.990513 80.5595 0.833472 80.6594 0.728778C80.7546 0.628843 80.9117 0.595531 81.1115 0.624084C81.2115 0.63836 81.3162 0.676431 81.4256 0.724019C81.478 0.747813 81.5398 0.776366 81.5922 0.809678C81.6493 0.842989 81.7016 0.876301 81.7587 0.91913C81.8729 0.995271 81.9729 1.09045 82.0776 1.18562C82.1299 1.23321 82.1775 1.28556 82.2203 1.34266C82.2679 1.39501 82.3107 1.45212 82.3536 1.50446C82.4345 1.61392 82.5059 1.72813 82.563 1.83758C82.6153 1.94703 82.6629 2.05173 82.6962 2.14215C82.7152 2.18973 82.7295 2.26587 82.7533 2.36581C82.7628 2.41816 82.7771 2.47526 82.7866 2.53713C82.7961 2.59899 82.8057 2.67037 82.8152 2.74652C82.839 2.89404 82.839 3.07011 82.8485 3.26047C82.8437 3.35564 82.8437 3.45558 82.839 3.55551C82.839 3.60786 82.8342 3.66021 82.8295 3.71255C82.8247 3.7649 82.8199 3.81725 82.8152 3.87435C82.7628 4.31217 82.6486 4.79281 82.4392 5.25917C82.4154 5.31628 82.3869 5.37338 82.3583 5.43049C82.3298 5.48759 82.3012 5.5447 82.2679 5.6018C82.206 5.71602 82.1347 5.82071 82.068 5.93016C81.9919 6.03486 81.9205 6.13955 81.8396 6.23948L81.7159 6.38701L81.654 6.45839C81.635 6.48218 81.6112 6.50598 81.5874 6.52501C81.24 6.89144 80.8498 7.18649 80.4596 7.40064C80.0741 7.61954 79.6886 7.75755 79.3603 7.83845C79.3174 7.84796 79.2794 7.85748 79.2413 7.867C79.2032 7.87652 79.1652 7.88603 79.1271 7.89079C79.051 7.90507 78.9796 7.91459 78.9129 7.92886C78.8796 7.93362 78.8463 7.93838 78.8178 7.94314C78.7845 7.9479 78.7559 7.9479 78.7274 7.95266C78.6703 7.95742 78.6179 7.96218 78.5703 7.96693C78.38 7.98121 78.2705 7.98597 78.2705 7.98597Z" fill="#410C0C"/>
<path d="M12.651 7.65681C12.651 7.65681 6.41224 7.80433 5.84594 7.72343C5.2844 7.64253 4.0709 7.01437 4.1518 6.46235C4.22794 5.90557 5.56517 5.63431 6.13147 5.71521C6.69301 5.79135 12.651 7.65681 12.651 7.65681Z" fill="#410C0C"/>
<path d="M111.006 10.2366C111.006 10.2366 111.059 10.1557 111.159 10.0082C111.259 9.86063 111.406 9.64173 111.601 9.37048C111.701 9.23723 111.811 9.08495 111.93 8.92315C111.991 8.84225 112.053 8.76135 112.12 8.67093C112.153 8.6281 112.187 8.58527 112.22 8.53768C112.253 8.49485 112.291 8.44727 112.329 8.40444C112.401 8.31402 112.477 8.21884 112.553 8.12367C112.634 8.02849 112.715 7.93331 112.8 7.82862C112.881 7.72868 112.972 7.62875 113.062 7.52406C113.11 7.47171 113.153 7.41936 113.2 7.36702C113.248 7.31467 113.295 7.26232 113.343 7.20997C113.733 6.7912 114.176 6.35339 114.68 5.92985C115.185 5.51108 115.741 5.10182 116.36 4.74491C116.517 4.65925 116.674 4.57359 116.831 4.48793C116.993 4.40703 117.155 4.33089 117.321 4.25951C117.654 4.11674 118.002 3.99302 118.359 3.88832C119.068 3.68369 119.82 3.56472 120.567 3.55996C121.314 3.55045 122.056 3.6599 122.742 3.88356C123.084 3.99777 123.408 4.14054 123.717 4.31186C123.869 4.39751 124.017 4.48793 124.16 4.58787C124.231 4.63546 124.293 4.6878 124.36 4.73539C124.421 4.78774 124.488 4.84008 124.55 4.89719C125.045 5.33976 125.43 5.88227 125.692 6.44381C125.959 7.0101 126.101 7.59544 126.144 8.13794C126.182 8.68045 126.125 9.18012 125.992 9.5989C125.925 9.80829 125.844 9.99388 125.754 10.1652C125.73 10.208 125.706 10.2461 125.683 10.2889C125.673 10.308 125.659 10.327 125.649 10.346C125.635 10.3651 125.625 10.3841 125.611 10.4031C125.587 10.4412 125.564 10.4745 125.54 10.5126C125.511 10.5459 125.487 10.5792 125.464 10.6125C125.449 10.6268 125.44 10.6458 125.426 10.6601C125.411 10.6744 125.402 10.6887 125.387 10.7029C125.364 10.7315 125.34 10.7601 125.311 10.7838C125.264 10.8362 125.211 10.8838 125.159 10.9314C125.059 11.0218 124.959 11.0932 124.869 11.155C124.683 11.2788 124.536 11.3501 124.445 11.393C124.264 11.4834 124.045 11.5643 123.808 11.6214C123.57 11.6737 123.317 11.6975 123.075 11.6642C122.951 11.6452 122.832 11.6166 122.718 11.5738C122.689 11.5643 122.661 11.55 122.632 11.5357C122.618 11.531 122.608 11.5215 122.594 11.5167C122.585 11.5119 122.57 11.5072 122.561 11.5024C122.537 11.4929 122.518 11.4739 122.494 11.4644C122.47 11.4501 122.451 11.431 122.428 11.4168C122.256 11.2835 122.099 11.0551 122.004 10.7934C121.909 10.5316 121.875 10.2461 121.89 9.98912C121.904 9.73215 121.971 9.51324 122.056 9.33241C122.142 9.15633 122.256 9.01832 122.347 8.90887C122.37 8.88508 122.389 8.85652 122.408 8.83273C122.427 8.80894 122.442 8.7899 122.456 8.76611C122.48 8.72328 122.489 8.68521 122.485 8.6519C122.475 8.61858 122.451 8.59003 122.404 8.56624C122.38 8.55672 122.351 8.5472 122.318 8.53768C122.285 8.52817 122.247 8.52817 122.199 8.52817C122.175 8.52817 122.151 8.52817 122.128 8.52817C122.104 8.53292 122.08 8.53292 122.052 8.53768C122.023 8.54244 121.999 8.5472 121.966 8.55196C121.937 8.56148 121.909 8.571 121.88 8.58051C121.757 8.61858 121.628 8.68521 121.49 8.78038C121.224 8.97074 120.962 9.28482 120.8 9.6798C120.633 10.0748 120.553 10.5459 120.595 11.0456C120.619 11.2978 120.671 11.5548 120.767 11.8117C120.862 12.0687 121.005 12.3257 121.19 12.5541C121.238 12.6112 121.29 12.6683 121.342 12.7207C121.4 12.773 121.452 12.8254 121.509 12.8777C121.538 12.9015 121.571 12.9253 121.599 12.9491C121.628 12.9729 121.661 12.9967 121.69 13.0157C121.747 13.0538 121.804 13.0966 121.866 13.1347C122.104 13.2822 122.366 13.3964 122.627 13.4726C123.156 13.6296 123.684 13.6391 124.141 13.5773C124.602 13.5106 125.002 13.3774 125.321 13.2204C125.483 13.1442 125.74 13.0062 126.044 12.7778C126.196 12.6636 126.363 12.5256 126.53 12.3543C126.615 12.2686 126.701 12.1782 126.782 12.0782C126.825 12.0259 126.867 11.9783 126.906 11.9212C126.925 11.8926 126.948 11.8641 126.967 11.8403C126.986 11.8117 127.005 11.7832 127.025 11.7546C127.063 11.6975 127.101 11.6404 127.143 11.5833C127.182 11.5215 127.215 11.4596 127.253 11.3977C127.272 11.3644 127.291 11.3359 127.31 11.3026C127.329 11.2692 127.343 11.2359 127.362 11.2026C127.396 11.136 127.434 11.0694 127.462 10.998C127.591 10.7172 127.696 10.4079 127.776 10.0795C127.933 9.42282 127.962 8.68997 127.853 7.94283C127.738 7.1957 127.486 6.43905 127.082 5.72998C126.682 5.02092 126.13 4.35469 125.43 3.82646C125.345 3.75983 125.254 3.69797 125.164 3.6361C125.069 3.579 124.978 3.51713 124.883 3.46003C124.697 3.35058 124.502 3.25064 124.307 3.16022C123.912 2.97939 123.498 2.83662 123.079 2.73193C122.237 2.5273 121.366 2.47495 120.529 2.55585C118.844 2.70814 117.274 3.34582 116.032 4.21192C115.408 4.64021 114.861 5.11134 114.38 5.59198C113.895 6.06786 113.481 6.55326 113.119 7.01486C113.076 7.07197 113.029 7.12907 112.986 7.18618C112.943 7.24329 112.9 7.30039 112.858 7.3575C112.777 7.47171 112.691 7.5764 112.615 7.68586C112.539 7.79531 112.463 7.9 112.391 7.99994C112.32 8.10463 112.253 8.20457 112.187 8.3045C112.153 8.35209 112.12 8.39968 112.091 8.44727C112.063 8.49485 112.029 8.54244 112.001 8.59003C111.944 8.68045 111.887 8.77087 111.83 8.85652C111.725 9.02784 111.63 9.18964 111.539 9.33241C111.368 9.62269 111.24 9.85112 111.154 10.0082C111.054 10.1557 111.006 10.2366 111.006 10.2366Z" fill="#410C0C"/>
<path d="M127.376 6.8866C127.376 6.8866 127.395 6.95323 127.434 7.0722C127.443 7.10075 127.453 7.13882 127.467 7.17689C127.476 7.21496 127.491 7.25779 127.51 7.30062C127.543 7.38628 127.581 7.49097 127.624 7.60043C127.672 7.70988 127.729 7.83361 127.79 7.96685C127.824 8.03348 127.862 8.1001 127.895 8.17148C127.933 8.24287 127.971 8.31425 128.014 8.38563C128.057 8.45701 128.105 8.53315 128.152 8.61405C128.2 8.69019 128.257 8.76633 128.309 8.84723C128.338 8.8853 128.366 8.92813 128.39 8.96621C128.419 9.00428 128.452 9.0471 128.481 9.08518C128.509 9.12325 128.542 9.16608 128.576 9.2089C128.59 9.22794 128.609 9.25173 128.623 9.27077C128.642 9.2898 128.657 9.30884 128.676 9.33263C128.947 9.66099 129.275 9.99411 129.661 10.3034C130.046 10.6128 130.489 10.9078 130.988 11.1457C131.488 11.3884 132.04 11.574 132.621 11.6882C133.201 11.8025 133.81 11.8405 134.424 11.8025C135.038 11.7644 135.652 11.6502 136.242 11.4551C136.832 11.2647 137.399 10.9935 137.912 10.6556C137.974 10.6128 138.041 10.5699 138.103 10.5271C138.165 10.4795 138.227 10.4367 138.288 10.3891C138.407 10.2939 138.526 10.1987 138.641 10.0988C138.869 9.89893 139.078 9.68003 139.269 9.44685C139.459 9.21842 139.635 8.97572 139.778 8.71875C139.797 8.68543 139.816 8.65688 139.835 8.62357C139.854 8.59026 139.868 8.55695 139.887 8.52364C139.921 8.45701 139.954 8.39515 139.987 8.32852C140.044 8.19528 140.106 8.06203 140.149 7.92403C140.249 7.65277 140.311 7.37676 140.354 7.10551C140.368 6.9675 140.387 6.83902 140.392 6.69625C140.397 6.62487 140.392 6.55824 140.392 6.49162C140.387 6.425 140.387 6.35837 140.382 6.29175C140.339 5.76352 140.197 5.30668 140.021 4.93073C139.93 4.74038 139.835 4.57382 139.74 4.4263C139.64 4.27877 139.54 4.15028 139.445 4.03607C139.25 3.81241 139.078 3.66489 138.964 3.58399C138.741 3.41267 138.45 3.24135 138.098 3.12714C137.922 3.06527 137.732 3.0272 137.532 3.00341C137.432 2.98913 137.332 2.98438 137.227 2.98438C137.17 2.98438 137.118 2.98437 137.061 2.98913C137.004 2.98913 136.951 2.99865 136.894 3.00341C136.452 3.05576 136.038 3.22707 135.709 3.46026C135.376 3.69344 135.11 3.98848 134.919 4.30257C134.729 4.61665 134.615 4.95452 134.572 5.26861C134.529 5.58745 134.567 5.88249 134.648 6.10616C134.729 6.33458 134.848 6.48686 134.957 6.56776C134.981 6.5868 135.01 6.60583 135.033 6.62011C135.057 6.63439 135.081 6.63914 135.105 6.64866C135.148 6.65818 135.186 6.65342 135.214 6.63914C135.338 6.56776 135.338 6.31555 135.438 6.03953C135.485 5.90153 135.557 5.74925 135.657 5.60648C135.757 5.46372 135.89 5.31619 136.047 5.19722C136.199 5.07349 136.38 4.97832 136.551 4.92121C136.723 4.86411 136.885 4.85459 137.013 4.86887C137.027 4.87362 137.046 4.87362 137.061 4.87838C137.075 4.88314 137.089 4.8879 137.103 4.8879C137.137 4.89742 137.175 4.90694 137.208 4.91645C137.28 4.94025 137.341 4.96404 137.403 4.99735C137.527 5.05922 137.641 5.1306 137.736 5.20674C137.784 5.24481 137.865 5.30192 137.965 5.40185C138.012 5.44944 138.07 5.51131 138.127 5.57793C138.184 5.64931 138.241 5.73021 138.293 5.82063C138.403 6.00622 138.503 6.24416 138.555 6.5059C138.56 6.53921 138.564 6.57252 138.569 6.60583C138.574 6.63914 138.579 6.67246 138.579 6.71053C138.583 6.77715 138.579 6.85805 138.583 6.93895C138.574 7.09599 138.56 7.26731 138.512 7.43863C138.498 7.52428 138.464 7.6147 138.436 7.70512C138.417 7.74795 138.403 7.79554 138.384 7.83837C138.374 7.86216 138.369 7.88595 138.36 7.90499L138.331 7.97161C138.255 8.15245 138.15 8.33804 138.031 8.51888C137.912 8.69971 137.774 8.88055 137.617 9.05186C137.541 9.13752 137.456 9.22318 137.37 9.30408C137.327 9.34215 137.28 9.38498 137.237 9.42305C137.194 9.46588 137.146 9.49919 137.099 9.54202C136.723 9.85134 136.285 10.1274 135.814 10.3367C135.343 10.5509 134.834 10.7079 134.31 10.7983C133.787 10.8888 133.254 10.9173 132.735 10.8745C132.216 10.8317 131.707 10.7222 131.236 10.5604C130.289 10.232 129.489 9.68479 128.909 9.12325C128.89 9.10421 128.871 9.08993 128.852 9.0709C128.833 9.05186 128.818 9.03283 128.799 9.01855C128.766 8.98048 128.733 8.94717 128.695 8.91386C128.661 8.88055 128.628 8.84248 128.595 8.80916C128.561 8.77109 128.533 8.73778 128.504 8.70447C128.442 8.63309 128.385 8.56646 128.328 8.49984C128.276 8.42846 128.224 8.36184 128.171 8.29521C128.119 8.22859 128.076 8.16197 128.033 8.1001C127.99 8.03348 127.948 7.97161 127.905 7.91451C127.829 7.79078 127.762 7.67657 127.7 7.57663C127.643 7.47194 127.595 7.37676 127.553 7.2911C127.529 7.24827 127.514 7.2102 127.495 7.17689C127.481 7.13882 127.467 7.11027 127.453 7.07696C127.405 6.94847 127.376 6.8866 127.376 6.8866Z" fill="#410C0C"/>
<path d="M139.321 6.5012C139.321 6.5012 139.507 6.41078 139.864 6.24422C140.04 6.15857 140.264 6.06339 140.521 5.95394C140.587 5.92538 140.654 5.89683 140.725 5.86828C140.797 5.83973 140.868 5.81117 140.944 5.78262C141.096 5.72551 141.258 5.65889 141.425 5.59227C142.11 5.34005 142.952 5.05928 143.947 4.81658C144.937 4.56912 146.069 4.35973 147.321 4.21697C148.572 4.07421 149.938 4.01234 151.39 4.03613C152.836 4.06469 154.369 4.18366 155.944 4.3978C156.734 4.5025 157.533 4.63099 158.338 4.78327C159.147 4.93555 159.96 5.10211 160.779 5.29722C161.597 5.48757 162.421 5.69696 163.249 5.92538C163.663 6.0396 164.077 6.15381 164.486 6.2823C164.9 6.40602 165.314 6.52499 165.728 6.65348C169.04 7.66711 172.352 8.84254 175.564 9.86568C175.764 9.93231 175.964 9.99417 176.164 10.056C176.364 10.1179 176.564 10.1798 176.764 10.2416C176.964 10.3035 177.163 10.3654 177.358 10.4272C177.458 10.4558 177.554 10.4891 177.654 10.5176C177.753 10.5462 177.853 10.5747 177.949 10.6033C178.344 10.7175 178.734 10.8317 179.124 10.9459C179.514 11.0554 179.9 11.1601 180.285 11.2648C180.476 11.3171 180.666 11.3695 180.856 11.4171C181.047 11.4646 181.237 11.5122 181.427 11.5598C181.618 11.6074 181.803 11.655 181.989 11.7026C182.084 11.7264 182.174 11.7502 182.27 11.774C182.36 11.7978 182.455 11.8168 182.55 11.8358C182.922 11.9167 183.288 12.0024 183.65 12.0785C183.74 12.0976 183.83 12.1214 183.921 12.1356C184.011 12.1547 184.102 12.169 184.192 12.188C184.373 12.2213 184.549 12.2546 184.73 12.2927C184.906 12.326 185.082 12.3593 185.258 12.3926C185.344 12.4069 185.434 12.4259 185.52 12.4402C185.606 12.4545 185.696 12.4688 185.782 12.483C186.129 12.5354 186.467 12.5925 186.8 12.6448C186.886 12.6591 186.967 12.6686 187.047 12.6829C187.128 12.6924 187.214 12.7019 187.295 12.7115C187.461 12.7305 187.623 12.7495 187.785 12.7686C188.109 12.8066 188.423 12.8447 188.732 12.8828C189.974 13.0065 191.135 13.0493 192.173 12.9684C193.205 12.8923 194.105 12.6924 194.804 12.4545C194.89 12.4259 194.976 12.3926 195.061 12.3641C195.142 12.3307 195.223 12.3022 195.299 12.2736C195.451 12.207 195.59 12.1499 195.713 12.088C195.837 12.0262 195.951 11.9691 196.051 11.9167C196.151 11.8596 196.237 11.8073 196.313 11.7645C196.351 11.7407 196.389 11.7216 196.427 11.6978C196.465 11.674 196.503 11.6502 196.541 11.6217C196.617 11.5693 196.694 11.5218 196.774 11.4694C196.851 11.4123 196.927 11.3552 197.008 11.2981C197.046 11.2695 197.089 11.241 197.127 11.2077C197.165 11.1744 197.203 11.141 197.241 11.1125C197.555 10.8555 197.864 10.551 198.15 10.1988C198.735 9.50401 199.216 8.59032 199.406 7.54814C199.501 7.01039 199.497 6.46313 199.406 5.9349C199.316 5.40667 199.144 4.89272 198.897 4.41684C198.649 3.94572 198.321 3.50791 197.926 3.14624C197.531 2.78457 197.065 2.49428 196.565 2.32772L196.47 2.29441C196.437 2.28489 196.408 2.27537 196.375 2.26586C196.313 2.24682 196.251 2.22779 196.184 2.21827C196.118 2.20399 196.061 2.18971 195.994 2.1802C195.927 2.17068 195.861 2.16116 195.794 2.15164C195.528 2.12785 195.271 2.13737 195.023 2.17544C194.899 2.19447 194.781 2.22303 194.662 2.25158C194.604 2.27061 194.547 2.28489 194.49 2.30393C194.433 2.32296 194.381 2.342 194.324 2.36579C194.11 2.45145 193.905 2.55138 193.719 2.6656C193.353 2.89402 193.048 3.17479 192.81 3.46508C192.572 3.75536 192.396 4.06945 192.287 4.36925C192.173 4.66906 192.12 4.95934 192.116 5.21156C192.111 5.46378 192.149 5.68268 192.201 5.84924C192.216 5.89207 192.23 5.93014 192.244 5.96345C192.258 6.00153 192.277 6.03008 192.292 6.06339C192.306 6.09194 192.32 6.1205 192.334 6.14429C192.349 6.16808 192.368 6.18712 192.382 6.20615C192.439 6.27754 192.487 6.31085 192.52 6.29657C192.591 6.27278 192.582 6.08718 192.61 5.80166C192.63 5.65889 192.653 5.48757 192.715 5.30198C192.777 5.11639 192.867 4.91652 193.001 4.71189C193.134 4.51202 193.305 4.30739 193.519 4.12655C193.729 3.94096 193.986 3.77916 194.267 3.66019C194.405 3.59832 194.552 3.55074 194.704 3.51742C194.742 3.50791 194.781 3.49839 194.819 3.49363C194.857 3.48887 194.895 3.47935 194.933 3.47459C195.009 3.46984 195.085 3.46032 195.161 3.46032C195.313 3.46032 195.461 3.46984 195.604 3.50315C195.637 3.51267 195.675 3.52218 195.708 3.5317C195.747 3.54122 195.785 3.55549 195.823 3.56977C195.861 3.57929 195.899 3.59832 195.932 3.6126C195.951 3.62212 195.97 3.62688 195.989 3.63639L196.042 3.66495C196.332 3.80295 196.598 4.00758 196.827 4.26456C197.055 4.52153 197.241 4.8261 197.384 5.15446C197.66 5.81117 197.731 6.56307 197.574 7.19123L197.56 7.24833C197.555 7.26737 197.545 7.29116 197.541 7.3102C197.526 7.35303 197.517 7.3911 197.503 7.43393C197.488 7.472 197.479 7.51483 197.464 7.5529C197.45 7.59097 197.431 7.6338 197.417 7.67187C197.403 7.70994 197.388 7.74801 197.369 7.79084C197.355 7.82891 197.331 7.86698 197.317 7.90505C197.279 7.98119 197.25 8.05733 197.203 8.12872C197.16 8.2001 197.122 8.27148 197.079 8.34286C197.031 8.40949 196.989 8.48087 196.941 8.54749C196.841 8.67598 196.746 8.80923 196.636 8.92344C196.422 9.16138 196.199 9.37552 195.961 9.56112C195.932 9.58491 195.904 9.60871 195.875 9.6325C195.846 9.65629 195.818 9.67533 195.785 9.69912C195.728 9.74195 195.67 9.78478 195.613 9.82285C195.556 9.86092 195.494 9.89899 195.437 9.93707C195.409 9.9561 195.38 9.97514 195.352 9.99417C195.323 10.0132 195.294 10.0275 195.266 10.0465C195.209 10.0798 195.142 10.1179 195.071 10.1607C194.995 10.1988 194.909 10.2464 194.819 10.294C194.723 10.3416 194.619 10.3844 194.509 10.4415C194.452 10.4653 194.39 10.4891 194.333 10.5129C194.271 10.5367 194.209 10.5652 194.138 10.589C193.596 10.7889 192.877 10.9745 191.997 11.0649C191.111 11.1601 190.065 11.1601 188.884 11.0792C188.589 11.0554 188.285 11.0268 187.975 10.9983C187.818 10.984 187.666 10.9697 187.504 10.9555C187.423 10.9459 187.347 10.9412 187.266 10.9317C187.185 10.9221 187.105 10.9126 187.028 10.9031C186.705 10.865 186.376 10.8222 186.043 10.7794C185.958 10.7699 185.877 10.7603 185.791 10.7461C185.705 10.7365 185.625 10.7223 185.539 10.708C185.368 10.6794 185.196 10.6556 185.025 10.6271C184.854 10.5985 184.678 10.5747 184.501 10.5462C184.416 10.5319 184.325 10.5176 184.24 10.5034C184.149 10.4891 184.064 10.4701 183.973 10.4558C183.621 10.3892 183.259 10.3225 182.898 10.2559C182.807 10.2369 182.717 10.2226 182.622 10.2036C182.531 10.1845 182.441 10.1655 182.346 10.1465C182.16 10.1084 181.979 10.0656 181.789 10.0275C181.603 9.98941 181.418 9.94658 181.227 9.90851C181.037 9.87044 180.851 9.82285 180.661 9.77527C179.143 9.42787 177.568 9.00434 175.959 8.55701C172.742 7.65759 169.378 6.60114 166.004 5.70172C165.58 5.58751 165.157 5.48281 164.738 5.37336C164.319 5.26391 163.896 5.16397 163.472 5.05928C162.63 4.85941 161.783 4.67857 160.945 4.51678C160.108 4.35022 159.275 4.21221 158.452 4.08848C157.628 3.96475 156.81 3.86482 156.01 3.78868C154.407 3.63164 152.851 3.56977 151.38 3.59357C149.914 3.62688 148.53 3.73633 147.273 3.93144C146.012 4.12179 144.88 4.37877 143.89 4.6643C142.9 4.94983 142.062 5.26391 141.387 5.53992C141.22 5.6113 141.058 5.68268 140.911 5.74931C140.835 5.78262 140.763 5.81117 140.692 5.84448C140.625 5.8778 140.559 5.91111 140.492 5.93966C140.235 6.06339 140.016 6.16332 139.845 6.2585C139.507 6.40127 139.321 6.5012 139.321 6.5012Z" fill="#410C0C"/>
<path d="M198.43 8.76562C198.43 8.76562 198.573 8.82749 198.83 8.93218C198.958 8.98453 199.111 9.05115 199.292 9.12254C199.472 9.18916 199.677 9.2653 199.901 9.35096C199.958 9.36999 200.015 9.39379 200.072 9.41282C200.129 9.43186 200.191 9.45089 200.253 9.47469C200.377 9.51752 200.505 9.56035 200.633 9.60318C200.895 9.69359 201.176 9.77449 201.471 9.86015C202.056 10.0315 202.694 10.1885 203.346 10.3313C204.65 10.612 206.016 10.7738 207.115 10.8405C207.391 10.8547 207.653 10.8643 207.886 10.8738C208.124 10.8738 208.338 10.8785 208.524 10.8785C208.619 10.8785 208.704 10.8785 208.785 10.8785C208.866 10.8785 208.938 10.8738 208.999 10.869C209.128 10.8643 209.223 10.8547 209.285 10.85C209.404 10.8357 209.542 10.8167 209.69 10.7881C209.837 10.7548 209.994 10.712 210.156 10.6644C210.237 10.6406 210.318 10.612 210.403 10.5883C210.484 10.5597 210.57 10.5311 210.651 10.4978C210.813 10.4312 210.974 10.3598 211.127 10.2884C211.431 10.1457 211.698 9.9696 211.883 9.81256C212.064 9.65076 212.164 9.49372 212.131 9.35572C212.097 9.21771 211.945 9.11778 211.717 9.03688C211.488 8.96074 211.193 8.91791 210.874 8.87508C210.713 8.85604 210.551 8.84177 210.384 8.83701C210.303 8.83225 210.218 8.82749 210.137 8.82273C210.056 8.81797 209.975 8.81321 209.894 8.81321C209.737 8.80845 209.585 8.81321 209.442 8.81797C209.304 8.81797 209.176 8.82749 209.066 8.83701C209.009 8.84177 208.923 8.85604 208.804 8.87508C208.747 8.8846 208.681 8.89887 208.609 8.90839C208.538 8.91791 208.457 8.93218 208.371 8.94646C208.2 8.97501 208.005 9.00357 207.786 9.04164C207.567 9.07019 207.329 9.1035 207.072 9.13681C206.049 9.26054 204.745 9.35572 203.465 9.33192C202.823 9.31765 202.185 9.2891 201.595 9.23675C201.3 9.2082 201.009 9.18916 200.743 9.15109C200.61 9.13205 200.476 9.11778 200.348 9.1035C200.286 9.09398 200.224 9.08922 200.162 9.07971C200.101 9.07019 200.043 9.06067 199.982 9.05115C199.748 9.01308 199.534 8.97977 199.344 8.95122C199.154 8.91791 198.992 8.8846 198.858 8.8608C198.582 8.79418 198.43 8.76562 198.43 8.76562Z" fill="#410C0C"/>
<path d="M107.018 0.5C107.018 0.5 107.061 0.590417 107.147 0.756976C107.189 0.842635 107.242 0.94257 107.299 1.0663C107.361 1.18527 107.442 1.32327 107.522 1.47556C107.865 2.08469 108.403 2.94127 109.193 3.874C109.983 4.80197 111.035 5.80608 112.324 6.6817C112.971 7.11951 113.676 7.52401 114.432 7.87616C115.189 8.23783 115.984 8.51384 116.74 8.81365C117.121 8.96593 117.492 9.12297 117.844 9.29429C117.93 9.33712 118.02 9.37995 118.106 9.42754L118.358 9.5703L118.601 9.71782C118.682 9.77017 118.758 9.82252 118.834 9.87486C118.986 9.98432 119.129 10.0985 119.262 10.2175C119.296 10.2461 119.329 10.2746 119.362 10.3079L119.458 10.4031L119.553 10.4983C119.581 10.5316 119.61 10.5649 119.638 10.5934C119.862 10.8552 120.043 11.1502 120.181 11.4596C120.457 12.0782 120.557 12.7587 120.509 13.3821C120.462 14.0055 120.262 14.5766 119.972 15.0144C119.953 15.0429 119.933 15.0715 119.914 15.0953C119.895 15.1238 119.876 15.1476 119.857 15.1762C119.815 15.2238 119.776 15.2761 119.738 15.3237C119.696 15.3713 119.657 15.4141 119.615 15.457C119.591 15.476 119.572 15.4998 119.548 15.5188C119.524 15.5379 119.505 15.5569 119.481 15.5807C119.301 15.7377 119.105 15.871 118.906 15.9757C118.506 16.1851 118.101 16.2945 117.744 16.3421C117.702 16.3469 117.659 16.3564 117.611 16.3564C117.568 16.3611 117.526 16.3611 117.483 16.3659C117.402 16.3659 117.321 16.3706 117.245 16.3706C117.169 16.3706 117.097 16.3659 117.031 16.3611C116.964 16.3516 116.902 16.3516 116.84 16.3421C116.602 16.3088 116.436 16.2612 116.331 16.2326C116.122 16.1755 115.893 16.0851 115.665 15.9614C115.551 15.8948 115.436 15.8234 115.327 15.7377C115.217 15.6521 115.113 15.5521 115.008 15.4427C114.808 15.219 114.623 14.943 114.489 14.6384C114.351 14.3339 114.256 13.996 114.209 13.6629C114.185 13.4963 114.171 13.3298 114.171 13.168C114.171 13.0062 114.175 12.8491 114.194 12.6968C114.223 12.397 114.294 12.1258 114.366 11.8926C114.508 11.431 114.68 11.1312 114.58 11.0217C114.532 10.9694 114.428 10.9742 114.266 11.0455C114.109 11.1169 113.904 11.2549 113.695 11.4786C113.485 11.7022 113.271 12.0021 113.105 12.378C113.019 12.5636 112.952 12.7682 112.895 12.9871C112.838 13.206 112.8 13.4345 112.776 13.6724C112.733 14.1483 112.767 14.6575 112.89 15.1571C113.009 15.6568 113.233 16.1517 113.528 16.5848C113.68 16.7989 113.852 16.9988 114.033 17.1796C114.218 17.3605 114.413 17.5128 114.613 17.646C115.013 17.9077 115.417 18.0791 115.774 18.179C115.95 18.2313 116.245 18.298 116.636 18.3313C116.731 18.3408 116.835 18.3456 116.945 18.3503C117.054 18.3503 117.169 18.3551 117.288 18.3456C117.407 18.3408 117.53 18.3313 117.664 18.317C117.73 18.3075 117.792 18.298 117.859 18.2884C117.925 18.2789 117.992 18.2647 118.063 18.2504C118.611 18.1457 119.229 17.9363 119.834 17.5604C120.133 17.3748 120.433 17.1416 120.709 16.8608C120.742 16.8275 120.776 16.7894 120.814 16.7561C120.847 16.718 120.88 16.68 120.914 16.6419C120.98 16.5658 121.042 16.4849 121.104 16.404C121.166 16.3231 121.223 16.2374 121.28 16.1517C121.309 16.1089 121.333 16.0661 121.361 16.0185C121.39 15.9757 121.413 15.9281 121.437 15.8852C122.256 14.4338 122.299 12.4684 121.423 10.8361C121.204 10.4316 120.928 10.0462 120.59 9.70831C120.547 9.66548 120.505 9.62265 120.462 9.58458L120.333 9.47037L120.2 9.35615C120.157 9.31808 120.11 9.28477 120.062 9.25146C119.881 9.1087 119.691 8.98021 119.496 8.86124C119.396 8.80413 119.301 8.74703 119.201 8.68992C119.101 8.63757 119.001 8.58523 118.901 8.53764L118.596 8.39963C118.496 8.3568 118.392 8.31397 118.292 8.27114C117.887 8.10934 117.478 7.97134 117.073 7.84761C116.269 7.59539 115.479 7.39076 114.751 7.10524C114.014 6.82922 113.314 6.49611 112.662 6.12492C111.363 5.38254 110.268 4.49265 109.421 3.64558C108.579 2.79375 107.979 1.99427 107.589 1.41369C107.494 1.26617 107.404 1.14244 107.332 1.02347C107.261 0.909258 107.204 0.809323 107.156 0.728423C107.07 0.585659 107.018 0.5 107.018 0.5Z" fill="#410C0C"/>
<path d="M142.276 7.65746C142.276 7.65746 142.586 7.60988 143.128 7.52422C143.266 7.50518 143.414 7.48615 143.58 7.46235C143.747 7.43856 143.923 7.41476 144.113 7.39573C144.304 7.37669 144.508 7.3529 144.722 7.32911C144.937 7.31007 145.165 7.29103 145.398 7.272C146.345 7.20062 147.454 7.15303 148.648 7.17206C149.843 7.18634 151.118 7.27676 152.398 7.4338C152.56 7.45283 152.717 7.47187 152.879 7.49566L153.36 7.56705L153.598 7.60036L153.836 7.64319C153.993 7.67174 154.154 7.69553 154.311 7.72409C154.468 7.75264 154.625 7.78595 154.783 7.8145C154.94 7.84782 155.097 7.87637 155.249 7.90492C155.558 7.97155 155.858 8.03817 156.148 8.11431C156.729 8.26659 157.271 8.45219 157.743 8.68537C157.98 8.79958 158.199 8.92807 158.399 9.06131C158.594 9.19456 158.77 9.34208 158.927 9.49437C159.085 9.64665 159.223 9.80369 159.341 9.96549C159.456 10.1273 159.551 10.2843 159.632 10.4414C159.703 10.5984 159.765 10.7459 159.803 10.8887C159.817 10.922 159.817 10.9601 159.827 10.9934C159.832 11.0267 159.846 11.06 159.846 11.0933C159.855 11.16 159.87 11.2218 159.87 11.2837C159.874 11.3122 159.874 11.3455 159.879 11.3741C159.879 11.4027 159.879 11.4264 159.879 11.455C159.879 11.4788 159.879 11.5073 159.874 11.5311C159.874 11.5549 159.87 11.5787 159.87 11.6025C159.86 11.6977 159.841 11.7834 159.822 11.8643C159.784 12.0165 159.736 12.1307 159.708 12.1974C159.651 12.3354 159.575 12.4877 159.47 12.6399C159.365 12.7875 159.242 12.9302 159.094 13.0397C159.023 13.092 158.942 13.1396 158.856 13.1777C158.766 13.2158 158.704 13.2396 158.618 13.2586C158.452 13.2871 158.237 13.2681 158.033 13.192C157.828 13.1206 157.633 13.0016 157.481 12.8684C157.324 12.7351 157.21 12.5876 157.119 12.4448C157.033 12.3021 156.981 12.1641 156.934 12.0546C156.924 12.0261 156.91 12.0023 156.9 11.9785C156.891 11.9547 156.876 11.9356 156.867 11.9166C156.843 11.8785 156.815 11.8547 156.781 11.8405C156.748 11.8309 156.71 11.8357 156.667 11.8595C156.648 11.869 156.624 11.888 156.6 11.9071C156.577 11.9261 156.558 11.9547 156.534 11.9832C156.443 12.1022 156.358 12.3068 156.343 12.5828C156.329 12.8541 156.386 13.1872 156.543 13.5108C156.7 13.8344 156.943 14.158 157.281 14.4197C157.447 14.553 157.643 14.6672 157.852 14.7576C158.066 14.848 158.299 14.9147 158.552 14.9432C158.613 14.948 158.675 14.9575 158.742 14.9575C158.804 14.9575 158.87 14.9622 158.937 14.9575C159.07 14.948 159.189 14.9384 159.308 14.9147C159.546 14.8718 159.779 14.7909 159.989 14.691C160.417 14.4911 160.764 14.2008 161.026 13.8963C161.288 13.5917 161.469 13.2729 161.588 12.9873C161.645 12.8446 161.735 12.6066 161.797 12.2735C161.826 12.107 161.849 11.9166 161.854 11.7072C161.854 11.6549 161.854 11.5978 161.854 11.5454C161.854 11.4883 161.849 11.4312 161.845 11.3741C161.84 11.317 161.835 11.2551 161.826 11.198C161.816 11.1409 161.807 11.0838 161.797 11.0219C161.783 10.903 161.749 10.784 161.721 10.6603C161.707 10.5984 161.683 10.5365 161.664 10.4747C161.645 10.4128 161.626 10.351 161.602 10.2891C161.512 10.0416 161.388 9.79417 161.24 9.54671C161.093 9.30401 160.917 9.06607 160.717 8.84241C160.517 8.61874 160.293 8.4046 160.046 8.20949C159.798 8.01437 159.532 7.82878 159.246 7.67174C158.961 7.5147 158.666 7.38145 158.356 7.26248C157.738 7.0293 157.091 6.87702 156.439 6.76756C156.11 6.71522 155.787 6.67239 155.458 6.63432C155.296 6.61528 155.13 6.60101 154.968 6.58673C154.802 6.57245 154.64 6.55342 154.473 6.53914C154.307 6.52487 154.14 6.51535 153.978 6.50107L153.731 6.48204L153.483 6.46776L152.984 6.44397C152.817 6.43445 152.651 6.43445 152.484 6.42969C151.156 6.39638 149.848 6.43445 148.634 6.53914C147.421 6.63908 146.307 6.80088 145.37 6.96743C145.136 7.01026 144.908 7.05309 144.694 7.09592C144.48 7.13875 144.28 7.18158 144.089 7.22441C143.899 7.26248 143.723 7.30531 143.561 7.34338C143.399 7.38145 143.252 7.41952 143.119 7.44808C142.581 7.57656 142.276 7.65746 142.276 7.65746Z" fill="#410C0C"/>
<path d="M108.517 8.66113C108.517 8.66113 108.498 8.72776 108.456 8.84673C108.437 8.90859 108.408 8.98473 108.384 9.07039C108.36 9.16081 108.332 9.2655 108.299 9.37971C108.27 9.49868 108.241 9.62717 108.208 9.76994C108.194 9.84132 108.18 9.91746 108.165 9.9936C108.151 10.0697 108.137 10.1506 108.122 10.2363C108.108 10.322 108.099 10.4076 108.084 10.4933C108.075 10.5837 108.065 10.6741 108.051 10.7693C108.046 10.8169 108.042 10.8645 108.037 10.9121C108.032 10.9596 108.027 11.012 108.027 11.0596C108.023 11.1595 108.008 11.2642 108.008 11.3689C107.965 12.2064 108.037 13.2058 108.28 14.2575C108.403 14.781 108.565 15.3235 108.779 15.8565C108.993 16.3894 109.255 16.9224 109.56 17.4364C109.864 17.9503 110.221 18.4405 110.611 18.8973C111.006 19.3542 111.439 19.773 111.896 20.1442C112.815 20.8865 113.824 21.4243 114.761 21.7812C115.232 21.962 115.684 22.0953 116.103 22.2C116.522 22.2999 116.907 22.3713 117.25 22.4141C117.93 22.5045 118.421 22.5045 118.639 22.5045C119.077 22.495 119.653 22.4236 120.253 22.2666C120.852 22.1143 121.471 21.8764 121.999 21.5956C122.532 21.3148 122.97 20.9865 123.251 20.7009C123.322 20.6296 123.384 20.5629 123.432 20.4963C123.479 20.4297 123.522 20.3726 123.551 20.3155C123.608 20.206 123.622 20.1204 123.584 20.0585C123.546 19.9966 123.465 19.9681 123.341 19.9633C123.279 19.9586 123.213 19.9633 123.137 19.9681C123.06 19.9776 122.975 19.9824 122.884 19.9966C122.518 20.0537 122.042 20.1537 121.528 20.2346C121.014 20.3202 120.457 20.3821 119.943 20.4202C119.429 20.4582 118.949 20.463 118.587 20.4725C118.406 20.4725 118.002 20.5058 117.431 20.4773C117.145 20.4678 116.817 20.4344 116.455 20.3916C116.094 20.3393 115.703 20.2631 115.294 20.1537C114.471 19.9348 113.567 19.5731 112.715 19.0211C112.286 18.7451 111.872 18.4262 111.482 18.0646C111.092 17.7029 110.73 17.2984 110.402 16.8701C110.074 16.4418 109.779 15.9849 109.526 15.5138C109.274 15.0427 109.065 14.5621 108.893 14.0814C108.556 13.1249 108.379 12.1779 108.322 11.3689C108.265 10.5551 108.318 9.86987 108.379 9.39875C108.398 9.27978 108.413 9.17508 108.427 9.08467C108.441 8.99425 108.46 8.91811 108.47 8.85149C108.508 8.72776 108.517 8.66113 108.517 8.66113Z" fill="#410C0C"/>
<path d="M134.724 7.98597C134.724 7.98597 134.619 7.95266 134.443 7.89555C134.4 7.87652 134.353 7.85748 134.3 7.83845C134.248 7.81465 134.191 7.79562 134.134 7.76706C134.077 7.73851 134.015 7.70996 133.948 7.67665C133.915 7.66237 133.882 7.64334 133.848 7.6243C133.815 7.60526 133.782 7.58623 133.748 7.56719C133.477 7.40539 133.182 7.18649 132.916 6.90572C132.644 6.62971 132.406 6.29659 132.226 5.94444C132.216 5.92064 132.202 5.90161 132.192 5.87782L132.164 5.81119L132.102 5.67795C132.064 5.58753 132.035 5.49235 132.002 5.40669C131.978 5.31152 131.95 5.2211 131.931 5.13068C131.921 5.08309 131.912 5.04026 131.902 4.99268C131.892 4.94985 131.883 4.90226 131.878 4.85943C131.831 4.50252 131.845 4.16464 131.888 3.87435C131.892 3.83628 131.902 3.80297 131.907 3.7649C131.912 3.73159 131.916 3.69352 131.926 3.66021C131.94 3.59358 131.954 3.53172 131.973 3.46986C132.011 3.35088 132.04 3.24143 132.078 3.15101C132.097 3.10343 132.111 3.0606 132.126 3.02253C132.14 2.98446 132.159 2.95114 132.168 2.91783C132.192 2.85597 132.207 2.80838 132.221 2.77983C132.24 2.72272 132.259 2.6561 132.273 2.5752C132.292 2.49906 132.306 2.4134 132.321 2.32298C132.33 2.28015 132.34 2.23256 132.345 2.18498C132.354 2.13739 132.354 2.0898 132.368 2.04221C132.387 1.94703 132.397 1.84234 132.411 1.74716C132.421 1.69958 132.425 1.64723 132.43 1.59488C132.435 1.54254 132.444 1.49971 132.449 1.44736C132.459 1.35218 132.464 1.25225 132.464 1.16659C132.464 0.990513 132.435 0.833472 132.335 0.728778C132.24 0.628843 132.083 0.595531 131.883 0.624084C131.783 0.63836 131.678 0.676431 131.569 0.724019C131.517 0.747813 131.455 0.776366 131.402 0.809678C131.345 0.842989 131.293 0.876301 131.236 0.91913C131.122 0.995271 131.022 1.09045 130.917 1.18562C130.865 1.23321 130.817 1.28556 130.774 1.34266C130.727 1.39501 130.684 1.45212 130.641 1.50446C130.56 1.61392 130.489 1.72813 130.432 1.83758C130.379 1.94703 130.332 2.05173 130.298 2.14215C130.279 2.18973 130.265 2.26587 130.241 2.36581C130.232 2.41816 130.217 2.47526 130.208 2.53713C130.198 2.59899 130.189 2.67037 130.179 2.74652C130.156 2.89404 130.156 3.07011 130.146 3.26047C130.151 3.35564 130.151 3.45558 130.156 3.55551C130.156 3.60786 130.16 3.66021 130.165 3.71255C130.17 3.7649 130.175 3.81725 130.179 3.87435C130.232 4.31217 130.346 4.79281 130.555 5.25917C130.579 5.31628 130.608 5.37338 130.636 5.43049C130.665 5.48759 130.693 5.5447 130.727 5.6018C130.788 5.71602 130.86 5.82071 130.926 5.93016C131.003 6.03486 131.074 6.13955 131.155 6.23948L131.279 6.38701L131.34 6.45839C131.359 6.48218 131.383 6.50598 131.407 6.52501C131.754 6.89144 132.145 7.18649 132.535 7.40064C132.92 7.61954 133.306 7.75755 133.634 7.83845C133.677 7.84796 133.715 7.85748 133.753 7.867C133.791 7.87652 133.829 7.88603 133.867 7.89079C133.944 7.90507 134.015 7.91459 134.082 7.92886C134.115 7.93362 134.148 7.93838 134.177 7.94314C134.21 7.9479 134.239 7.9479 134.267 7.95266C134.324 7.95742 134.377 7.96218 134.424 7.96693C134.615 7.98121 134.724 7.98597 134.724 7.98597Z" fill="#410C0C"/>
<path d="M200.348 7.65681C200.348 7.65681 206.587 7.80433 207.153 7.72343C207.715 7.64253 208.928 7.01437 208.847 6.46235C208.771 5.90557 207.434 5.63431 206.868 5.71521C206.306 5.79135 200.348 7.65681 200.348 7.65681Z" fill="#410C0C"/>
</g>
<defs>
<clipPath id="clip0_1_1749">
<rect width="211.282" height="22" fill="white" transform="translate(0.858887 0.5)"/>
</clipPath>
</defs>
</svg>
