<svg width="60" height="60" viewBox="0 0 60 60" fill="none" xmlns="http://www.w3.org/2000/svg">
<g filter="url(#filter0_b_199_2237)">
<circle cx="30" cy="30" r="30" fill="url(#paint0_radial_199_2237)"/>
</g>
<g clip-path="url(#clip0_199_2237)">
<path d="M45 20.6981C43.8844 21.1875 42.6956 21.5119 41.4562 21.6694C42.7312 20.9081 43.7044 19.7119 44.1619 18.27C42.9731 18.9787 41.6606 19.4794 40.2619 19.7588C39.1331 18.5569 37.5244 17.8125 35.7694 17.8125C32.3644 17.8125 29.6231 20.5763 29.6231 23.9644C29.6231 24.4519 29.6644 24.9206 29.7656 25.3669C24.6525 25.1175 20.1281 22.6669 17.0887 18.9338C16.5581 19.8544 16.2469 20.9081 16.2469 22.0425C16.2469 24.1725 17.3438 26.0606 18.9787 27.1537C17.9906 27.135 17.0213 26.8481 16.2 26.3962V26.4637C16.2 29.4525 18.3319 31.935 21.1275 32.5069C20.6269 32.6438 20.0813 32.7094 19.515 32.7094C19.1213 32.7094 18.7237 32.6869 18.3506 32.6044C19.1475 35.04 21.4088 36.8306 24.0975 36.8888C22.005 38.5256 19.3481 39.5119 16.4719 39.5119C15.9675 39.5119 15.4837 39.4894 15 39.4275C17.7244 41.1844 20.9531 42.1875 24.435 42.1875C35.7525 42.1875 41.94 32.8125 41.94 24.6862C41.94 24.4144 41.9306 24.1519 41.9175 23.8913C43.1381 23.025 44.1637 21.9431 45 20.6981Z" fill="white"/>
</g>
<defs>
<filter id="filter0_b_199_2237" x="-42" y="-42" width="144" height="144" filterUnits="userSpaceOnUse" color-interpolation-filters="sRGB">
<feFlood flood-opacity="0" result="BackgroundImageFix"/>
<feGaussianBlur in="BackgroundImageFix" stdDeviation="21"/>
<feComposite in2="SourceAlpha" operator="in" result="effect1_backgroundBlur_199_2237"/>
<feBlend mode="normal" in="SourceGraphic" in2="effect1_backgroundBlur_199_2237" result="shape"/>
</filter>
<radialGradient id="paint0_radial_199_2237" cx="0" cy="0" r="1" gradientUnits="userSpaceOnUse" gradientTransform="translate(0.539685 1.78512) rotate(44.0741) scale(81.4816 130.318)">
<stop stop-color="white" stop-opacity="0.4"/>
<stop offset="1" stop-color="white" stop-opacity="0.2"/>
</radialGradient>
<clipPath id="clip0_199_2237">
<rect width="30" height="30" fill="white" transform="translate(15 15)"/>
</clipPath>
</defs>
</svg>
