<svg width="116" height="154" viewBox="0 0 116 154" fill="none" xmlns="http://www.w3.org/2000/svg">
<path d="M113.326 80.2127H115.826V80.1811L115.826 80.1495L113.326 80.2127ZM75.1768 153.146L103.28 146.546L83.5123 125.508L75.1768 153.146ZM1.40093 6.3983C19.4351 4.37403 46.5436 5.72237 69.2486 16.1981C80.5687 21.421 90.7243 28.879 98.1594 39.2524C105.582 49.6081 110.39 63.0026 110.827 80.276L115.826 80.1495C115.365 61.9663 110.281 47.5809 102.223 36.3396C94.179 25.116 83.2682 17.16 71.3433 11.658C47.5584 0.684061 19.4625 -0.660441 0.843206 1.4295L1.40093 6.3983ZM110.826 80.2127C110.826 93.2056 106.211 116.263 89.6539 136.138L93.4955 139.338C110.939 118.399 115.826 94.1402 115.826 80.2127H110.826Z" fill="white"/>
</svg>
