<svg width="101" height="100" viewBox="0 0 101 100" fill="none" xmlns="http://www.w3.org/2000/svg">
<g clip-path="url(#clip0_1_1961)">
<path d="M75.9805 51.6014H75.8035C72.725 51.6014 69.8947 49.7396 68.593 46.8584C65.3478 39.676 58.148 35.035 50.2498 35.035C42.3518 35.035 35.1518 39.676 31.9066 46.8584C30.6049 49.7396 27.7746 51.6014 24.6963 51.6014H24.5193C11.1371 51.6014 0.25 62.457 0.25 75.8008C0.25 89.1445 11.1371 100 24.5195 100H75.9805C89.3629 100 100.25 89.1443 100.25 75.8008C100.25 62.4572 89.3629 51.6014 75.9805 51.6014ZM46.8502 66.065L42.8967 85.9299C42.8758 86.0347 42.8481 86.1381 42.8137 86.2393C42.6197 86.8089 42.2533 87.304 41.7653 87.656C41.2773 88.0081 40.6919 88.1996 40.0902 88.2041L40.0701 88.2043C39.454 88.2039 38.8541 88.0073 38.3573 87.6429C37.8605 87.2786 37.4926 86.7656 37.307 86.1781L33.5076 73.8449L29.691 86.1754C29.5068 86.7602 29.142 87.2716 28.649 87.6362C28.1559 88.0007 27.56 88.1995 26.9469 88.2041L26.927 88.2043C26.3286 88.2039 25.7451 88.0185 25.2563 87.6735C24.7675 87.3284 24.3974 86.8406 24.1967 86.277C24.1568 86.1648 24.1252 86.0499 24.1021 85.9332L20.1641 66.0252C19.9025 64.7025 20.7625 63.418 22.0854 63.1564C23.4076 62.8955 24.6926 63.7549 24.9543 65.0777L27.3543 77.2115L31.1197 65.0463C31.2978 64.2082 31.9119 63.4885 32.7889 63.2182C34.0764 62.8219 35.4438 63.5439 35.8408 64.8328L39.6535 77.2096L42.0611 65.1121C42.3244 63.7896 43.6115 62.9311 44.932 63.1941C46.2547 63.4572 47.1135 64.7426 46.8502 66.065ZM55.1352 85.7627C55.1352 87.1109 54.042 88.2041 52.6937 88.2041C51.3455 88.2041 50.2523 87.1109 50.2523 85.7627V65.5514C50.2523 64.2031 51.3455 63.11 52.6937 63.11C54.042 63.11 55.1352 64.2031 55.1352 65.5514V85.7627ZM69.3221 73.0998C70.6703 73.0998 71.7635 74.193 71.7635 75.5412C71.7635 76.8895 70.6703 77.9826 69.3221 77.9826H64.2777V85.7629C64.2777 87.1111 63.1846 88.2043 61.8363 88.2043C60.4881 88.2043 59.3949 87.1111 59.3949 85.7629V65.6994C59.3949 64.3512 60.4881 63.258 61.8363 63.258H69.968C71.3162 63.258 72.4094 64.3512 72.4094 65.6994C72.4094 67.0477 71.3162 68.1408 69.968 68.1408H64.2777V73.0998H69.3221ZM80.3828 85.7627C80.3828 87.1109 79.2896 88.2041 77.9414 88.2041C76.5932 88.2041 75.5 87.1109 75.5 85.7627V65.5514C75.5 64.2031 76.5932 63.11 77.9414 63.11C79.2896 63.11 80.3828 64.2031 80.3828 65.5514V85.7627ZM64.893 9.79004C64.3941 9.79004 63.8891 9.66269 63.4266 9.39453C59.4361 7.08184 54.8797 5.85938 50.25 5.85938C45.6203 5.85938 41.0639 7.08184 37.0734 9.39453C35.6738 10.2057 33.8809 9.72871 33.0697 8.32891C32.2584 6.9291 32.7354 5.13633 34.1353 4.3252C39.0174 1.49551 44.5898 0 50.25 0C55.9102 0 61.4826 1.49551 66.3646 4.3252C67.7646 5.13633 68.2416 6.9291 67.4303 8.32891C66.8871 9.26621 65.9037 9.78984 64.893 9.79004Z" fill="#FFBB15"/>
<path d="M64.893 9.79004C64.3942 9.79004 63.8891 9.66269 63.4266 9.39453C59.4362 7.08184 54.8797 5.85938 50.25 5.85938C45.6204 5.85938 41.0639 7.08184 37.0735 9.39453C35.6739 10.2057 33.8809 9.72871 33.0698 8.32891C32.2584 6.9291 32.7354 5.13633 34.1354 4.3252C39.0174 1.49551 44.5899 0 50.25 0C55.9102 0 61.4827 1.49551 66.3647 4.3252C67.7647 5.13633 68.2417 6.9291 67.4303 8.32891C66.8872 9.26621 65.9038 9.78984 64.893 9.79004ZM59.0348 20.0805C58.536 20.0805 58.0309 19.9531 57.5684 19.685C55.3524 18.4008 52.8217 17.7219 50.25 17.7219C47.6784 17.7219 45.1477 18.4008 42.9317 19.685C41.5323 20.4967 39.7391 20.0193 38.928 18.6193C38.1167 17.2193 38.5936 15.4268 39.9936 14.6156C43.1012 12.8145 46.6477 11.8625 50.25 11.8625C53.8524 11.8625 57.3989 12.8145 60.5065 14.6156C61.9065 15.4268 62.3834 17.2193 61.5721 18.6193C61.029 19.5566 60.0454 20.0803 59.0348 20.0805Z" fill="#FFBB15"/>
<path d="M59.0345 20.0803C58.5357 20.0803 58.0306 19.9529 57.5681 19.6848C55.3521 18.4006 52.8214 17.7217 50.2498 17.7217C47.6781 17.7217 45.1474 18.4006 42.9314 19.6848C41.532 20.4965 39.7388 20.0191 38.9277 18.6191C38.1164 17.2191 38.5933 15.4266 39.9933 14.6154C43.1009 12.8143 46.6474 11.8623 50.2498 11.8623C53.8521 11.8623 57.3986 12.8143 60.5062 14.6154C61.9062 15.4266 62.3832 17.2191 61.5718 18.6191C61.0287 19.5564 60.0451 20.0801 59.0345 20.0803ZM53.1771 30.225C52.6791 30.225 52.1748 30.098 51.7128 29.8309C51.265 29.5719 50.7726 29.4404 50.2498 29.4404C49.7269 29.4404 49.2345 29.5719 48.7867 29.8309C47.3861 30.641 45.5941 30.1623 44.7837 28.7617C43.9736 27.3611 44.4523 25.5689 45.8529 24.7588C47.1849 23.9883 48.7054 23.5811 50.25 23.5811C51.7945 23.5811 53.3148 23.9883 54.647 24.7588C56.0476 25.5689 56.5261 27.3611 55.7162 28.7617C55.1728 29.7002 54.1886 30.2248 53.1771 30.225Z" fill="#FFBB15"/>
<path d="M53.1772 30.225C52.6791 30.225 52.1748 30.098 51.7129 29.8309C51.2651 29.5719 50.7727 29.4404 50.2498 29.4404C49.727 29.4404 49.2346 29.5719 48.7867 29.8309C47.3862 30.641 45.5942 30.1623 44.7838 28.7617C43.9737 27.3611 44.4524 25.5689 45.853 24.7588C47.185 23.9883 48.7055 23.5811 50.25 23.5811C51.7946 23.5811 53.3149 23.9883 54.6471 24.7588C56.0477 25.5689 56.5262 27.3611 55.7162 28.7617C55.1729 29.7002 54.1887 30.2248 53.1772 30.225Z" fill="#FFBB15"/>
</g>
<defs>
<clipPath id="clip0_1_1961">
<rect width="100" height="100" fill="white" transform="translate(0.25)"/>
</clipPath>
</defs>
</svg>
