<svg width="25" height="24" viewBox="0 0 25 24" fill="none" xmlns="http://www.w3.org/2000/svg">
<path d="M24.1789 9.07993C24.0386 8.62302 23.6466 8.30429 23.1874 8.27035L15.9588 7.75893L13.2624 0.734432C13.0896 0.28965 12.6791 0 12.2233 0C11.7641 0 11.3512 0.292074 11.1842 0.734432L8.48206 7.7611L1.25344 8.27252C0.797663 8.30767 0.405683 8.62518 0.261901 9.0821C0.119255 9.53656 0.258421 10.0347 0.608665 10.3401L6.17174 15.194L4.40202 22.5384C4.28953 23.0026 4.46001 23.491 4.83111 23.7746C5.20222 24.0545 5.70091 24.0727 6.0871 23.8194L12.2244 19.7911L18.3616 23.8194C18.5437 23.9406 18.7513 24 18.9577 24C19.192 24 19.4227 23.9273 19.6176 23.7782C19.9887 23.4958 20.1557 23.0098 20.0467 22.542L18.277 15.1977L23.8368 10.3437C24.1859 10.0335 24.3227 9.53439 24.1789 9.07993Z" fill="#FFBB15"/>
</svg>
