<svg width="60" height="60" viewBox="0 0 60 60" fill="none" xmlns="http://www.w3.org/2000/svg">
<g filter="url(#filter0_b_199_2250)">
<circle cx="30" cy="30" r="30" fill="url(#paint0_radial_199_2250)"/>
</g>
<g clip-path="url(#clip0_199_2250)">
<path d="M38.7694 19.3856H21.2306C17.7895 19.3856 15 22.1752 15 25.6162V34.3838C15 37.8248 17.7895 40.6144 21.2306 40.6144H38.7694C42.2105 40.6144 45 37.8248 45 34.3838V25.6162C45 22.1752 42.2105 19.3856 38.7694 19.3856ZM34.5557 30.4266L26.3522 34.3391C26.1336 34.4434 25.8811 34.284 25.8811 34.0419V25.9722C25.8811 25.7266 26.1403 25.5674 26.3593 25.6784L34.5628 29.8356C34.8067 29.9591 34.8024 30.3089 34.5557 30.4266Z" fill="white"/>
</g>
<defs>
<filter id="filter0_b_199_2250" x="-42" y="-42" width="144" height="144" filterUnits="userSpaceOnUse" color-interpolation-filters="sRGB">
<feFlood flood-opacity="0" result="BackgroundImageFix"/>
<feGaussianBlur in="BackgroundImageFix" stdDeviation="21"/>
<feComposite in2="SourceAlpha" operator="in" result="effect1_backgroundBlur_199_2250"/>
<feBlend mode="normal" in="SourceGraphic" in2="effect1_backgroundBlur_199_2250" result="shape"/>
</filter>
<radialGradient id="paint0_radial_199_2250" cx="0" cy="0" r="1" gradientUnits="userSpaceOnUse" gradientTransform="translate(0.539685 1.78512) rotate(44.0741) scale(81.4816 130.318)">
<stop stop-color="white" stop-opacity="0.4"/>
<stop offset="1" stop-color="white" stop-opacity="0.2"/>
</radialGradient>
<clipPath id="clip0_199_2250">
<rect width="30" height="30" fill="white" transform="translate(15 15)"/>
</clipPath>
</defs>
</svg>
